%TF.GenerationSoftware,KiCad,Pcbnew,(6.0.11)*%
%TF.CreationDate,2023-01-29T20:34:14-05:00*%
%TF.ProjectId,Coil_Winder,436f696c-5f57-4696-9e64-65722e6b6963,rev?*%
%TF.SameCoordinates,Original*%
%TF.FileFunction,Soldermask,Bot*%
%TF.FilePolarity,Negative*%
%FSLAX46Y46*%
G04 Gerber Fmt 4.6, Leading zero omitted, Abs format (unit mm)*
G04 Created by KiCad (PCBNEW (6.0.11)) date 2023-01-29 20:34:14*
%MOMM*%
%LPD*%
G01*
G04 APERTURE LIST*
%ADD10C,3.200000*%
%ADD11R,1.700000X1.700000*%
%ADD12O,1.700000X1.700000*%
%ADD13R,1.905000X2.000000*%
%ADD14O,1.905000X2.000000*%
%ADD15C,1.408000*%
%ADD16R,1.600000X1.600000*%
%ADD17O,1.600000X1.600000*%
%ADD18C,1.800000*%
%ADD19C,1.600000*%
G04 APERTURE END LIST*
D10*
%TO.C,REF\u002A\u002A*%
X97000000Y-69000000D03*
%TD*%
%TO.C,REF\u002A\u002A*%
X89000000Y-69000000D03*
%TD*%
%TO.C,REF\u002A\u002A*%
X106600000Y-69000000D03*
%TD*%
%TO.C,REF\u002A\u002A*%
X142600000Y-69000000D03*
%TD*%
%TO.C,REF\u002A\u002A*%
X142600000Y-105000000D03*
%TD*%
%TO.C,REF\u002A\u002A*%
X106600000Y-105000000D03*
%TD*%
D11*
%TO.C,J3*%
X132080000Y-116380000D03*
D12*
X129540000Y-116380000D03*
X127000000Y-116380000D03*
%TD*%
D11*
%TO.C,J2*%
X115575000Y-116380000D03*
D12*
X113035000Y-116380000D03*
%TD*%
D11*
%TO.C,J1*%
X54605000Y-75780000D03*
D12*
X57145000Y-75780000D03*
%TD*%
D13*
%TO.C,U1*%
X72390000Y-75960000D03*
D14*
X74930000Y-75960000D03*
X77470000Y-75960000D03*
%TD*%
D15*
%TO.C,SW1*%
X65000000Y-118740000D03*
X59920000Y-118740000D03*
X65000000Y-113660000D03*
X62460000Y-113660000D03*
X59920000Y-113660000D03*
%TD*%
D16*
%TO.C,U2*%
X92710000Y-86370000D03*
D17*
X90170000Y-86370000D03*
X87630000Y-86370000D03*
X85090000Y-86370000D03*
X82550000Y-86370000D03*
X80010000Y-86370000D03*
X77470000Y-86370000D03*
X74930000Y-86370000D03*
X72390000Y-86370000D03*
X69850000Y-86370000D03*
X67310000Y-86370000D03*
X64770000Y-86370000D03*
X62230000Y-86370000D03*
X59690000Y-86370000D03*
X57150000Y-86370000D03*
X57150000Y-101610000D03*
X59690000Y-101610000D03*
X62230000Y-101610000D03*
X64770000Y-101610000D03*
X67310000Y-101610000D03*
X69850000Y-101610000D03*
X72390000Y-101610000D03*
X74930000Y-101610000D03*
X77470000Y-101610000D03*
X80010000Y-101610000D03*
X82550000Y-101610000D03*
X85090000Y-101610000D03*
X87630000Y-101610000D03*
X90170000Y-101610000D03*
X92710000Y-101610000D03*
%TD*%
D11*
%TO.C,SW2*%
X93980000Y-76010000D03*
D12*
X91440000Y-76010000D03*
%TD*%
D18*
%TO.C,RV1*%
X81325000Y-112000000D03*
X83865000Y-112000000D03*
X86405000Y-112000000D03*
%TD*%
D19*
%TO.C,C2*%
X83820000Y-73470000D03*
X83820000Y-78470000D03*
%TD*%
%TO.C,C1*%
X66040000Y-73470000D03*
X66040000Y-78470000D03*
%TD*%
M02*
