%TF.GenerationSoftware,KiCad,Pcbnew,(6.0.11)*%
%TF.CreationDate,2023-01-29T20:34:14-05:00*%
%TF.ProjectId,Coil_Winder,436f696c-5f57-4696-9e64-65722e6b6963,rev?*%
%TF.SameCoordinates,Original*%
%TF.FileFunction,Copper,L2,Bot*%
%TF.FilePolarity,Positive*%
%FSLAX46Y46*%
G04 Gerber Fmt 4.6, Leading zero omitted, Abs format (unit mm)*
G04 Created by KiCad (PCBNEW (6.0.11)) date 2023-01-29 20:34:14*
%MOMM*%
%LPD*%
G01*
G04 APERTURE LIST*
%TA.AperFunction,ComponentPad*%
%ADD10R,1.700000X1.700000*%
%TD*%
%TA.AperFunction,ComponentPad*%
%ADD11O,1.700000X1.700000*%
%TD*%
%TA.AperFunction,ComponentPad*%
%ADD12R,1.905000X2.000000*%
%TD*%
%TA.AperFunction,ComponentPad*%
%ADD13O,1.905000X2.000000*%
%TD*%
%TA.AperFunction,ComponentPad*%
%ADD14C,1.408000*%
%TD*%
%TA.AperFunction,ComponentPad*%
%ADD15R,1.600000X1.600000*%
%TD*%
%TA.AperFunction,ComponentPad*%
%ADD16O,1.600000X1.600000*%
%TD*%
%TA.AperFunction,ComponentPad*%
%ADD17C,1.800000*%
%TD*%
%TA.AperFunction,ComponentPad*%
%ADD18C,1.600000*%
%TD*%
%TA.AperFunction,Conductor*%
%ADD19C,0.500000*%
%TD*%
G04 APERTURE END LIST*
D10*
%TO.P,J3,1,Pin_1*%
%TO.N,/IN1*%
X132080000Y-116380000D03*
D11*
%TO.P,J3,2,Pin_2*%
%TO.N,/IN2*%
X129540000Y-116380000D03*
%TO.P,J3,3,Pin_3*%
%TO.N,/ENA*%
X127000000Y-116380000D03*
%TD*%
D10*
%TO.P,J2,1,Pin_1*%
%TO.N,+12V*%
X115575000Y-116380000D03*
D11*
%TO.P,J2,2,Pin_2*%
%TO.N,GND*%
X113035000Y-116380000D03*
%TD*%
D10*
%TO.P,J1,1,Pin_1*%
%TO.N,VCC*%
X54605000Y-75780000D03*
D11*
%TO.P,J1,2,Pin_2*%
%TO.N,GND*%
X57145000Y-75780000D03*
%TD*%
D12*
%TO.P,U1,1,IN*%
%TO.N,VCC*%
X72390000Y-75960000D03*
D13*
%TO.P,U1,2,GND*%
%TO.N,GND*%
X74930000Y-75960000D03*
%TO.P,U1,3,OUT*%
%TO.N,+12V*%
X77470000Y-75960000D03*
%TD*%
D14*
%TO.P,SW1,S1*%
%TO.N,N/C*%
X65000000Y-118740000D03*
%TO.P,SW1,S2*%
X59920000Y-118740000D03*
%TO.P,SW1,4*%
%TO.N,GND*%
X65000000Y-113660000D03*
%TO.P,SW1,5*%
%TO.N,Net-(SW1-Pad5)*%
X62460000Y-113660000D03*
%TO.P,SW1,6*%
%TO.N,+5V*%
X59920000Y-113660000D03*
%TD*%
D15*
%TO.P,U2,1,D1/TX*%
%TO.N,unconnected-(U2-Pad1)*%
X92710000Y-86370000D03*
D16*
%TO.P,U2,2,D0/RX*%
%TO.N,unconnected-(U2-Pad2)*%
X90170000Y-86370000D03*
%TO.P,U2,3,~{RESET}*%
%TO.N,unconnected-(U2-Pad3)*%
X87630000Y-86370000D03*
%TO.P,U2,4,GND*%
%TO.N,GND*%
X85090000Y-86370000D03*
%TO.P,U2,5,D2*%
%TO.N,Net-(SW2-Pad2)*%
X82550000Y-86370000D03*
%TO.P,U2,6,D3*%
%TO.N,/IN1*%
X80010000Y-86370000D03*
%TO.P,U2,7,D4*%
%TO.N,/IN2*%
X77470000Y-86370000D03*
%TO.P,U2,8,D5*%
%TO.N,/ENA*%
X74930000Y-86370000D03*
%TO.P,U2,9,D6*%
%TO.N,Net-(SW1-Pad5)*%
X72390000Y-86370000D03*
%TO.P,U2,10,D7*%
%TO.N,unconnected-(U2-Pad10)*%
X69850000Y-86370000D03*
%TO.P,U2,11,D8*%
%TO.N,unconnected-(U2-Pad11)*%
X67310000Y-86370000D03*
%TO.P,U2,12,D9*%
%TO.N,unconnected-(U2-Pad12)*%
X64770000Y-86370000D03*
%TO.P,U2,13,D10*%
%TO.N,unconnected-(U2-Pad13)*%
X62230000Y-86370000D03*
%TO.P,U2,14,D11*%
%TO.N,unconnected-(U2-Pad14)*%
X59690000Y-86370000D03*
%TO.P,U2,15,D12*%
%TO.N,unconnected-(U2-Pad15)*%
X57150000Y-86370000D03*
%TO.P,U2,16,D13*%
%TO.N,unconnected-(U2-Pad16)*%
X57150000Y-101610000D03*
%TO.P,U2,17,3V3*%
%TO.N,unconnected-(U2-Pad17)*%
X59690000Y-101610000D03*
%TO.P,U2,18,AREF*%
%TO.N,unconnected-(U2-Pad18)*%
X62230000Y-101610000D03*
%TO.P,U2,19,A0*%
%TO.N,unconnected-(U2-Pad19)*%
X64770000Y-101610000D03*
%TO.P,U2,20,A1*%
%TO.N,unconnected-(U2-Pad20)*%
X67310000Y-101610000D03*
%TO.P,U2,21,A2*%
%TO.N,unconnected-(U2-Pad21)*%
X69850000Y-101610000D03*
%TO.P,U2,22,A3*%
%TO.N,unconnected-(U2-Pad22)*%
X72390000Y-101610000D03*
%TO.P,U2,23,A4*%
%TO.N,unconnected-(U2-Pad23)*%
X74930000Y-101610000D03*
%TO.P,U2,24,A5*%
%TO.N,unconnected-(U2-Pad24)*%
X77470000Y-101610000D03*
%TO.P,U2,25,A6*%
%TO.N,unconnected-(U2-Pad25)*%
X80010000Y-101610000D03*
%TO.P,U2,26,A7*%
%TO.N,Net-(RV1-Pad2)*%
X82550000Y-101610000D03*
%TO.P,U2,27,+5V*%
%TO.N,+5V*%
X85090000Y-101610000D03*
%TO.P,U2,28,~{RESET}*%
%TO.N,unconnected-(U2-Pad28)*%
X87630000Y-101610000D03*
%TO.P,U2,29,GND*%
%TO.N,GND*%
X90170000Y-101610000D03*
%TO.P,U2,30,VIN*%
%TO.N,+12V*%
X92710000Y-101610000D03*
%TD*%
D10*
%TO.P,SW2,1,1*%
%TO.N,GND*%
X93980000Y-76010000D03*
D11*
%TO.P,SW2,2,2*%
%TO.N,Net-(SW2-Pad2)*%
X91440000Y-76010000D03*
%TD*%
D17*
%TO.P,RV1,1,1*%
%TO.N,unconnected-(RV1-Pad1)*%
X81325000Y-112000000D03*
%TO.P,RV1,2,2*%
%TO.N,Net-(RV1-Pad2)*%
X83865000Y-112000000D03*
%TO.P,RV1,3,3*%
%TO.N,+5V*%
X86405000Y-112000000D03*
%TD*%
D18*
%TO.P,C2,1*%
%TO.N,+12V*%
X83820000Y-73470000D03*
%TO.P,C2,2*%
%TO.N,GND*%
X83820000Y-78470000D03*
%TD*%
%TO.P,C1,1*%
%TO.N,VCC*%
X66040000Y-73470000D03*
%TO.P,C1,2*%
%TO.N,GND*%
X66040000Y-78470000D03*
%TD*%
D19*
%TO.N,+12V*%
X95390000Y-101610000D02*
X92710000Y-101610000D01*
X77470000Y-78470000D02*
X82000000Y-83000000D01*
X98000000Y-99000000D02*
X95390000Y-101610000D01*
X77470000Y-75960000D02*
X77470000Y-78470000D01*
X82000000Y-83000000D02*
X97000000Y-83000000D01*
X97000000Y-83000000D02*
X98000000Y-84000000D01*
X98000000Y-84000000D02*
X98000000Y-99000000D01*
%TD*%
%TA.AperFunction,Conductor*%
%TO.N,GND*%
G36*
X146433621Y-64528502D02*
G01*
X146480114Y-64582158D01*
X146491500Y-64634500D01*
X146491500Y-123365500D01*
X146471498Y-123433621D01*
X146417842Y-123480114D01*
X146365500Y-123491500D01*
X51634500Y-123491500D01*
X51566379Y-123471498D01*
X51519886Y-123417842D01*
X51508500Y-123365500D01*
X51508500Y-118740000D01*
X58702868Y-118740000D01*
X58721359Y-118951353D01*
X58776270Y-119156284D01*
X58778592Y-119161264D01*
X58778593Y-119161266D01*
X58863607Y-119343579D01*
X58863610Y-119343584D01*
X58865933Y-119348566D01*
X58987623Y-119522357D01*
X59137643Y-119672377D01*
X59142151Y-119675534D01*
X59142154Y-119675536D01*
X59214383Y-119726111D01*
X59311434Y-119794067D01*
X59316416Y-119796390D01*
X59316421Y-119796393D01*
X59498734Y-119881407D01*
X59503716Y-119883730D01*
X59509024Y-119885152D01*
X59509026Y-119885153D01*
X59703332Y-119937217D01*
X59703334Y-119937217D01*
X59708647Y-119938641D01*
X59920000Y-119957132D01*
X60131353Y-119938641D01*
X60136666Y-119937217D01*
X60136668Y-119937217D01*
X60330974Y-119885153D01*
X60330976Y-119885152D01*
X60336284Y-119883730D01*
X60341266Y-119881407D01*
X60523579Y-119796393D01*
X60523584Y-119796390D01*
X60528566Y-119794067D01*
X60625617Y-119726111D01*
X60697846Y-119675536D01*
X60697849Y-119675534D01*
X60702357Y-119672377D01*
X60852377Y-119522357D01*
X60974067Y-119348566D01*
X60976390Y-119343584D01*
X60976393Y-119343579D01*
X61061407Y-119161266D01*
X61061408Y-119161264D01*
X61063730Y-119156284D01*
X61118641Y-118951353D01*
X61137132Y-118740000D01*
X63782868Y-118740000D01*
X63801359Y-118951353D01*
X63856270Y-119156284D01*
X63858592Y-119161264D01*
X63858593Y-119161266D01*
X63943607Y-119343579D01*
X63943610Y-119343584D01*
X63945933Y-119348566D01*
X64067623Y-119522357D01*
X64217643Y-119672377D01*
X64222151Y-119675534D01*
X64222154Y-119675536D01*
X64294383Y-119726111D01*
X64391434Y-119794067D01*
X64396416Y-119796390D01*
X64396421Y-119796393D01*
X64578734Y-119881407D01*
X64583716Y-119883730D01*
X64589024Y-119885152D01*
X64589026Y-119885153D01*
X64783332Y-119937217D01*
X64783334Y-119937217D01*
X64788647Y-119938641D01*
X65000000Y-119957132D01*
X65211353Y-119938641D01*
X65216666Y-119937217D01*
X65216668Y-119937217D01*
X65410974Y-119885153D01*
X65410976Y-119885152D01*
X65416284Y-119883730D01*
X65421266Y-119881407D01*
X65603579Y-119796393D01*
X65603584Y-119796390D01*
X65608566Y-119794067D01*
X65705617Y-119726111D01*
X65777846Y-119675536D01*
X65777849Y-119675534D01*
X65782357Y-119672377D01*
X65932377Y-119522357D01*
X66054067Y-119348566D01*
X66056390Y-119343584D01*
X66056393Y-119343579D01*
X66141407Y-119161266D01*
X66141408Y-119161264D01*
X66143730Y-119156284D01*
X66198641Y-118951353D01*
X66217132Y-118740000D01*
X66198641Y-118528647D01*
X66143730Y-118323716D01*
X66141407Y-118318734D01*
X66056393Y-118136421D01*
X66056390Y-118136416D01*
X66054067Y-118131434D01*
X65932377Y-117957643D01*
X65782357Y-117807623D01*
X65777849Y-117804466D01*
X65777846Y-117804464D01*
X65683112Y-117738131D01*
X65608566Y-117685933D01*
X65603584Y-117683610D01*
X65603579Y-117683607D01*
X65421266Y-117598593D01*
X65421264Y-117598592D01*
X65416284Y-117596270D01*
X65410976Y-117594848D01*
X65410974Y-117594847D01*
X65216668Y-117542783D01*
X65216666Y-117542783D01*
X65211353Y-117541359D01*
X65000000Y-117522868D01*
X64788647Y-117541359D01*
X64783334Y-117542783D01*
X64783332Y-117542783D01*
X64589026Y-117594847D01*
X64589024Y-117594848D01*
X64583716Y-117596270D01*
X64578736Y-117598592D01*
X64578734Y-117598593D01*
X64396421Y-117683607D01*
X64396416Y-117683610D01*
X64391434Y-117685933D01*
X64316888Y-117738131D01*
X64222154Y-117804464D01*
X64222151Y-117804466D01*
X64217643Y-117807623D01*
X64067623Y-117957643D01*
X63945933Y-118131434D01*
X63943610Y-118136416D01*
X63943607Y-118136421D01*
X63858593Y-118318734D01*
X63856270Y-118323716D01*
X63801359Y-118528647D01*
X63782868Y-118740000D01*
X61137132Y-118740000D01*
X61118641Y-118528647D01*
X61063730Y-118323716D01*
X61061407Y-118318734D01*
X60976393Y-118136421D01*
X60976390Y-118136416D01*
X60974067Y-118131434D01*
X60852377Y-117957643D01*
X60702357Y-117807623D01*
X60697849Y-117804466D01*
X60697846Y-117804464D01*
X60603112Y-117738131D01*
X60528566Y-117685933D01*
X60523584Y-117683610D01*
X60523579Y-117683607D01*
X60341266Y-117598593D01*
X60341264Y-117598592D01*
X60336284Y-117596270D01*
X60330976Y-117594848D01*
X60330974Y-117594847D01*
X60136668Y-117542783D01*
X60136666Y-117542783D01*
X60131353Y-117541359D01*
X59920000Y-117522868D01*
X59708647Y-117541359D01*
X59703334Y-117542783D01*
X59703332Y-117542783D01*
X59509026Y-117594847D01*
X59509024Y-117594848D01*
X59503716Y-117596270D01*
X59498736Y-117598592D01*
X59498734Y-117598593D01*
X59316421Y-117683607D01*
X59316416Y-117683610D01*
X59311434Y-117685933D01*
X59236888Y-117738131D01*
X59142154Y-117804464D01*
X59142151Y-117804466D01*
X59137643Y-117807623D01*
X58987623Y-117957643D01*
X58865933Y-118131434D01*
X58863610Y-118136416D01*
X58863607Y-118136421D01*
X58778593Y-118318734D01*
X58776270Y-118323716D01*
X58721359Y-118528647D01*
X58702868Y-118740000D01*
X51508500Y-118740000D01*
X51508500Y-116647966D01*
X111703257Y-116647966D01*
X111733565Y-116782446D01*
X111736645Y-116792275D01*
X111816770Y-116989603D01*
X111821413Y-116998794D01*
X111932694Y-117180388D01*
X111938777Y-117188699D01*
X112078213Y-117349667D01*
X112085580Y-117356883D01*
X112249434Y-117492916D01*
X112257881Y-117498831D01*
X112441756Y-117606279D01*
X112451042Y-117610729D01*
X112650001Y-117686703D01*
X112659899Y-117689579D01*
X112763250Y-117710606D01*
X112777299Y-117709410D01*
X112781000Y-117699065D01*
X112781000Y-117698517D01*
X113289000Y-117698517D01*
X113293064Y-117712359D01*
X113306478Y-117714393D01*
X113313184Y-117713534D01*
X113323262Y-117711392D01*
X113527255Y-117650191D01*
X113536842Y-117646433D01*
X113728095Y-117552739D01*
X113736945Y-117547464D01*
X113910328Y-117423792D01*
X113918193Y-117417145D01*
X114022897Y-117312805D01*
X114085268Y-117278889D01*
X114156075Y-117284077D01*
X114212837Y-117326723D01*
X114229819Y-117357826D01*
X114274385Y-117476705D01*
X114361739Y-117593261D01*
X114478295Y-117680615D01*
X114614684Y-117731745D01*
X114676866Y-117738500D01*
X116473134Y-117738500D01*
X116535316Y-117731745D01*
X116671705Y-117680615D01*
X116788261Y-117593261D01*
X116875615Y-117476705D01*
X116926745Y-117340316D01*
X116933500Y-117278134D01*
X116933500Y-116346695D01*
X125637251Y-116346695D01*
X125650110Y-116569715D01*
X125651247Y-116574761D01*
X125651248Y-116574767D01*
X125665493Y-116637973D01*
X125699222Y-116787639D01*
X125783266Y-116994616D01*
X125820685Y-117055678D01*
X125897291Y-117180688D01*
X125899987Y-117185088D01*
X126046250Y-117353938D01*
X126218126Y-117496632D01*
X126411000Y-117609338D01*
X126619692Y-117689030D01*
X126624760Y-117690061D01*
X126624763Y-117690062D01*
X126719862Y-117709410D01*
X126838597Y-117733567D01*
X126843772Y-117733757D01*
X126843774Y-117733757D01*
X127056673Y-117741564D01*
X127056677Y-117741564D01*
X127061837Y-117741753D01*
X127066957Y-117741097D01*
X127066959Y-117741097D01*
X127278288Y-117714025D01*
X127278289Y-117714025D01*
X127283416Y-117713368D01*
X127288366Y-117711883D01*
X127492429Y-117650661D01*
X127492434Y-117650659D01*
X127497384Y-117649174D01*
X127697994Y-117550896D01*
X127879860Y-117421173D01*
X128038096Y-117263489D01*
X128097594Y-117180689D01*
X128168453Y-117082077D01*
X128169776Y-117083028D01*
X128216645Y-117039857D01*
X128286580Y-117027625D01*
X128352026Y-117055144D01*
X128379875Y-117086994D01*
X128439987Y-117185088D01*
X128586250Y-117353938D01*
X128758126Y-117496632D01*
X128951000Y-117609338D01*
X129159692Y-117689030D01*
X129164760Y-117690061D01*
X129164763Y-117690062D01*
X129259862Y-117709410D01*
X129378597Y-117733567D01*
X129383772Y-117733757D01*
X129383774Y-117733757D01*
X129596673Y-117741564D01*
X129596677Y-117741564D01*
X129601837Y-117741753D01*
X129606957Y-117741097D01*
X129606959Y-117741097D01*
X129818288Y-117714025D01*
X129818289Y-117714025D01*
X129823416Y-117713368D01*
X129828366Y-117711883D01*
X130032429Y-117650661D01*
X130032434Y-117650659D01*
X130037384Y-117649174D01*
X130237994Y-117550896D01*
X130419860Y-117421173D01*
X130528091Y-117313319D01*
X130590462Y-117279404D01*
X130661268Y-117284592D01*
X130718030Y-117327238D01*
X130735012Y-117358341D01*
X130779385Y-117476705D01*
X130866739Y-117593261D01*
X130983295Y-117680615D01*
X131119684Y-117731745D01*
X131181866Y-117738500D01*
X132978134Y-117738500D01*
X133040316Y-117731745D01*
X133176705Y-117680615D01*
X133293261Y-117593261D01*
X133380615Y-117476705D01*
X133431745Y-117340316D01*
X133438500Y-117278134D01*
X133438500Y-115481866D01*
X133431745Y-115419684D01*
X133380615Y-115283295D01*
X133293261Y-115166739D01*
X133176705Y-115079385D01*
X133040316Y-115028255D01*
X132978134Y-115021500D01*
X131181866Y-115021500D01*
X131119684Y-115028255D01*
X130983295Y-115079385D01*
X130866739Y-115166739D01*
X130779385Y-115283295D01*
X130776233Y-115291703D01*
X130734919Y-115401907D01*
X130692277Y-115458671D01*
X130625716Y-115483371D01*
X130556367Y-115468163D01*
X130523743Y-115442476D01*
X130473151Y-115386875D01*
X130473142Y-115386866D01*
X130469670Y-115383051D01*
X130465619Y-115379852D01*
X130465615Y-115379848D01*
X130298414Y-115247800D01*
X130298410Y-115247798D01*
X130294359Y-115244598D01*
X130258028Y-115224542D01*
X130242136Y-115215769D01*
X130098789Y-115136638D01*
X130093920Y-115134914D01*
X130093916Y-115134912D01*
X129893087Y-115063795D01*
X129893083Y-115063794D01*
X129888212Y-115062069D01*
X129883119Y-115061162D01*
X129883116Y-115061161D01*
X129673373Y-115023800D01*
X129673367Y-115023799D01*
X129668284Y-115022894D01*
X129594452Y-115021992D01*
X129450081Y-115020228D01*
X129450079Y-115020228D01*
X129444911Y-115020165D01*
X129224091Y-115053955D01*
X129011756Y-115123357D01*
X128813607Y-115226507D01*
X128809474Y-115229610D01*
X128809471Y-115229612D01*
X128726771Y-115291705D01*
X128634965Y-115360635D01*
X128609546Y-115387234D01*
X128541280Y-115458671D01*
X128480629Y-115522138D01*
X128373201Y-115679621D01*
X128318293Y-115724621D01*
X128247768Y-115732792D01*
X128184021Y-115701538D01*
X128163324Y-115677054D01*
X128082822Y-115552617D01*
X128082820Y-115552614D01*
X128080014Y-115548277D01*
X127929670Y-115383051D01*
X127925619Y-115379852D01*
X127925615Y-115379848D01*
X127758414Y-115247800D01*
X127758410Y-115247798D01*
X127754359Y-115244598D01*
X127718028Y-115224542D01*
X127702136Y-115215769D01*
X127558789Y-115136638D01*
X127553920Y-115134914D01*
X127553916Y-115134912D01*
X127353087Y-115063795D01*
X127353083Y-115063794D01*
X127348212Y-115062069D01*
X127343119Y-115061162D01*
X127343116Y-115061161D01*
X127133373Y-115023800D01*
X127133367Y-115023799D01*
X127128284Y-115022894D01*
X127054452Y-115021992D01*
X126910081Y-115020228D01*
X126910079Y-115020228D01*
X126904911Y-115020165D01*
X126684091Y-115053955D01*
X126471756Y-115123357D01*
X126273607Y-115226507D01*
X126269474Y-115229610D01*
X126269471Y-115229612D01*
X126186771Y-115291705D01*
X126094965Y-115360635D01*
X126069546Y-115387234D01*
X126001280Y-115458671D01*
X125940629Y-115522138D01*
X125937720Y-115526403D01*
X125937714Y-115526411D01*
X125925404Y-115544457D01*
X125814743Y-115706680D01*
X125720688Y-115909305D01*
X125660989Y-116124570D01*
X125637251Y-116346695D01*
X116933500Y-116346695D01*
X116933500Y-115481866D01*
X116926745Y-115419684D01*
X116875615Y-115283295D01*
X116788261Y-115166739D01*
X116671705Y-115079385D01*
X116535316Y-115028255D01*
X116473134Y-115021500D01*
X114676866Y-115021500D01*
X114614684Y-115028255D01*
X114478295Y-115079385D01*
X114361739Y-115166739D01*
X114274385Y-115283295D01*
X114271233Y-115291703D01*
X114271232Y-115291705D01*
X114229722Y-115402433D01*
X114187081Y-115459198D01*
X114120519Y-115483898D01*
X114051170Y-115468691D01*
X114018546Y-115443004D01*
X113967799Y-115387234D01*
X113960273Y-115380215D01*
X113793139Y-115248222D01*
X113784552Y-115242517D01*
X113598117Y-115139599D01*
X113588705Y-115135369D01*
X113387959Y-115064280D01*
X113377988Y-115061646D01*
X113306837Y-115048972D01*
X113293540Y-115050432D01*
X113289000Y-115064989D01*
X113289000Y-117698517D01*
X112781000Y-117698517D01*
X112781000Y-116652115D01*
X112776525Y-116636876D01*
X112775135Y-116635671D01*
X112767452Y-116634000D01*
X111718225Y-116634000D01*
X111704694Y-116637973D01*
X111703257Y-116647966D01*
X51508500Y-116647966D01*
X51508500Y-116114183D01*
X111699389Y-116114183D01*
X111700912Y-116122607D01*
X111713292Y-116126000D01*
X112762885Y-116126000D01*
X112778124Y-116121525D01*
X112779329Y-116120135D01*
X112781000Y-116112452D01*
X112781000Y-115063102D01*
X112777082Y-115049758D01*
X112762806Y-115047771D01*
X112724324Y-115053660D01*
X112714288Y-115056051D01*
X112511868Y-115122212D01*
X112502359Y-115126209D01*
X112313463Y-115224542D01*
X112304738Y-115230036D01*
X112134433Y-115357905D01*
X112126726Y-115364748D01*
X111979590Y-115518717D01*
X111973104Y-115526727D01*
X111853098Y-115702649D01*
X111848000Y-115711623D01*
X111758338Y-115904783D01*
X111754775Y-115914470D01*
X111699389Y-116114183D01*
X51508500Y-116114183D01*
X51508500Y-113660000D01*
X58702868Y-113660000D01*
X58721359Y-113871353D01*
X58776270Y-114076284D01*
X58778592Y-114081264D01*
X58778593Y-114081266D01*
X58863607Y-114263579D01*
X58863610Y-114263584D01*
X58865933Y-114268566D01*
X58987623Y-114442357D01*
X59137643Y-114592377D01*
X59142151Y-114595534D01*
X59142154Y-114595536D01*
X59214383Y-114646111D01*
X59311434Y-114714067D01*
X59316416Y-114716390D01*
X59316421Y-114716393D01*
X59497718Y-114800933D01*
X59503716Y-114803730D01*
X59509024Y-114805152D01*
X59509026Y-114805153D01*
X59703332Y-114857217D01*
X59703334Y-114857217D01*
X59708647Y-114858641D01*
X59920000Y-114877132D01*
X60131353Y-114858641D01*
X60136666Y-114857217D01*
X60136668Y-114857217D01*
X60330974Y-114805153D01*
X60330976Y-114805152D01*
X60336284Y-114803730D01*
X60342282Y-114800933D01*
X60523579Y-114716393D01*
X60523584Y-114716390D01*
X60528566Y-114714067D01*
X60625617Y-114646111D01*
X60697846Y-114595536D01*
X60697849Y-114595534D01*
X60702357Y-114592377D01*
X60852377Y-114442357D01*
X60974067Y-114268566D01*
X60976390Y-114263584D01*
X60976393Y-114263579D01*
X61061407Y-114081266D01*
X61061408Y-114081264D01*
X61063730Y-114076284D01*
X61065153Y-114070974D01*
X61065156Y-114070966D01*
X61068294Y-114059254D01*
X61105245Y-113998632D01*
X61169106Y-113967610D01*
X61239601Y-113976039D01*
X61294347Y-114021243D01*
X61311706Y-114059254D01*
X61314844Y-114070966D01*
X61314847Y-114070974D01*
X61316270Y-114076284D01*
X61318592Y-114081264D01*
X61318593Y-114081266D01*
X61403607Y-114263579D01*
X61403610Y-114263584D01*
X61405933Y-114268566D01*
X61527623Y-114442357D01*
X61677643Y-114592377D01*
X61682151Y-114595534D01*
X61682154Y-114595536D01*
X61754383Y-114646111D01*
X61851434Y-114714067D01*
X61856416Y-114716390D01*
X61856421Y-114716393D01*
X62037718Y-114800933D01*
X62043716Y-114803730D01*
X62049024Y-114805152D01*
X62049026Y-114805153D01*
X62243332Y-114857217D01*
X62243334Y-114857217D01*
X62248647Y-114858641D01*
X62460000Y-114877132D01*
X62671353Y-114858641D01*
X62676666Y-114857217D01*
X62676668Y-114857217D01*
X62870974Y-114805153D01*
X62870976Y-114805152D01*
X62876284Y-114803730D01*
X62882282Y-114800933D01*
X63063579Y-114716393D01*
X63063584Y-114716390D01*
X63068566Y-114714067D01*
X63121313Y-114677133D01*
X64347422Y-114677133D01*
X64356718Y-114689148D01*
X64387176Y-114710475D01*
X64396672Y-114715958D01*
X64578903Y-114800933D01*
X64589199Y-114804681D01*
X64783424Y-114856724D01*
X64794211Y-114858626D01*
X64994525Y-114876151D01*
X65005475Y-114876151D01*
X65205789Y-114858626D01*
X65216576Y-114856724D01*
X65410801Y-114804681D01*
X65421097Y-114800933D01*
X65603328Y-114715958D01*
X65612824Y-114710475D01*
X65644120Y-114688561D01*
X65652495Y-114678084D01*
X65645426Y-114664636D01*
X65012812Y-114032022D01*
X64998868Y-114024408D01*
X64997035Y-114024539D01*
X64990420Y-114028790D01*
X64353852Y-114665358D01*
X64347422Y-114677133D01*
X63121313Y-114677133D01*
X63165617Y-114646111D01*
X63237846Y-114595536D01*
X63237849Y-114595534D01*
X63242357Y-114592377D01*
X63392377Y-114442357D01*
X63514067Y-114268566D01*
X63516390Y-114263584D01*
X63516393Y-114263579D01*
X63601407Y-114081266D01*
X63601408Y-114081264D01*
X63603730Y-114076284D01*
X63608552Y-114058288D01*
X63645504Y-113997665D01*
X63709364Y-113966644D01*
X63779859Y-113975072D01*
X63834606Y-114020275D01*
X63851966Y-114058289D01*
X63855317Y-114070796D01*
X63859067Y-114081097D01*
X63944042Y-114263328D01*
X63949525Y-114272824D01*
X63971439Y-114304120D01*
X63981916Y-114312495D01*
X63995364Y-114305426D01*
X64627978Y-113672812D01*
X64634356Y-113661132D01*
X65364408Y-113661132D01*
X65364539Y-113662965D01*
X65368790Y-113669580D01*
X66005358Y-114306148D01*
X66017133Y-114312578D01*
X66029148Y-114303282D01*
X66050475Y-114272824D01*
X66055958Y-114263328D01*
X66140933Y-114081097D01*
X66144681Y-114070801D01*
X66196724Y-113876576D01*
X66198626Y-113865789D01*
X66216151Y-113665475D01*
X66216151Y-113654525D01*
X66198626Y-113454211D01*
X66196724Y-113443424D01*
X66144681Y-113249199D01*
X66140933Y-113238903D01*
X66055958Y-113056672D01*
X66050475Y-113047176D01*
X66028561Y-113015880D01*
X66018084Y-113007505D01*
X66004636Y-113014574D01*
X65372022Y-113647188D01*
X65364408Y-113661132D01*
X64634356Y-113661132D01*
X64635592Y-113658868D01*
X64635461Y-113657035D01*
X64631210Y-113650420D01*
X63994642Y-113013852D01*
X63982867Y-113007422D01*
X63970852Y-113016718D01*
X63949525Y-113047176D01*
X63944042Y-113056672D01*
X63859067Y-113238903D01*
X63855317Y-113249204D01*
X63851966Y-113261711D01*
X63815015Y-113322334D01*
X63751155Y-113353356D01*
X63680660Y-113344928D01*
X63625913Y-113299726D01*
X63608552Y-113261712D01*
X63605153Y-113249026D01*
X63605152Y-113249024D01*
X63603730Y-113243716D01*
X63527152Y-113079494D01*
X63516393Y-113056421D01*
X63516390Y-113056416D01*
X63514067Y-113051434D01*
X63421793Y-112919653D01*
X63395536Y-112882154D01*
X63395534Y-112882151D01*
X63392377Y-112877643D01*
X63242357Y-112727623D01*
X63237849Y-112724466D01*
X63237846Y-112724464D01*
X63165617Y-112673889D01*
X63119955Y-112641916D01*
X64347505Y-112641916D01*
X64354574Y-112655364D01*
X64987188Y-113287978D01*
X65001132Y-113295592D01*
X65002965Y-113295461D01*
X65009580Y-113291210D01*
X65646148Y-112654642D01*
X65652578Y-112642867D01*
X65643282Y-112630852D01*
X65612824Y-112609525D01*
X65603328Y-112604042D01*
X65421097Y-112519067D01*
X65410801Y-112515319D01*
X65216576Y-112463276D01*
X65205789Y-112461374D01*
X65005475Y-112443849D01*
X64994525Y-112443849D01*
X64794211Y-112461374D01*
X64783424Y-112463276D01*
X64589199Y-112515319D01*
X64578903Y-112519067D01*
X64396672Y-112604042D01*
X64387176Y-112609525D01*
X64355880Y-112631439D01*
X64347505Y-112641916D01*
X63119955Y-112641916D01*
X63068566Y-112605933D01*
X63063584Y-112603610D01*
X63063579Y-112603607D01*
X62881266Y-112518593D01*
X62881264Y-112518592D01*
X62876284Y-112516270D01*
X62870976Y-112514848D01*
X62870974Y-112514847D01*
X62676668Y-112462783D01*
X62676666Y-112462783D01*
X62671353Y-112461359D01*
X62460000Y-112442868D01*
X62248647Y-112461359D01*
X62243334Y-112462783D01*
X62243332Y-112462783D01*
X62049026Y-112514847D01*
X62049024Y-112514848D01*
X62043716Y-112516270D01*
X62038736Y-112518592D01*
X62038734Y-112518593D01*
X61856421Y-112603607D01*
X61856416Y-112603610D01*
X61851434Y-112605933D01*
X61754383Y-112673889D01*
X61682154Y-112724464D01*
X61682151Y-112724466D01*
X61677643Y-112727623D01*
X61527623Y-112877643D01*
X61524466Y-112882151D01*
X61524464Y-112882154D01*
X61498207Y-112919653D01*
X61405933Y-113051434D01*
X61403610Y-113056416D01*
X61403607Y-113056421D01*
X61392848Y-113079494D01*
X61316270Y-113243716D01*
X61314848Y-113249023D01*
X61314844Y-113249034D01*
X61311706Y-113260746D01*
X61274755Y-113321368D01*
X61210894Y-113352390D01*
X61140399Y-113343961D01*
X61085653Y-113298757D01*
X61068294Y-113260746D01*
X61065156Y-113249034D01*
X61065152Y-113249023D01*
X61063730Y-113243716D01*
X60987152Y-113079494D01*
X60976393Y-113056421D01*
X60976390Y-113056416D01*
X60974067Y-113051434D01*
X60881793Y-112919653D01*
X60855536Y-112882154D01*
X60855534Y-112882151D01*
X60852377Y-112877643D01*
X60702357Y-112727623D01*
X60697849Y-112724466D01*
X60697846Y-112724464D01*
X60625617Y-112673889D01*
X60528566Y-112605933D01*
X60523584Y-112603610D01*
X60523579Y-112603607D01*
X60341266Y-112518593D01*
X60341264Y-112518592D01*
X60336284Y-112516270D01*
X60330976Y-112514848D01*
X60330974Y-112514847D01*
X60136668Y-112462783D01*
X60136666Y-112462783D01*
X60131353Y-112461359D01*
X59920000Y-112442868D01*
X59708647Y-112461359D01*
X59703334Y-112462783D01*
X59703332Y-112462783D01*
X59509026Y-112514847D01*
X59509024Y-112514848D01*
X59503716Y-112516270D01*
X59498736Y-112518592D01*
X59498734Y-112518593D01*
X59316421Y-112603607D01*
X59316416Y-112603610D01*
X59311434Y-112605933D01*
X59214383Y-112673889D01*
X59142154Y-112724464D01*
X59142151Y-112724466D01*
X59137643Y-112727623D01*
X58987623Y-112877643D01*
X58984466Y-112882151D01*
X58984464Y-112882154D01*
X58958207Y-112919653D01*
X58865933Y-113051434D01*
X58863610Y-113056416D01*
X58863607Y-113056421D01*
X58852848Y-113079494D01*
X58776270Y-113243716D01*
X58774848Y-113249024D01*
X58774847Y-113249026D01*
X58731263Y-113411683D01*
X58721359Y-113448647D01*
X58702868Y-113660000D01*
X51508500Y-113660000D01*
X51508500Y-111965469D01*
X79912095Y-111965469D01*
X79912392Y-111970622D01*
X79912392Y-111970625D01*
X79918067Y-112069041D01*
X79925427Y-112196697D01*
X79926564Y-112201743D01*
X79926565Y-112201749D01*
X79958741Y-112344523D01*
X79976346Y-112422642D01*
X79978288Y-112427424D01*
X79978289Y-112427428D01*
X80061540Y-112632450D01*
X80063484Y-112637237D01*
X80184501Y-112834719D01*
X80336147Y-113009784D01*
X80514349Y-113157730D01*
X80714322Y-113274584D01*
X80930694Y-113357209D01*
X80935760Y-113358240D01*
X80935761Y-113358240D01*
X80988846Y-113369040D01*
X81157656Y-113403385D01*
X81288324Y-113408176D01*
X81383949Y-113411683D01*
X81383953Y-113411683D01*
X81389113Y-113411872D01*
X81394233Y-113411216D01*
X81394235Y-113411216D01*
X81467270Y-113401860D01*
X81618847Y-113382442D01*
X81623795Y-113380957D01*
X81623802Y-113380956D01*
X81835747Y-113317369D01*
X81840690Y-113315886D01*
X81875655Y-113298757D01*
X82044049Y-113216262D01*
X82044052Y-113216260D01*
X82048684Y-113213991D01*
X82237243Y-113079494D01*
X82401303Y-112916005D01*
X82404319Y-112911808D01*
X82404326Y-112911800D01*
X82491960Y-112789844D01*
X82547954Y-112746196D01*
X82618658Y-112739750D01*
X82681622Y-112772553D01*
X82701715Y-112797536D01*
X82721800Y-112830313D01*
X82721804Y-112830318D01*
X82724501Y-112834719D01*
X82876147Y-113009784D01*
X83054349Y-113157730D01*
X83254322Y-113274584D01*
X83470694Y-113357209D01*
X83475760Y-113358240D01*
X83475761Y-113358240D01*
X83528846Y-113369040D01*
X83697656Y-113403385D01*
X83828324Y-113408176D01*
X83923949Y-113411683D01*
X83923953Y-113411683D01*
X83929113Y-113411872D01*
X83934233Y-113411216D01*
X83934235Y-113411216D01*
X84007270Y-113401860D01*
X84158847Y-113382442D01*
X84163795Y-113380957D01*
X84163802Y-113380956D01*
X84375747Y-113317369D01*
X84380690Y-113315886D01*
X84415655Y-113298757D01*
X84584049Y-113216262D01*
X84584052Y-113216260D01*
X84588684Y-113213991D01*
X84777243Y-113079494D01*
X84941303Y-112916005D01*
X84944319Y-112911808D01*
X84944326Y-112911800D01*
X85031960Y-112789844D01*
X85087954Y-112746196D01*
X85158658Y-112739750D01*
X85221622Y-112772553D01*
X85241715Y-112797536D01*
X85261800Y-112830313D01*
X85261804Y-112830318D01*
X85264501Y-112834719D01*
X85416147Y-113009784D01*
X85594349Y-113157730D01*
X85794322Y-113274584D01*
X86010694Y-113357209D01*
X86015760Y-113358240D01*
X86015761Y-113358240D01*
X86068846Y-113369040D01*
X86237656Y-113403385D01*
X86368324Y-113408176D01*
X86463949Y-113411683D01*
X86463953Y-113411683D01*
X86469113Y-113411872D01*
X86474233Y-113411216D01*
X86474235Y-113411216D01*
X86547270Y-113401860D01*
X86698847Y-113382442D01*
X86703795Y-113380957D01*
X86703802Y-113380956D01*
X86915747Y-113317369D01*
X86920690Y-113315886D01*
X86955655Y-113298757D01*
X87124049Y-113216262D01*
X87124052Y-113216260D01*
X87128684Y-113213991D01*
X87317243Y-113079494D01*
X87481303Y-112916005D01*
X87616458Y-112727917D01*
X87663641Y-112632450D01*
X87716784Y-112524922D01*
X87716785Y-112524920D01*
X87719078Y-112520280D01*
X87786408Y-112298671D01*
X87816640Y-112069041D01*
X87818327Y-112000000D01*
X87812032Y-111923434D01*
X87799773Y-111774318D01*
X87799772Y-111774312D01*
X87799349Y-111769167D01*
X87742925Y-111544533D01*
X87740866Y-111539797D01*
X87652630Y-111336868D01*
X87652628Y-111336865D01*
X87650570Y-111332131D01*
X87524764Y-111137665D01*
X87368887Y-110966358D01*
X87364836Y-110963159D01*
X87364832Y-110963155D01*
X87191177Y-110826011D01*
X87191172Y-110826008D01*
X87187123Y-110822810D01*
X87182607Y-110820317D01*
X87182604Y-110820315D01*
X86988879Y-110713373D01*
X86988875Y-110713371D01*
X86984355Y-110710876D01*
X86979486Y-110709152D01*
X86979482Y-110709150D01*
X86770903Y-110635288D01*
X86770899Y-110635287D01*
X86766028Y-110633562D01*
X86760935Y-110632655D01*
X86760932Y-110632654D01*
X86543095Y-110593851D01*
X86543089Y-110593850D01*
X86538006Y-110592945D01*
X86465096Y-110592054D01*
X86311581Y-110590179D01*
X86311579Y-110590179D01*
X86306411Y-110590116D01*
X86077464Y-110625150D01*
X85857314Y-110697106D01*
X85852726Y-110699494D01*
X85852722Y-110699496D01*
X85826065Y-110713373D01*
X85651872Y-110804052D01*
X85647739Y-110807155D01*
X85647736Y-110807157D01*
X85622625Y-110826011D01*
X85466655Y-110943117D01*
X85306639Y-111110564D01*
X85239306Y-111209271D01*
X85184397Y-111254271D01*
X85113872Y-111262442D01*
X85050125Y-111231188D01*
X85029428Y-111206705D01*
X84987571Y-111142004D01*
X84984764Y-111137665D01*
X84828887Y-110966358D01*
X84824836Y-110963159D01*
X84824832Y-110963155D01*
X84651177Y-110826011D01*
X84651172Y-110826008D01*
X84647123Y-110822810D01*
X84642607Y-110820317D01*
X84642604Y-110820315D01*
X84448879Y-110713373D01*
X84448875Y-110713371D01*
X84444355Y-110710876D01*
X84439486Y-110709152D01*
X84439482Y-110709150D01*
X84230903Y-110635288D01*
X84230899Y-110635287D01*
X84226028Y-110633562D01*
X84220935Y-110632655D01*
X84220932Y-110632654D01*
X84003095Y-110593851D01*
X84003089Y-110593850D01*
X83998006Y-110592945D01*
X83925096Y-110592054D01*
X83771581Y-110590179D01*
X83771579Y-110590179D01*
X83766411Y-110590116D01*
X83537464Y-110625150D01*
X83317314Y-110697106D01*
X83312726Y-110699494D01*
X83312722Y-110699496D01*
X83286065Y-110713373D01*
X83111872Y-110804052D01*
X83107739Y-110807155D01*
X83107736Y-110807157D01*
X83082625Y-110826011D01*
X82926655Y-110943117D01*
X82766639Y-111110564D01*
X82699306Y-111209271D01*
X82644397Y-111254271D01*
X82573872Y-111262442D01*
X82510125Y-111231188D01*
X82489428Y-111206705D01*
X82447571Y-111142004D01*
X82444764Y-111137665D01*
X82288887Y-110966358D01*
X82284836Y-110963159D01*
X82284832Y-110963155D01*
X82111177Y-110826011D01*
X82111172Y-110826008D01*
X82107123Y-110822810D01*
X82102607Y-110820317D01*
X82102604Y-110820315D01*
X81908879Y-110713373D01*
X81908875Y-110713371D01*
X81904355Y-110710876D01*
X81899486Y-110709152D01*
X81899482Y-110709150D01*
X81690903Y-110635288D01*
X81690899Y-110635287D01*
X81686028Y-110633562D01*
X81680935Y-110632655D01*
X81680932Y-110632654D01*
X81463095Y-110593851D01*
X81463089Y-110593850D01*
X81458006Y-110592945D01*
X81385096Y-110592054D01*
X81231581Y-110590179D01*
X81231579Y-110590179D01*
X81226411Y-110590116D01*
X80997464Y-110625150D01*
X80777314Y-110697106D01*
X80772726Y-110699494D01*
X80772722Y-110699496D01*
X80746065Y-110713373D01*
X80571872Y-110804052D01*
X80567739Y-110807155D01*
X80567736Y-110807157D01*
X80542625Y-110826011D01*
X80386655Y-110943117D01*
X80226639Y-111110564D01*
X80223730Y-111114829D01*
X80223724Y-111114837D01*
X80208152Y-111137665D01*
X80096119Y-111301899D01*
X79998602Y-111511981D01*
X79936707Y-111735169D01*
X79912095Y-111965469D01*
X51508500Y-111965469D01*
X51508500Y-105132703D01*
X104490743Y-105132703D01*
X104528268Y-105417734D01*
X104604129Y-105695036D01*
X104716923Y-105959476D01*
X104864561Y-106206161D01*
X105044313Y-106430528D01*
X105252851Y-106628423D01*
X105486317Y-106796186D01*
X105490112Y-106798195D01*
X105490113Y-106798196D01*
X105511869Y-106809715D01*
X105740392Y-106930712D01*
X106010373Y-107029511D01*
X106291264Y-107090755D01*
X106319841Y-107093004D01*
X106514282Y-107108307D01*
X106514291Y-107108307D01*
X106516739Y-107108500D01*
X106672271Y-107108500D01*
X106674407Y-107108354D01*
X106674418Y-107108354D01*
X106882548Y-107094165D01*
X106882554Y-107094164D01*
X106886825Y-107093873D01*
X106891020Y-107093004D01*
X106891022Y-107093004D01*
X107027583Y-107064724D01*
X107168342Y-107035574D01*
X107439343Y-106939607D01*
X107694812Y-106807750D01*
X107698313Y-106805289D01*
X107698317Y-106805287D01*
X107812417Y-106725096D01*
X107930023Y-106642441D01*
X108140622Y-106446740D01*
X108322713Y-106224268D01*
X108472927Y-105979142D01*
X108588483Y-105715898D01*
X108667244Y-105439406D01*
X108707751Y-105154784D01*
X108707845Y-105136951D01*
X108707867Y-105132703D01*
X140490743Y-105132703D01*
X140528268Y-105417734D01*
X140604129Y-105695036D01*
X140716923Y-105959476D01*
X140864561Y-106206161D01*
X141044313Y-106430528D01*
X141252851Y-106628423D01*
X141486317Y-106796186D01*
X141490112Y-106798195D01*
X141490113Y-106798196D01*
X141511869Y-106809715D01*
X141740392Y-106930712D01*
X142010373Y-107029511D01*
X142291264Y-107090755D01*
X142319841Y-107093004D01*
X142514282Y-107108307D01*
X142514291Y-107108307D01*
X142516739Y-107108500D01*
X142672271Y-107108500D01*
X142674407Y-107108354D01*
X142674418Y-107108354D01*
X142882548Y-107094165D01*
X142882554Y-107094164D01*
X142886825Y-107093873D01*
X142891020Y-107093004D01*
X142891022Y-107093004D01*
X143027583Y-107064724D01*
X143168342Y-107035574D01*
X143439343Y-106939607D01*
X143694812Y-106807750D01*
X143698313Y-106805289D01*
X143698317Y-106805287D01*
X143812418Y-106725095D01*
X143930023Y-106642441D01*
X144140622Y-106446740D01*
X144322713Y-106224268D01*
X144472927Y-105979142D01*
X144588483Y-105715898D01*
X144667244Y-105439406D01*
X144707751Y-105154784D01*
X144707845Y-105136951D01*
X144709235Y-104871583D01*
X144709235Y-104871576D01*
X144709257Y-104867297D01*
X144671732Y-104582266D01*
X144595871Y-104304964D01*
X144483077Y-104040524D01*
X144335439Y-103793839D01*
X144155687Y-103569472D01*
X143947149Y-103371577D01*
X143713683Y-103203814D01*
X143691843Y-103192250D01*
X143668654Y-103179972D01*
X143459608Y-103069288D01*
X143189627Y-102970489D01*
X142908736Y-102909245D01*
X142877685Y-102906801D01*
X142685718Y-102891693D01*
X142685709Y-102891693D01*
X142683261Y-102891500D01*
X142527729Y-102891500D01*
X142525593Y-102891646D01*
X142525582Y-102891646D01*
X142317452Y-102905835D01*
X142317446Y-102905836D01*
X142313175Y-102906127D01*
X142308980Y-102906996D01*
X142308978Y-102906996D01*
X142231606Y-102923019D01*
X142031658Y-102964426D01*
X141760657Y-103060393D01*
X141505188Y-103192250D01*
X141501687Y-103194711D01*
X141501683Y-103194713D01*
X141491594Y-103201804D01*
X141269977Y-103357559D01*
X141059378Y-103553260D01*
X140877287Y-103775732D01*
X140727073Y-104020858D01*
X140611517Y-104284102D01*
X140532756Y-104560594D01*
X140492249Y-104845216D01*
X140492227Y-104849505D01*
X140492226Y-104849512D01*
X140490765Y-105128417D01*
X140490743Y-105132703D01*
X108707867Y-105132703D01*
X108709235Y-104871583D01*
X108709235Y-104871576D01*
X108709257Y-104867297D01*
X108671732Y-104582266D01*
X108595871Y-104304964D01*
X108483077Y-104040524D01*
X108335439Y-103793839D01*
X108155687Y-103569472D01*
X107947149Y-103371577D01*
X107713683Y-103203814D01*
X107691843Y-103192250D01*
X107668654Y-103179972D01*
X107459608Y-103069288D01*
X107189627Y-102970489D01*
X106908736Y-102909245D01*
X106877685Y-102906801D01*
X106685718Y-102891693D01*
X106685709Y-102891693D01*
X106683261Y-102891500D01*
X106527729Y-102891500D01*
X106525593Y-102891646D01*
X106525582Y-102891646D01*
X106317452Y-102905835D01*
X106317446Y-102905836D01*
X106313175Y-102906127D01*
X106308980Y-102906996D01*
X106308978Y-102906996D01*
X106231606Y-102923019D01*
X106031658Y-102964426D01*
X105760657Y-103060393D01*
X105505188Y-103192250D01*
X105501687Y-103194711D01*
X105501683Y-103194713D01*
X105491594Y-103201804D01*
X105269977Y-103357559D01*
X105059378Y-103553260D01*
X104877287Y-103775732D01*
X104727073Y-104020858D01*
X104611517Y-104284102D01*
X104532756Y-104560594D01*
X104492249Y-104845216D01*
X104492227Y-104849505D01*
X104492226Y-104849512D01*
X104490765Y-105128417D01*
X104490743Y-105132703D01*
X51508500Y-105132703D01*
X51508500Y-101610000D01*
X55836502Y-101610000D01*
X55856457Y-101838087D01*
X55915716Y-102059243D01*
X55918039Y-102064224D01*
X55918039Y-102064225D01*
X56010151Y-102261762D01*
X56010154Y-102261767D01*
X56012477Y-102266749D01*
X56143802Y-102454300D01*
X56305700Y-102616198D01*
X56310208Y-102619355D01*
X56310211Y-102619357D01*
X56388389Y-102674098D01*
X56493251Y-102747523D01*
X56498233Y-102749846D01*
X56498238Y-102749849D01*
X56694765Y-102841490D01*
X56700757Y-102844284D01*
X56706065Y-102845706D01*
X56706067Y-102845707D01*
X56916598Y-102902119D01*
X56916600Y-102902119D01*
X56921913Y-102903543D01*
X57150000Y-102923498D01*
X57378087Y-102903543D01*
X57383400Y-102902119D01*
X57383402Y-102902119D01*
X57593933Y-102845707D01*
X57593935Y-102845706D01*
X57599243Y-102844284D01*
X57605235Y-102841490D01*
X57801762Y-102749849D01*
X57801767Y-102749846D01*
X57806749Y-102747523D01*
X57911611Y-102674098D01*
X57989789Y-102619357D01*
X57989792Y-102619355D01*
X57994300Y-102616198D01*
X58156198Y-102454300D01*
X58287523Y-102266749D01*
X58289846Y-102261767D01*
X58289849Y-102261762D01*
X58305805Y-102227543D01*
X58352722Y-102174258D01*
X58420999Y-102154797D01*
X58488959Y-102175339D01*
X58534195Y-102227543D01*
X58550151Y-102261762D01*
X58550154Y-102261767D01*
X58552477Y-102266749D01*
X58683802Y-102454300D01*
X58845700Y-102616198D01*
X58850208Y-102619355D01*
X58850211Y-102619357D01*
X58928389Y-102674098D01*
X59033251Y-102747523D01*
X59038233Y-102749846D01*
X59038238Y-102749849D01*
X59234765Y-102841490D01*
X59240757Y-102844284D01*
X59246065Y-102845706D01*
X59246067Y-102845707D01*
X59456598Y-102902119D01*
X59456600Y-102902119D01*
X59461913Y-102903543D01*
X59690000Y-102923498D01*
X59918087Y-102903543D01*
X59923400Y-102902119D01*
X59923402Y-102902119D01*
X60133933Y-102845707D01*
X60133935Y-102845706D01*
X60139243Y-102844284D01*
X60145235Y-102841490D01*
X60341762Y-102749849D01*
X60341767Y-102749846D01*
X60346749Y-102747523D01*
X60451611Y-102674098D01*
X60529789Y-102619357D01*
X60529792Y-102619355D01*
X60534300Y-102616198D01*
X60696198Y-102454300D01*
X60827523Y-102266749D01*
X60829846Y-102261767D01*
X60829849Y-102261762D01*
X60845805Y-102227543D01*
X60892722Y-102174258D01*
X60960999Y-102154797D01*
X61028959Y-102175339D01*
X61074195Y-102227543D01*
X61090151Y-102261762D01*
X61090154Y-102261767D01*
X61092477Y-102266749D01*
X61223802Y-102454300D01*
X61385700Y-102616198D01*
X61390208Y-102619355D01*
X61390211Y-102619357D01*
X61468389Y-102674098D01*
X61573251Y-102747523D01*
X61578233Y-102749846D01*
X61578238Y-102749849D01*
X61774765Y-102841490D01*
X61780757Y-102844284D01*
X61786065Y-102845706D01*
X61786067Y-102845707D01*
X61996598Y-102902119D01*
X61996600Y-102902119D01*
X62001913Y-102903543D01*
X62230000Y-102923498D01*
X62458087Y-102903543D01*
X62463400Y-102902119D01*
X62463402Y-102902119D01*
X62673933Y-102845707D01*
X62673935Y-102845706D01*
X62679243Y-102844284D01*
X62685235Y-102841490D01*
X62881762Y-102749849D01*
X62881767Y-102749846D01*
X62886749Y-102747523D01*
X62991611Y-102674098D01*
X63069789Y-102619357D01*
X63069792Y-102619355D01*
X63074300Y-102616198D01*
X63236198Y-102454300D01*
X63367523Y-102266749D01*
X63369846Y-102261767D01*
X63369849Y-102261762D01*
X63385805Y-102227543D01*
X63432722Y-102174258D01*
X63500999Y-102154797D01*
X63568959Y-102175339D01*
X63614195Y-102227543D01*
X63630151Y-102261762D01*
X63630154Y-102261767D01*
X63632477Y-102266749D01*
X63763802Y-102454300D01*
X63925700Y-102616198D01*
X63930208Y-102619355D01*
X63930211Y-102619357D01*
X64008389Y-102674098D01*
X64113251Y-102747523D01*
X64118233Y-102749846D01*
X64118238Y-102749849D01*
X64314765Y-102841490D01*
X64320757Y-102844284D01*
X64326065Y-102845706D01*
X64326067Y-102845707D01*
X64536598Y-102902119D01*
X64536600Y-102902119D01*
X64541913Y-102903543D01*
X64770000Y-102923498D01*
X64998087Y-102903543D01*
X65003400Y-102902119D01*
X65003402Y-102902119D01*
X65213933Y-102845707D01*
X65213935Y-102845706D01*
X65219243Y-102844284D01*
X65225235Y-102841490D01*
X65421762Y-102749849D01*
X65421767Y-102749846D01*
X65426749Y-102747523D01*
X65531611Y-102674098D01*
X65609789Y-102619357D01*
X65609792Y-102619355D01*
X65614300Y-102616198D01*
X65776198Y-102454300D01*
X65907523Y-102266749D01*
X65909846Y-102261767D01*
X65909849Y-102261762D01*
X65925805Y-102227543D01*
X65972722Y-102174258D01*
X66040999Y-102154797D01*
X66108959Y-102175339D01*
X66154195Y-102227543D01*
X66170151Y-102261762D01*
X66170154Y-102261767D01*
X66172477Y-102266749D01*
X66303802Y-102454300D01*
X66465700Y-102616198D01*
X66470208Y-102619355D01*
X66470211Y-102619357D01*
X66548389Y-102674098D01*
X66653251Y-102747523D01*
X66658233Y-102749846D01*
X66658238Y-102749849D01*
X66854765Y-102841490D01*
X66860757Y-102844284D01*
X66866065Y-102845706D01*
X66866067Y-102845707D01*
X67076598Y-102902119D01*
X67076600Y-102902119D01*
X67081913Y-102903543D01*
X67310000Y-102923498D01*
X67538087Y-102903543D01*
X67543400Y-102902119D01*
X67543402Y-102902119D01*
X67753933Y-102845707D01*
X67753935Y-102845706D01*
X67759243Y-102844284D01*
X67765235Y-102841490D01*
X67961762Y-102749849D01*
X67961767Y-102749846D01*
X67966749Y-102747523D01*
X68071611Y-102674098D01*
X68149789Y-102619357D01*
X68149792Y-102619355D01*
X68154300Y-102616198D01*
X68316198Y-102454300D01*
X68447523Y-102266749D01*
X68449846Y-102261767D01*
X68449849Y-102261762D01*
X68465805Y-102227543D01*
X68512722Y-102174258D01*
X68580999Y-102154797D01*
X68648959Y-102175339D01*
X68694195Y-102227543D01*
X68710151Y-102261762D01*
X68710154Y-102261767D01*
X68712477Y-102266749D01*
X68843802Y-102454300D01*
X69005700Y-102616198D01*
X69010208Y-102619355D01*
X69010211Y-102619357D01*
X69088389Y-102674098D01*
X69193251Y-102747523D01*
X69198233Y-102749846D01*
X69198238Y-102749849D01*
X69394765Y-102841490D01*
X69400757Y-102844284D01*
X69406065Y-102845706D01*
X69406067Y-102845707D01*
X69616598Y-102902119D01*
X69616600Y-102902119D01*
X69621913Y-102903543D01*
X69850000Y-102923498D01*
X70078087Y-102903543D01*
X70083400Y-102902119D01*
X70083402Y-102902119D01*
X70293933Y-102845707D01*
X70293935Y-102845706D01*
X70299243Y-102844284D01*
X70305235Y-102841490D01*
X70501762Y-102749849D01*
X70501767Y-102749846D01*
X70506749Y-102747523D01*
X70611611Y-102674098D01*
X70689789Y-102619357D01*
X70689792Y-102619355D01*
X70694300Y-102616198D01*
X70856198Y-102454300D01*
X70987523Y-102266749D01*
X70989846Y-102261767D01*
X70989849Y-102261762D01*
X71005805Y-102227543D01*
X71052722Y-102174258D01*
X71120999Y-102154797D01*
X71188959Y-102175339D01*
X71234195Y-102227543D01*
X71250151Y-102261762D01*
X71250154Y-102261767D01*
X71252477Y-102266749D01*
X71383802Y-102454300D01*
X71545700Y-102616198D01*
X71550208Y-102619355D01*
X71550211Y-102619357D01*
X71628389Y-102674098D01*
X71733251Y-102747523D01*
X71738233Y-102749846D01*
X71738238Y-102749849D01*
X71934765Y-102841490D01*
X71940757Y-102844284D01*
X71946065Y-102845706D01*
X71946067Y-102845707D01*
X72156598Y-102902119D01*
X72156600Y-102902119D01*
X72161913Y-102903543D01*
X72390000Y-102923498D01*
X72618087Y-102903543D01*
X72623400Y-102902119D01*
X72623402Y-102902119D01*
X72833933Y-102845707D01*
X72833935Y-102845706D01*
X72839243Y-102844284D01*
X72845235Y-102841490D01*
X73041762Y-102749849D01*
X73041767Y-102749846D01*
X73046749Y-102747523D01*
X73151611Y-102674098D01*
X73229789Y-102619357D01*
X73229792Y-102619355D01*
X73234300Y-102616198D01*
X73396198Y-102454300D01*
X73527523Y-102266749D01*
X73529846Y-102261767D01*
X73529849Y-102261762D01*
X73545805Y-102227543D01*
X73592722Y-102174258D01*
X73660999Y-102154797D01*
X73728959Y-102175339D01*
X73774195Y-102227543D01*
X73790151Y-102261762D01*
X73790154Y-102261767D01*
X73792477Y-102266749D01*
X73923802Y-102454300D01*
X74085700Y-102616198D01*
X74090208Y-102619355D01*
X74090211Y-102619357D01*
X74168389Y-102674098D01*
X74273251Y-102747523D01*
X74278233Y-102749846D01*
X74278238Y-102749849D01*
X74474765Y-102841490D01*
X74480757Y-102844284D01*
X74486065Y-102845706D01*
X74486067Y-102845707D01*
X74696598Y-102902119D01*
X74696600Y-102902119D01*
X74701913Y-102903543D01*
X74930000Y-102923498D01*
X75158087Y-102903543D01*
X75163400Y-102902119D01*
X75163402Y-102902119D01*
X75373933Y-102845707D01*
X75373935Y-102845706D01*
X75379243Y-102844284D01*
X75385235Y-102841490D01*
X75581762Y-102749849D01*
X75581767Y-102749846D01*
X75586749Y-102747523D01*
X75691611Y-102674098D01*
X75769789Y-102619357D01*
X75769792Y-102619355D01*
X75774300Y-102616198D01*
X75936198Y-102454300D01*
X76067523Y-102266749D01*
X76069846Y-102261767D01*
X76069849Y-102261762D01*
X76085805Y-102227543D01*
X76132722Y-102174258D01*
X76200999Y-102154797D01*
X76268959Y-102175339D01*
X76314195Y-102227543D01*
X76330151Y-102261762D01*
X76330154Y-102261767D01*
X76332477Y-102266749D01*
X76463802Y-102454300D01*
X76625700Y-102616198D01*
X76630208Y-102619355D01*
X76630211Y-102619357D01*
X76708389Y-102674098D01*
X76813251Y-102747523D01*
X76818233Y-102749846D01*
X76818238Y-102749849D01*
X77014765Y-102841490D01*
X77020757Y-102844284D01*
X77026065Y-102845706D01*
X77026067Y-102845707D01*
X77236598Y-102902119D01*
X77236600Y-102902119D01*
X77241913Y-102903543D01*
X77470000Y-102923498D01*
X77698087Y-102903543D01*
X77703400Y-102902119D01*
X77703402Y-102902119D01*
X77913933Y-102845707D01*
X77913935Y-102845706D01*
X77919243Y-102844284D01*
X77925235Y-102841490D01*
X78121762Y-102749849D01*
X78121767Y-102749846D01*
X78126749Y-102747523D01*
X78231611Y-102674098D01*
X78309789Y-102619357D01*
X78309792Y-102619355D01*
X78314300Y-102616198D01*
X78476198Y-102454300D01*
X78607523Y-102266749D01*
X78609846Y-102261767D01*
X78609849Y-102261762D01*
X78625805Y-102227543D01*
X78672722Y-102174258D01*
X78740999Y-102154797D01*
X78808959Y-102175339D01*
X78854195Y-102227543D01*
X78870151Y-102261762D01*
X78870154Y-102261767D01*
X78872477Y-102266749D01*
X79003802Y-102454300D01*
X79165700Y-102616198D01*
X79170208Y-102619355D01*
X79170211Y-102619357D01*
X79248389Y-102674098D01*
X79353251Y-102747523D01*
X79358233Y-102749846D01*
X79358238Y-102749849D01*
X79554765Y-102841490D01*
X79560757Y-102844284D01*
X79566065Y-102845706D01*
X79566067Y-102845707D01*
X79776598Y-102902119D01*
X79776600Y-102902119D01*
X79781913Y-102903543D01*
X80010000Y-102923498D01*
X80238087Y-102903543D01*
X80243400Y-102902119D01*
X80243402Y-102902119D01*
X80453933Y-102845707D01*
X80453935Y-102845706D01*
X80459243Y-102844284D01*
X80465235Y-102841490D01*
X80661762Y-102749849D01*
X80661767Y-102749846D01*
X80666749Y-102747523D01*
X80771611Y-102674098D01*
X80849789Y-102619357D01*
X80849792Y-102619355D01*
X80854300Y-102616198D01*
X81016198Y-102454300D01*
X81147523Y-102266749D01*
X81149846Y-102261767D01*
X81149849Y-102261762D01*
X81165805Y-102227543D01*
X81212722Y-102174258D01*
X81280999Y-102154797D01*
X81348959Y-102175339D01*
X81394195Y-102227543D01*
X81410151Y-102261762D01*
X81410154Y-102261767D01*
X81412477Y-102266749D01*
X81543802Y-102454300D01*
X81705700Y-102616198D01*
X81710208Y-102619355D01*
X81710211Y-102619357D01*
X81788389Y-102674098D01*
X81893251Y-102747523D01*
X81898233Y-102749846D01*
X81898238Y-102749849D01*
X82094765Y-102841490D01*
X82100757Y-102844284D01*
X82106065Y-102845706D01*
X82106067Y-102845707D01*
X82316598Y-102902119D01*
X82316600Y-102902119D01*
X82321913Y-102903543D01*
X82550000Y-102923498D01*
X82778087Y-102903543D01*
X82783400Y-102902119D01*
X82783402Y-102902119D01*
X82993933Y-102845707D01*
X82993935Y-102845706D01*
X82999243Y-102844284D01*
X83005235Y-102841490D01*
X83201762Y-102749849D01*
X83201767Y-102749846D01*
X83206749Y-102747523D01*
X83311611Y-102674098D01*
X83389789Y-102619357D01*
X83389792Y-102619355D01*
X83394300Y-102616198D01*
X83556198Y-102454300D01*
X83687523Y-102266749D01*
X83689846Y-102261767D01*
X83689849Y-102261762D01*
X83705805Y-102227543D01*
X83752722Y-102174258D01*
X83820999Y-102154797D01*
X83888959Y-102175339D01*
X83934195Y-102227543D01*
X83950151Y-102261762D01*
X83950154Y-102261767D01*
X83952477Y-102266749D01*
X84083802Y-102454300D01*
X84245700Y-102616198D01*
X84250208Y-102619355D01*
X84250211Y-102619357D01*
X84328389Y-102674098D01*
X84433251Y-102747523D01*
X84438233Y-102749846D01*
X84438238Y-102749849D01*
X84634765Y-102841490D01*
X84640757Y-102844284D01*
X84646065Y-102845706D01*
X84646067Y-102845707D01*
X84856598Y-102902119D01*
X84856600Y-102902119D01*
X84861913Y-102903543D01*
X85090000Y-102923498D01*
X85318087Y-102903543D01*
X85323400Y-102902119D01*
X85323402Y-102902119D01*
X85533933Y-102845707D01*
X85533935Y-102845706D01*
X85539243Y-102844284D01*
X85545235Y-102841490D01*
X85741762Y-102749849D01*
X85741767Y-102749846D01*
X85746749Y-102747523D01*
X85851611Y-102674098D01*
X85929789Y-102619357D01*
X85929792Y-102619355D01*
X85934300Y-102616198D01*
X86096198Y-102454300D01*
X86227523Y-102266749D01*
X86229846Y-102261767D01*
X86229849Y-102261762D01*
X86245805Y-102227543D01*
X86292722Y-102174258D01*
X86360999Y-102154797D01*
X86428959Y-102175339D01*
X86474195Y-102227543D01*
X86490151Y-102261762D01*
X86490154Y-102261767D01*
X86492477Y-102266749D01*
X86623802Y-102454300D01*
X86785700Y-102616198D01*
X86790208Y-102619355D01*
X86790211Y-102619357D01*
X86868389Y-102674098D01*
X86973251Y-102747523D01*
X86978233Y-102749846D01*
X86978238Y-102749849D01*
X87174765Y-102841490D01*
X87180757Y-102844284D01*
X87186065Y-102845706D01*
X87186067Y-102845707D01*
X87396598Y-102902119D01*
X87396600Y-102902119D01*
X87401913Y-102903543D01*
X87630000Y-102923498D01*
X87858087Y-102903543D01*
X87863400Y-102902119D01*
X87863402Y-102902119D01*
X88073933Y-102845707D01*
X88073935Y-102845706D01*
X88079243Y-102844284D01*
X88085235Y-102841490D01*
X88281762Y-102749849D01*
X88281767Y-102749846D01*
X88286749Y-102747523D01*
X88391611Y-102674098D01*
X88469789Y-102619357D01*
X88469792Y-102619355D01*
X88474300Y-102616198D01*
X88636198Y-102454300D01*
X88767523Y-102266749D01*
X88769846Y-102261767D01*
X88769849Y-102261762D01*
X88786081Y-102226951D01*
X88832998Y-102173666D01*
X88901275Y-102154205D01*
X88969235Y-102174747D01*
X89014471Y-102226951D01*
X89030586Y-102261511D01*
X89036069Y-102271007D01*
X89161028Y-102449467D01*
X89168084Y-102457875D01*
X89322125Y-102611916D01*
X89330533Y-102618972D01*
X89508993Y-102743931D01*
X89518489Y-102749414D01*
X89715947Y-102841490D01*
X89726239Y-102845236D01*
X89898503Y-102891394D01*
X89912599Y-102891058D01*
X89916000Y-102883116D01*
X89916000Y-100342033D01*
X89912027Y-100328502D01*
X89903478Y-100327273D01*
X89726239Y-100374764D01*
X89715947Y-100378510D01*
X89518489Y-100470586D01*
X89508993Y-100476069D01*
X89330533Y-100601028D01*
X89322125Y-100608084D01*
X89168084Y-100762125D01*
X89161028Y-100770533D01*
X89036069Y-100948993D01*
X89030586Y-100958489D01*
X89014471Y-100993049D01*
X88967554Y-101046334D01*
X88899277Y-101065795D01*
X88831317Y-101045253D01*
X88786081Y-100993049D01*
X88769849Y-100958238D01*
X88769846Y-100958233D01*
X88767523Y-100953251D01*
X88636198Y-100765700D01*
X88474300Y-100603802D01*
X88469792Y-100600645D01*
X88469789Y-100600643D01*
X88391611Y-100545902D01*
X88286749Y-100472477D01*
X88281767Y-100470154D01*
X88281762Y-100470151D01*
X88084225Y-100378039D01*
X88084224Y-100378039D01*
X88079243Y-100375716D01*
X88073935Y-100374294D01*
X88073933Y-100374293D01*
X87863402Y-100317881D01*
X87863400Y-100317881D01*
X87858087Y-100316457D01*
X87630000Y-100296502D01*
X87401913Y-100316457D01*
X87396600Y-100317881D01*
X87396598Y-100317881D01*
X87186067Y-100374293D01*
X87186065Y-100374294D01*
X87180757Y-100375716D01*
X87175776Y-100378039D01*
X87175775Y-100378039D01*
X86978238Y-100470151D01*
X86978233Y-100470154D01*
X86973251Y-100472477D01*
X86868389Y-100545902D01*
X86790211Y-100600643D01*
X86790208Y-100600645D01*
X86785700Y-100603802D01*
X86623802Y-100765700D01*
X86492477Y-100953251D01*
X86490154Y-100958233D01*
X86490151Y-100958238D01*
X86474195Y-100992457D01*
X86427278Y-101045742D01*
X86359001Y-101065203D01*
X86291041Y-101044661D01*
X86245805Y-100992457D01*
X86229849Y-100958238D01*
X86229846Y-100958233D01*
X86227523Y-100953251D01*
X86096198Y-100765700D01*
X85934300Y-100603802D01*
X85929792Y-100600645D01*
X85929789Y-100600643D01*
X85851611Y-100545902D01*
X85746749Y-100472477D01*
X85741767Y-100470154D01*
X85741762Y-100470151D01*
X85544225Y-100378039D01*
X85544224Y-100378039D01*
X85539243Y-100375716D01*
X85533935Y-100374294D01*
X85533933Y-100374293D01*
X85323402Y-100317881D01*
X85323400Y-100317881D01*
X85318087Y-100316457D01*
X85090000Y-100296502D01*
X84861913Y-100316457D01*
X84856600Y-100317881D01*
X84856598Y-100317881D01*
X84646067Y-100374293D01*
X84646065Y-100374294D01*
X84640757Y-100375716D01*
X84635776Y-100378039D01*
X84635775Y-100378039D01*
X84438238Y-100470151D01*
X84438233Y-100470154D01*
X84433251Y-100472477D01*
X84328389Y-100545902D01*
X84250211Y-100600643D01*
X84250208Y-100600645D01*
X84245700Y-100603802D01*
X84083802Y-100765700D01*
X83952477Y-100953251D01*
X83950154Y-100958233D01*
X83950151Y-100958238D01*
X83934195Y-100992457D01*
X83887278Y-101045742D01*
X83819001Y-101065203D01*
X83751041Y-101044661D01*
X83705805Y-100992457D01*
X83689849Y-100958238D01*
X83689846Y-100958233D01*
X83687523Y-100953251D01*
X83556198Y-100765700D01*
X83394300Y-100603802D01*
X83389792Y-100600645D01*
X83389789Y-100600643D01*
X83311611Y-100545902D01*
X83206749Y-100472477D01*
X83201767Y-100470154D01*
X83201762Y-100470151D01*
X83004225Y-100378039D01*
X83004224Y-100378039D01*
X82999243Y-100375716D01*
X82993935Y-100374294D01*
X82993933Y-100374293D01*
X82783402Y-100317881D01*
X82783400Y-100317881D01*
X82778087Y-100316457D01*
X82550000Y-100296502D01*
X82321913Y-100316457D01*
X82316600Y-100317881D01*
X82316598Y-100317881D01*
X82106067Y-100374293D01*
X82106065Y-100374294D01*
X82100757Y-100375716D01*
X82095776Y-100378039D01*
X82095775Y-100378039D01*
X81898238Y-100470151D01*
X81898233Y-100470154D01*
X81893251Y-100472477D01*
X81788389Y-100545902D01*
X81710211Y-100600643D01*
X81710208Y-100600645D01*
X81705700Y-100603802D01*
X81543802Y-100765700D01*
X81412477Y-100953251D01*
X81410154Y-100958233D01*
X81410151Y-100958238D01*
X81394195Y-100992457D01*
X81347278Y-101045742D01*
X81279001Y-101065203D01*
X81211041Y-101044661D01*
X81165805Y-100992457D01*
X81149849Y-100958238D01*
X81149846Y-100958233D01*
X81147523Y-100953251D01*
X81016198Y-100765700D01*
X80854300Y-100603802D01*
X80849792Y-100600645D01*
X80849789Y-100600643D01*
X80771611Y-100545902D01*
X80666749Y-100472477D01*
X80661767Y-100470154D01*
X80661762Y-100470151D01*
X80464225Y-100378039D01*
X80464224Y-100378039D01*
X80459243Y-100375716D01*
X80453935Y-100374294D01*
X80453933Y-100374293D01*
X80243402Y-100317881D01*
X80243400Y-100317881D01*
X80238087Y-100316457D01*
X80010000Y-100296502D01*
X79781913Y-100316457D01*
X79776600Y-100317881D01*
X79776598Y-100317881D01*
X79566067Y-100374293D01*
X79566065Y-100374294D01*
X79560757Y-100375716D01*
X79555776Y-100378039D01*
X79555775Y-100378039D01*
X79358238Y-100470151D01*
X79358233Y-100470154D01*
X79353251Y-100472477D01*
X79248389Y-100545902D01*
X79170211Y-100600643D01*
X79170208Y-100600645D01*
X79165700Y-100603802D01*
X79003802Y-100765700D01*
X78872477Y-100953251D01*
X78870154Y-100958233D01*
X78870151Y-100958238D01*
X78854195Y-100992457D01*
X78807278Y-101045742D01*
X78739001Y-101065203D01*
X78671041Y-101044661D01*
X78625805Y-100992457D01*
X78609849Y-100958238D01*
X78609846Y-100958233D01*
X78607523Y-100953251D01*
X78476198Y-100765700D01*
X78314300Y-100603802D01*
X78309792Y-100600645D01*
X78309789Y-100600643D01*
X78231611Y-100545902D01*
X78126749Y-100472477D01*
X78121767Y-100470154D01*
X78121762Y-100470151D01*
X77924225Y-100378039D01*
X77924224Y-100378039D01*
X77919243Y-100375716D01*
X77913935Y-100374294D01*
X77913933Y-100374293D01*
X77703402Y-100317881D01*
X77703400Y-100317881D01*
X77698087Y-100316457D01*
X77470000Y-100296502D01*
X77241913Y-100316457D01*
X77236600Y-100317881D01*
X77236598Y-100317881D01*
X77026067Y-100374293D01*
X77026065Y-100374294D01*
X77020757Y-100375716D01*
X77015776Y-100378039D01*
X77015775Y-100378039D01*
X76818238Y-100470151D01*
X76818233Y-100470154D01*
X76813251Y-100472477D01*
X76708389Y-100545902D01*
X76630211Y-100600643D01*
X76630208Y-100600645D01*
X76625700Y-100603802D01*
X76463802Y-100765700D01*
X76332477Y-100953251D01*
X76330154Y-100958233D01*
X76330151Y-100958238D01*
X76314195Y-100992457D01*
X76267278Y-101045742D01*
X76199001Y-101065203D01*
X76131041Y-101044661D01*
X76085805Y-100992457D01*
X76069849Y-100958238D01*
X76069846Y-100958233D01*
X76067523Y-100953251D01*
X75936198Y-100765700D01*
X75774300Y-100603802D01*
X75769792Y-100600645D01*
X75769789Y-100600643D01*
X75691611Y-100545902D01*
X75586749Y-100472477D01*
X75581767Y-100470154D01*
X75581762Y-100470151D01*
X75384225Y-100378039D01*
X75384224Y-100378039D01*
X75379243Y-100375716D01*
X75373935Y-100374294D01*
X75373933Y-100374293D01*
X75163402Y-100317881D01*
X75163400Y-100317881D01*
X75158087Y-100316457D01*
X74930000Y-100296502D01*
X74701913Y-100316457D01*
X74696600Y-100317881D01*
X74696598Y-100317881D01*
X74486067Y-100374293D01*
X74486065Y-100374294D01*
X74480757Y-100375716D01*
X74475776Y-100378039D01*
X74475775Y-100378039D01*
X74278238Y-100470151D01*
X74278233Y-100470154D01*
X74273251Y-100472477D01*
X74168389Y-100545902D01*
X74090211Y-100600643D01*
X74090208Y-100600645D01*
X74085700Y-100603802D01*
X73923802Y-100765700D01*
X73792477Y-100953251D01*
X73790154Y-100958233D01*
X73790151Y-100958238D01*
X73774195Y-100992457D01*
X73727278Y-101045742D01*
X73659001Y-101065203D01*
X73591041Y-101044661D01*
X73545805Y-100992457D01*
X73529849Y-100958238D01*
X73529846Y-100958233D01*
X73527523Y-100953251D01*
X73396198Y-100765700D01*
X73234300Y-100603802D01*
X73229792Y-100600645D01*
X73229789Y-100600643D01*
X73151611Y-100545902D01*
X73046749Y-100472477D01*
X73041767Y-100470154D01*
X73041762Y-100470151D01*
X72844225Y-100378039D01*
X72844224Y-100378039D01*
X72839243Y-100375716D01*
X72833935Y-100374294D01*
X72833933Y-100374293D01*
X72623402Y-100317881D01*
X72623400Y-100317881D01*
X72618087Y-100316457D01*
X72390000Y-100296502D01*
X72161913Y-100316457D01*
X72156600Y-100317881D01*
X72156598Y-100317881D01*
X71946067Y-100374293D01*
X71946065Y-100374294D01*
X71940757Y-100375716D01*
X71935776Y-100378039D01*
X71935775Y-100378039D01*
X71738238Y-100470151D01*
X71738233Y-100470154D01*
X71733251Y-100472477D01*
X71628389Y-100545902D01*
X71550211Y-100600643D01*
X71550208Y-100600645D01*
X71545700Y-100603802D01*
X71383802Y-100765700D01*
X71252477Y-100953251D01*
X71250154Y-100958233D01*
X71250151Y-100958238D01*
X71234195Y-100992457D01*
X71187278Y-101045742D01*
X71119001Y-101065203D01*
X71051041Y-101044661D01*
X71005805Y-100992457D01*
X70989849Y-100958238D01*
X70989846Y-100958233D01*
X70987523Y-100953251D01*
X70856198Y-100765700D01*
X70694300Y-100603802D01*
X70689792Y-100600645D01*
X70689789Y-100600643D01*
X70611611Y-100545902D01*
X70506749Y-100472477D01*
X70501767Y-100470154D01*
X70501762Y-100470151D01*
X70304225Y-100378039D01*
X70304224Y-100378039D01*
X70299243Y-100375716D01*
X70293935Y-100374294D01*
X70293933Y-100374293D01*
X70083402Y-100317881D01*
X70083400Y-100317881D01*
X70078087Y-100316457D01*
X69850000Y-100296502D01*
X69621913Y-100316457D01*
X69616600Y-100317881D01*
X69616598Y-100317881D01*
X69406067Y-100374293D01*
X69406065Y-100374294D01*
X69400757Y-100375716D01*
X69395776Y-100378039D01*
X69395775Y-100378039D01*
X69198238Y-100470151D01*
X69198233Y-100470154D01*
X69193251Y-100472477D01*
X69088389Y-100545902D01*
X69010211Y-100600643D01*
X69010208Y-100600645D01*
X69005700Y-100603802D01*
X68843802Y-100765700D01*
X68712477Y-100953251D01*
X68710154Y-100958233D01*
X68710151Y-100958238D01*
X68694195Y-100992457D01*
X68647278Y-101045742D01*
X68579001Y-101065203D01*
X68511041Y-101044661D01*
X68465805Y-100992457D01*
X68449849Y-100958238D01*
X68449846Y-100958233D01*
X68447523Y-100953251D01*
X68316198Y-100765700D01*
X68154300Y-100603802D01*
X68149792Y-100600645D01*
X68149789Y-100600643D01*
X68071611Y-100545902D01*
X67966749Y-100472477D01*
X67961767Y-100470154D01*
X67961762Y-100470151D01*
X67764225Y-100378039D01*
X67764224Y-100378039D01*
X67759243Y-100375716D01*
X67753935Y-100374294D01*
X67753933Y-100374293D01*
X67543402Y-100317881D01*
X67543400Y-100317881D01*
X67538087Y-100316457D01*
X67310000Y-100296502D01*
X67081913Y-100316457D01*
X67076600Y-100317881D01*
X67076598Y-100317881D01*
X66866067Y-100374293D01*
X66866065Y-100374294D01*
X66860757Y-100375716D01*
X66855776Y-100378039D01*
X66855775Y-100378039D01*
X66658238Y-100470151D01*
X66658233Y-100470154D01*
X66653251Y-100472477D01*
X66548389Y-100545902D01*
X66470211Y-100600643D01*
X66470208Y-100600645D01*
X66465700Y-100603802D01*
X66303802Y-100765700D01*
X66172477Y-100953251D01*
X66170154Y-100958233D01*
X66170151Y-100958238D01*
X66154195Y-100992457D01*
X66107278Y-101045742D01*
X66039001Y-101065203D01*
X65971041Y-101044661D01*
X65925805Y-100992457D01*
X65909849Y-100958238D01*
X65909846Y-100958233D01*
X65907523Y-100953251D01*
X65776198Y-100765700D01*
X65614300Y-100603802D01*
X65609792Y-100600645D01*
X65609789Y-100600643D01*
X65531611Y-100545902D01*
X65426749Y-100472477D01*
X65421767Y-100470154D01*
X65421762Y-100470151D01*
X65224225Y-100378039D01*
X65224224Y-100378039D01*
X65219243Y-100375716D01*
X65213935Y-100374294D01*
X65213933Y-100374293D01*
X65003402Y-100317881D01*
X65003400Y-100317881D01*
X64998087Y-100316457D01*
X64770000Y-100296502D01*
X64541913Y-100316457D01*
X64536600Y-100317881D01*
X64536598Y-100317881D01*
X64326067Y-100374293D01*
X64326065Y-100374294D01*
X64320757Y-100375716D01*
X64315776Y-100378039D01*
X64315775Y-100378039D01*
X64118238Y-100470151D01*
X64118233Y-100470154D01*
X64113251Y-100472477D01*
X64008389Y-100545902D01*
X63930211Y-100600643D01*
X63930208Y-100600645D01*
X63925700Y-100603802D01*
X63763802Y-100765700D01*
X63632477Y-100953251D01*
X63630154Y-100958233D01*
X63630151Y-100958238D01*
X63614195Y-100992457D01*
X63567278Y-101045742D01*
X63499001Y-101065203D01*
X63431041Y-101044661D01*
X63385805Y-100992457D01*
X63369849Y-100958238D01*
X63369846Y-100958233D01*
X63367523Y-100953251D01*
X63236198Y-100765700D01*
X63074300Y-100603802D01*
X63069792Y-100600645D01*
X63069789Y-100600643D01*
X62991611Y-100545902D01*
X62886749Y-100472477D01*
X62881767Y-100470154D01*
X62881762Y-100470151D01*
X62684225Y-100378039D01*
X62684224Y-100378039D01*
X62679243Y-100375716D01*
X62673935Y-100374294D01*
X62673933Y-100374293D01*
X62463402Y-100317881D01*
X62463400Y-100317881D01*
X62458087Y-100316457D01*
X62230000Y-100296502D01*
X62001913Y-100316457D01*
X61996600Y-100317881D01*
X61996598Y-100317881D01*
X61786067Y-100374293D01*
X61786065Y-100374294D01*
X61780757Y-100375716D01*
X61775776Y-100378039D01*
X61775775Y-100378039D01*
X61578238Y-100470151D01*
X61578233Y-100470154D01*
X61573251Y-100472477D01*
X61468389Y-100545902D01*
X61390211Y-100600643D01*
X61390208Y-100600645D01*
X61385700Y-100603802D01*
X61223802Y-100765700D01*
X61092477Y-100953251D01*
X61090154Y-100958233D01*
X61090151Y-100958238D01*
X61074195Y-100992457D01*
X61027278Y-101045742D01*
X60959001Y-101065203D01*
X60891041Y-101044661D01*
X60845805Y-100992457D01*
X60829849Y-100958238D01*
X60829846Y-100958233D01*
X60827523Y-100953251D01*
X60696198Y-100765700D01*
X60534300Y-100603802D01*
X60529792Y-100600645D01*
X60529789Y-100600643D01*
X60451611Y-100545902D01*
X60346749Y-100472477D01*
X60341767Y-100470154D01*
X60341762Y-100470151D01*
X60144225Y-100378039D01*
X60144224Y-100378039D01*
X60139243Y-100375716D01*
X60133935Y-100374294D01*
X60133933Y-100374293D01*
X59923402Y-100317881D01*
X59923400Y-100317881D01*
X59918087Y-100316457D01*
X59690000Y-100296502D01*
X59461913Y-100316457D01*
X59456600Y-100317881D01*
X59456598Y-100317881D01*
X59246067Y-100374293D01*
X59246065Y-100374294D01*
X59240757Y-100375716D01*
X59235776Y-100378039D01*
X59235775Y-100378039D01*
X59038238Y-100470151D01*
X59038233Y-100470154D01*
X59033251Y-100472477D01*
X58928389Y-100545902D01*
X58850211Y-100600643D01*
X58850208Y-100600645D01*
X58845700Y-100603802D01*
X58683802Y-100765700D01*
X58552477Y-100953251D01*
X58550154Y-100958233D01*
X58550151Y-100958238D01*
X58534195Y-100992457D01*
X58487278Y-101045742D01*
X58419001Y-101065203D01*
X58351041Y-101044661D01*
X58305805Y-100992457D01*
X58289849Y-100958238D01*
X58289846Y-100958233D01*
X58287523Y-100953251D01*
X58156198Y-100765700D01*
X57994300Y-100603802D01*
X57989792Y-100600645D01*
X57989789Y-100600643D01*
X57911611Y-100545902D01*
X57806749Y-100472477D01*
X57801767Y-100470154D01*
X57801762Y-100470151D01*
X57604225Y-100378039D01*
X57604224Y-100378039D01*
X57599243Y-100375716D01*
X57593935Y-100374294D01*
X57593933Y-100374293D01*
X57383402Y-100317881D01*
X57383400Y-100317881D01*
X57378087Y-100316457D01*
X57150000Y-100296502D01*
X56921913Y-100316457D01*
X56916600Y-100317881D01*
X56916598Y-100317881D01*
X56706067Y-100374293D01*
X56706065Y-100374294D01*
X56700757Y-100375716D01*
X56695776Y-100378039D01*
X56695775Y-100378039D01*
X56498238Y-100470151D01*
X56498233Y-100470154D01*
X56493251Y-100472477D01*
X56388389Y-100545902D01*
X56310211Y-100600643D01*
X56310208Y-100600645D01*
X56305700Y-100603802D01*
X56143802Y-100765700D01*
X56012477Y-100953251D01*
X56010154Y-100958233D01*
X56010151Y-100958238D01*
X56010034Y-100958489D01*
X55915716Y-101160757D01*
X55856457Y-101381913D01*
X55836502Y-101610000D01*
X51508500Y-101610000D01*
X51508500Y-86370000D01*
X55836502Y-86370000D01*
X55856457Y-86598087D01*
X55915716Y-86819243D01*
X55918039Y-86824224D01*
X55918039Y-86824225D01*
X56010151Y-87021762D01*
X56010154Y-87021767D01*
X56012477Y-87026749D01*
X56143802Y-87214300D01*
X56305700Y-87376198D01*
X56310208Y-87379355D01*
X56310211Y-87379357D01*
X56351542Y-87408297D01*
X56493251Y-87507523D01*
X56498233Y-87509846D01*
X56498238Y-87509849D01*
X56694765Y-87601490D01*
X56700757Y-87604284D01*
X56706065Y-87605706D01*
X56706067Y-87605707D01*
X56916598Y-87662119D01*
X56916600Y-87662119D01*
X56921913Y-87663543D01*
X57150000Y-87683498D01*
X57378087Y-87663543D01*
X57383400Y-87662119D01*
X57383402Y-87662119D01*
X57593933Y-87605707D01*
X57593935Y-87605706D01*
X57599243Y-87604284D01*
X57605235Y-87601490D01*
X57801762Y-87509849D01*
X57801767Y-87509846D01*
X57806749Y-87507523D01*
X57948458Y-87408297D01*
X57989789Y-87379357D01*
X57989792Y-87379355D01*
X57994300Y-87376198D01*
X58156198Y-87214300D01*
X58287523Y-87026749D01*
X58289846Y-87021767D01*
X58289849Y-87021762D01*
X58305805Y-86987543D01*
X58352722Y-86934258D01*
X58420999Y-86914797D01*
X58488959Y-86935339D01*
X58534195Y-86987543D01*
X58550151Y-87021762D01*
X58550154Y-87021767D01*
X58552477Y-87026749D01*
X58683802Y-87214300D01*
X58845700Y-87376198D01*
X58850208Y-87379355D01*
X58850211Y-87379357D01*
X58891542Y-87408297D01*
X59033251Y-87507523D01*
X59038233Y-87509846D01*
X59038238Y-87509849D01*
X59234765Y-87601490D01*
X59240757Y-87604284D01*
X59246065Y-87605706D01*
X59246067Y-87605707D01*
X59456598Y-87662119D01*
X59456600Y-87662119D01*
X59461913Y-87663543D01*
X59690000Y-87683498D01*
X59918087Y-87663543D01*
X59923400Y-87662119D01*
X59923402Y-87662119D01*
X60133933Y-87605707D01*
X60133935Y-87605706D01*
X60139243Y-87604284D01*
X60145235Y-87601490D01*
X60341762Y-87509849D01*
X60341767Y-87509846D01*
X60346749Y-87507523D01*
X60488458Y-87408297D01*
X60529789Y-87379357D01*
X60529792Y-87379355D01*
X60534300Y-87376198D01*
X60696198Y-87214300D01*
X60827523Y-87026749D01*
X60829846Y-87021767D01*
X60829849Y-87021762D01*
X60845805Y-86987543D01*
X60892722Y-86934258D01*
X60960999Y-86914797D01*
X61028959Y-86935339D01*
X61074195Y-86987543D01*
X61090151Y-87021762D01*
X61090154Y-87021767D01*
X61092477Y-87026749D01*
X61223802Y-87214300D01*
X61385700Y-87376198D01*
X61390208Y-87379355D01*
X61390211Y-87379357D01*
X61431542Y-87408297D01*
X61573251Y-87507523D01*
X61578233Y-87509846D01*
X61578238Y-87509849D01*
X61774765Y-87601490D01*
X61780757Y-87604284D01*
X61786065Y-87605706D01*
X61786067Y-87605707D01*
X61996598Y-87662119D01*
X61996600Y-87662119D01*
X62001913Y-87663543D01*
X62230000Y-87683498D01*
X62458087Y-87663543D01*
X62463400Y-87662119D01*
X62463402Y-87662119D01*
X62673933Y-87605707D01*
X62673935Y-87605706D01*
X62679243Y-87604284D01*
X62685235Y-87601490D01*
X62881762Y-87509849D01*
X62881767Y-87509846D01*
X62886749Y-87507523D01*
X63028458Y-87408297D01*
X63069789Y-87379357D01*
X63069792Y-87379355D01*
X63074300Y-87376198D01*
X63236198Y-87214300D01*
X63367523Y-87026749D01*
X63369846Y-87021767D01*
X63369849Y-87021762D01*
X63385805Y-86987543D01*
X63432722Y-86934258D01*
X63500999Y-86914797D01*
X63568959Y-86935339D01*
X63614195Y-86987543D01*
X63630151Y-87021762D01*
X63630154Y-87021767D01*
X63632477Y-87026749D01*
X63763802Y-87214300D01*
X63925700Y-87376198D01*
X63930208Y-87379355D01*
X63930211Y-87379357D01*
X63971542Y-87408297D01*
X64113251Y-87507523D01*
X64118233Y-87509846D01*
X64118238Y-87509849D01*
X64314765Y-87601490D01*
X64320757Y-87604284D01*
X64326065Y-87605706D01*
X64326067Y-87605707D01*
X64536598Y-87662119D01*
X64536600Y-87662119D01*
X64541913Y-87663543D01*
X64770000Y-87683498D01*
X64998087Y-87663543D01*
X65003400Y-87662119D01*
X65003402Y-87662119D01*
X65213933Y-87605707D01*
X65213935Y-87605706D01*
X65219243Y-87604284D01*
X65225235Y-87601490D01*
X65421762Y-87509849D01*
X65421767Y-87509846D01*
X65426749Y-87507523D01*
X65568458Y-87408297D01*
X65609789Y-87379357D01*
X65609792Y-87379355D01*
X65614300Y-87376198D01*
X65776198Y-87214300D01*
X65907523Y-87026749D01*
X65909846Y-87021767D01*
X65909849Y-87021762D01*
X65925805Y-86987543D01*
X65972722Y-86934258D01*
X66040999Y-86914797D01*
X66108959Y-86935339D01*
X66154195Y-86987543D01*
X66170151Y-87021762D01*
X66170154Y-87021767D01*
X66172477Y-87026749D01*
X66303802Y-87214300D01*
X66465700Y-87376198D01*
X66470208Y-87379355D01*
X66470211Y-87379357D01*
X66511542Y-87408297D01*
X66653251Y-87507523D01*
X66658233Y-87509846D01*
X66658238Y-87509849D01*
X66854765Y-87601490D01*
X66860757Y-87604284D01*
X66866065Y-87605706D01*
X66866067Y-87605707D01*
X67076598Y-87662119D01*
X67076600Y-87662119D01*
X67081913Y-87663543D01*
X67310000Y-87683498D01*
X67538087Y-87663543D01*
X67543400Y-87662119D01*
X67543402Y-87662119D01*
X67753933Y-87605707D01*
X67753935Y-87605706D01*
X67759243Y-87604284D01*
X67765235Y-87601490D01*
X67961762Y-87509849D01*
X67961767Y-87509846D01*
X67966749Y-87507523D01*
X68108458Y-87408297D01*
X68149789Y-87379357D01*
X68149792Y-87379355D01*
X68154300Y-87376198D01*
X68316198Y-87214300D01*
X68447523Y-87026749D01*
X68449846Y-87021767D01*
X68449849Y-87021762D01*
X68465805Y-86987543D01*
X68512722Y-86934258D01*
X68580999Y-86914797D01*
X68648959Y-86935339D01*
X68694195Y-86987543D01*
X68710151Y-87021762D01*
X68710154Y-87021767D01*
X68712477Y-87026749D01*
X68843802Y-87214300D01*
X69005700Y-87376198D01*
X69010208Y-87379355D01*
X69010211Y-87379357D01*
X69051542Y-87408297D01*
X69193251Y-87507523D01*
X69198233Y-87509846D01*
X69198238Y-87509849D01*
X69394765Y-87601490D01*
X69400757Y-87604284D01*
X69406065Y-87605706D01*
X69406067Y-87605707D01*
X69616598Y-87662119D01*
X69616600Y-87662119D01*
X69621913Y-87663543D01*
X69850000Y-87683498D01*
X70078087Y-87663543D01*
X70083400Y-87662119D01*
X70083402Y-87662119D01*
X70293933Y-87605707D01*
X70293935Y-87605706D01*
X70299243Y-87604284D01*
X70305235Y-87601490D01*
X70501762Y-87509849D01*
X70501767Y-87509846D01*
X70506749Y-87507523D01*
X70648458Y-87408297D01*
X70689789Y-87379357D01*
X70689792Y-87379355D01*
X70694300Y-87376198D01*
X70856198Y-87214300D01*
X70987523Y-87026749D01*
X70989846Y-87021767D01*
X70989849Y-87021762D01*
X71005805Y-86987543D01*
X71052722Y-86934258D01*
X71120999Y-86914797D01*
X71188959Y-86935339D01*
X71234195Y-86987543D01*
X71250151Y-87021762D01*
X71250154Y-87021767D01*
X71252477Y-87026749D01*
X71383802Y-87214300D01*
X71545700Y-87376198D01*
X71550208Y-87379355D01*
X71550211Y-87379357D01*
X71591542Y-87408297D01*
X71733251Y-87507523D01*
X71738233Y-87509846D01*
X71738238Y-87509849D01*
X71934765Y-87601490D01*
X71940757Y-87604284D01*
X71946065Y-87605706D01*
X71946067Y-87605707D01*
X72156598Y-87662119D01*
X72156600Y-87662119D01*
X72161913Y-87663543D01*
X72390000Y-87683498D01*
X72618087Y-87663543D01*
X72623400Y-87662119D01*
X72623402Y-87662119D01*
X72833933Y-87605707D01*
X72833935Y-87605706D01*
X72839243Y-87604284D01*
X72845235Y-87601490D01*
X73041762Y-87509849D01*
X73041767Y-87509846D01*
X73046749Y-87507523D01*
X73188458Y-87408297D01*
X73229789Y-87379357D01*
X73229792Y-87379355D01*
X73234300Y-87376198D01*
X73396198Y-87214300D01*
X73527523Y-87026749D01*
X73529846Y-87021767D01*
X73529849Y-87021762D01*
X73545805Y-86987543D01*
X73592722Y-86934258D01*
X73660999Y-86914797D01*
X73728959Y-86935339D01*
X73774195Y-86987543D01*
X73790151Y-87021762D01*
X73790154Y-87021767D01*
X73792477Y-87026749D01*
X73923802Y-87214300D01*
X74085700Y-87376198D01*
X74090208Y-87379355D01*
X74090211Y-87379357D01*
X74131542Y-87408297D01*
X74273251Y-87507523D01*
X74278233Y-87509846D01*
X74278238Y-87509849D01*
X74474765Y-87601490D01*
X74480757Y-87604284D01*
X74486065Y-87605706D01*
X74486067Y-87605707D01*
X74696598Y-87662119D01*
X74696600Y-87662119D01*
X74701913Y-87663543D01*
X74930000Y-87683498D01*
X75158087Y-87663543D01*
X75163400Y-87662119D01*
X75163402Y-87662119D01*
X75373933Y-87605707D01*
X75373935Y-87605706D01*
X75379243Y-87604284D01*
X75385235Y-87601490D01*
X75581762Y-87509849D01*
X75581767Y-87509846D01*
X75586749Y-87507523D01*
X75728458Y-87408297D01*
X75769789Y-87379357D01*
X75769792Y-87379355D01*
X75774300Y-87376198D01*
X75936198Y-87214300D01*
X76067523Y-87026749D01*
X76069846Y-87021767D01*
X76069849Y-87021762D01*
X76085805Y-86987543D01*
X76132722Y-86934258D01*
X76200999Y-86914797D01*
X76268959Y-86935339D01*
X76314195Y-86987543D01*
X76330151Y-87021762D01*
X76330154Y-87021767D01*
X76332477Y-87026749D01*
X76463802Y-87214300D01*
X76625700Y-87376198D01*
X76630208Y-87379355D01*
X76630211Y-87379357D01*
X76671542Y-87408297D01*
X76813251Y-87507523D01*
X76818233Y-87509846D01*
X76818238Y-87509849D01*
X77014765Y-87601490D01*
X77020757Y-87604284D01*
X77026065Y-87605706D01*
X77026067Y-87605707D01*
X77236598Y-87662119D01*
X77236600Y-87662119D01*
X77241913Y-87663543D01*
X77470000Y-87683498D01*
X77698087Y-87663543D01*
X77703400Y-87662119D01*
X77703402Y-87662119D01*
X77913933Y-87605707D01*
X77913935Y-87605706D01*
X77919243Y-87604284D01*
X77925235Y-87601490D01*
X78121762Y-87509849D01*
X78121767Y-87509846D01*
X78126749Y-87507523D01*
X78268458Y-87408297D01*
X78309789Y-87379357D01*
X78309792Y-87379355D01*
X78314300Y-87376198D01*
X78476198Y-87214300D01*
X78607523Y-87026749D01*
X78609846Y-87021767D01*
X78609849Y-87021762D01*
X78625805Y-86987543D01*
X78672722Y-86934258D01*
X78740999Y-86914797D01*
X78808959Y-86935339D01*
X78854195Y-86987543D01*
X78870151Y-87021762D01*
X78870154Y-87021767D01*
X78872477Y-87026749D01*
X79003802Y-87214300D01*
X79165700Y-87376198D01*
X79170208Y-87379355D01*
X79170211Y-87379357D01*
X79211542Y-87408297D01*
X79353251Y-87507523D01*
X79358233Y-87509846D01*
X79358238Y-87509849D01*
X79554765Y-87601490D01*
X79560757Y-87604284D01*
X79566065Y-87605706D01*
X79566067Y-87605707D01*
X79776598Y-87662119D01*
X79776600Y-87662119D01*
X79781913Y-87663543D01*
X80010000Y-87683498D01*
X80238087Y-87663543D01*
X80243400Y-87662119D01*
X80243402Y-87662119D01*
X80453933Y-87605707D01*
X80453935Y-87605706D01*
X80459243Y-87604284D01*
X80465235Y-87601490D01*
X80661762Y-87509849D01*
X80661767Y-87509846D01*
X80666749Y-87507523D01*
X80808458Y-87408297D01*
X80849789Y-87379357D01*
X80849792Y-87379355D01*
X80854300Y-87376198D01*
X81016198Y-87214300D01*
X81147523Y-87026749D01*
X81149846Y-87021767D01*
X81149849Y-87021762D01*
X81165805Y-86987543D01*
X81212722Y-86934258D01*
X81280999Y-86914797D01*
X81348959Y-86935339D01*
X81394195Y-86987543D01*
X81410151Y-87021762D01*
X81410154Y-87021767D01*
X81412477Y-87026749D01*
X81543802Y-87214300D01*
X81705700Y-87376198D01*
X81710208Y-87379355D01*
X81710211Y-87379357D01*
X81751542Y-87408297D01*
X81893251Y-87507523D01*
X81898233Y-87509846D01*
X81898238Y-87509849D01*
X82094765Y-87601490D01*
X82100757Y-87604284D01*
X82106065Y-87605706D01*
X82106067Y-87605707D01*
X82316598Y-87662119D01*
X82316600Y-87662119D01*
X82321913Y-87663543D01*
X82550000Y-87683498D01*
X82778087Y-87663543D01*
X82783400Y-87662119D01*
X82783402Y-87662119D01*
X82993933Y-87605707D01*
X82993935Y-87605706D01*
X82999243Y-87604284D01*
X83005235Y-87601490D01*
X83201762Y-87509849D01*
X83201767Y-87509846D01*
X83206749Y-87507523D01*
X83348458Y-87408297D01*
X83389789Y-87379357D01*
X83389792Y-87379355D01*
X83394300Y-87376198D01*
X83556198Y-87214300D01*
X83687523Y-87026749D01*
X83689846Y-87021767D01*
X83689849Y-87021762D01*
X83706081Y-86986951D01*
X83752998Y-86933666D01*
X83821275Y-86914205D01*
X83889235Y-86934747D01*
X83934471Y-86986951D01*
X83950586Y-87021511D01*
X83956069Y-87031007D01*
X84081028Y-87209467D01*
X84088084Y-87217875D01*
X84242125Y-87371916D01*
X84250533Y-87378972D01*
X84428993Y-87503931D01*
X84438489Y-87509414D01*
X84635947Y-87601490D01*
X84646239Y-87605236D01*
X84818503Y-87651394D01*
X84832599Y-87651058D01*
X84836000Y-87643116D01*
X84836000Y-87637967D01*
X85344000Y-87637967D01*
X85347973Y-87651498D01*
X85356522Y-87652727D01*
X85533761Y-87605236D01*
X85544053Y-87601490D01*
X85741511Y-87509414D01*
X85751007Y-87503931D01*
X85929467Y-87378972D01*
X85937875Y-87371916D01*
X86091916Y-87217875D01*
X86098972Y-87209467D01*
X86223931Y-87031007D01*
X86229414Y-87021511D01*
X86245529Y-86986951D01*
X86292446Y-86933666D01*
X86360723Y-86914205D01*
X86428683Y-86934747D01*
X86473919Y-86986951D01*
X86490151Y-87021762D01*
X86490154Y-87021767D01*
X86492477Y-87026749D01*
X86623802Y-87214300D01*
X86785700Y-87376198D01*
X86790208Y-87379355D01*
X86790211Y-87379357D01*
X86831542Y-87408297D01*
X86973251Y-87507523D01*
X86978233Y-87509846D01*
X86978238Y-87509849D01*
X87174765Y-87601490D01*
X87180757Y-87604284D01*
X87186065Y-87605706D01*
X87186067Y-87605707D01*
X87396598Y-87662119D01*
X87396600Y-87662119D01*
X87401913Y-87663543D01*
X87630000Y-87683498D01*
X87858087Y-87663543D01*
X87863400Y-87662119D01*
X87863402Y-87662119D01*
X88073933Y-87605707D01*
X88073935Y-87605706D01*
X88079243Y-87604284D01*
X88085235Y-87601490D01*
X88281762Y-87509849D01*
X88281767Y-87509846D01*
X88286749Y-87507523D01*
X88428458Y-87408297D01*
X88469789Y-87379357D01*
X88469792Y-87379355D01*
X88474300Y-87376198D01*
X88636198Y-87214300D01*
X88767523Y-87026749D01*
X88769846Y-87021767D01*
X88769849Y-87021762D01*
X88785805Y-86987543D01*
X88832722Y-86934258D01*
X88900999Y-86914797D01*
X88968959Y-86935339D01*
X89014195Y-86987543D01*
X89030151Y-87021762D01*
X89030154Y-87021767D01*
X89032477Y-87026749D01*
X89163802Y-87214300D01*
X89325700Y-87376198D01*
X89330208Y-87379355D01*
X89330211Y-87379357D01*
X89371542Y-87408297D01*
X89513251Y-87507523D01*
X89518233Y-87509846D01*
X89518238Y-87509849D01*
X89714765Y-87601490D01*
X89720757Y-87604284D01*
X89726065Y-87605706D01*
X89726067Y-87605707D01*
X89936598Y-87662119D01*
X89936600Y-87662119D01*
X89941913Y-87663543D01*
X90170000Y-87683498D01*
X90398087Y-87663543D01*
X90403400Y-87662119D01*
X90403402Y-87662119D01*
X90613933Y-87605707D01*
X90613935Y-87605706D01*
X90619243Y-87604284D01*
X90625235Y-87601490D01*
X90821762Y-87509849D01*
X90821767Y-87509846D01*
X90826749Y-87507523D01*
X90968458Y-87408297D01*
X91009789Y-87379357D01*
X91009792Y-87379355D01*
X91014300Y-87376198D01*
X91176198Y-87214300D01*
X91179357Y-87209789D01*
X91182892Y-87205576D01*
X91184026Y-87206527D01*
X91234071Y-87166529D01*
X91304690Y-87159224D01*
X91368049Y-87191258D01*
X91404030Y-87252462D01*
X91407082Y-87269517D01*
X91408255Y-87280316D01*
X91459385Y-87416705D01*
X91546739Y-87533261D01*
X91663295Y-87620615D01*
X91799684Y-87671745D01*
X91861866Y-87678500D01*
X93558134Y-87678500D01*
X93620316Y-87671745D01*
X93756705Y-87620615D01*
X93873261Y-87533261D01*
X93960615Y-87416705D01*
X94011745Y-87280316D01*
X94018500Y-87218134D01*
X94018500Y-85521866D01*
X94011745Y-85459684D01*
X93960615Y-85323295D01*
X93873261Y-85206739D01*
X93756705Y-85119385D01*
X93620316Y-85068255D01*
X93558134Y-85061500D01*
X91861866Y-85061500D01*
X91799684Y-85068255D01*
X91663295Y-85119385D01*
X91546739Y-85206739D01*
X91459385Y-85323295D01*
X91408255Y-85459684D01*
X91407083Y-85470474D01*
X91406197Y-85472606D01*
X91405575Y-85475222D01*
X91405152Y-85475121D01*
X91379845Y-85536035D01*
X91321483Y-85576463D01*
X91250529Y-85578922D01*
X91189510Y-85542629D01*
X91182511Y-85533969D01*
X91179354Y-85530207D01*
X91176198Y-85525700D01*
X91014300Y-85363802D01*
X91009792Y-85360645D01*
X91009789Y-85360643D01*
X90931611Y-85305902D01*
X90826749Y-85232477D01*
X90821767Y-85230154D01*
X90821762Y-85230151D01*
X90624225Y-85138039D01*
X90624224Y-85138039D01*
X90619243Y-85135716D01*
X90613935Y-85134294D01*
X90613933Y-85134293D01*
X90403402Y-85077881D01*
X90403400Y-85077881D01*
X90398087Y-85076457D01*
X90170000Y-85056502D01*
X89941913Y-85076457D01*
X89936600Y-85077881D01*
X89936598Y-85077881D01*
X89726067Y-85134293D01*
X89726065Y-85134294D01*
X89720757Y-85135716D01*
X89715776Y-85138039D01*
X89715775Y-85138039D01*
X89518238Y-85230151D01*
X89518233Y-85230154D01*
X89513251Y-85232477D01*
X89408389Y-85305902D01*
X89330211Y-85360643D01*
X89330208Y-85360645D01*
X89325700Y-85363802D01*
X89163802Y-85525700D01*
X89032477Y-85713251D01*
X89030154Y-85718233D01*
X89030151Y-85718238D01*
X89014195Y-85752457D01*
X88967278Y-85805742D01*
X88899001Y-85825203D01*
X88831041Y-85804661D01*
X88785805Y-85752457D01*
X88769849Y-85718238D01*
X88769846Y-85718233D01*
X88767523Y-85713251D01*
X88636198Y-85525700D01*
X88474300Y-85363802D01*
X88469792Y-85360645D01*
X88469789Y-85360643D01*
X88391611Y-85305902D01*
X88286749Y-85232477D01*
X88281767Y-85230154D01*
X88281762Y-85230151D01*
X88084225Y-85138039D01*
X88084224Y-85138039D01*
X88079243Y-85135716D01*
X88073935Y-85134294D01*
X88073933Y-85134293D01*
X87863402Y-85077881D01*
X87863400Y-85077881D01*
X87858087Y-85076457D01*
X87630000Y-85056502D01*
X87401913Y-85076457D01*
X87396600Y-85077881D01*
X87396598Y-85077881D01*
X87186067Y-85134293D01*
X87186065Y-85134294D01*
X87180757Y-85135716D01*
X87175776Y-85138039D01*
X87175775Y-85138039D01*
X86978238Y-85230151D01*
X86978233Y-85230154D01*
X86973251Y-85232477D01*
X86868389Y-85305902D01*
X86790211Y-85360643D01*
X86790208Y-85360645D01*
X86785700Y-85363802D01*
X86623802Y-85525700D01*
X86492477Y-85713251D01*
X86490154Y-85718233D01*
X86490151Y-85718238D01*
X86473919Y-85753049D01*
X86427002Y-85806334D01*
X86358725Y-85825795D01*
X86290765Y-85805253D01*
X86245529Y-85753049D01*
X86229414Y-85718489D01*
X86223931Y-85708993D01*
X86098972Y-85530533D01*
X86091916Y-85522125D01*
X85937875Y-85368084D01*
X85929467Y-85361028D01*
X85751007Y-85236069D01*
X85741511Y-85230586D01*
X85544053Y-85138510D01*
X85533761Y-85134764D01*
X85361497Y-85088606D01*
X85347401Y-85088942D01*
X85344000Y-85096884D01*
X85344000Y-87637967D01*
X84836000Y-87637967D01*
X84836000Y-85102033D01*
X84832027Y-85088502D01*
X84823478Y-85087273D01*
X84646239Y-85134764D01*
X84635947Y-85138510D01*
X84438489Y-85230586D01*
X84428993Y-85236069D01*
X84250533Y-85361028D01*
X84242125Y-85368084D01*
X84088084Y-85522125D01*
X84081028Y-85530533D01*
X83956069Y-85708993D01*
X83950586Y-85718489D01*
X83934471Y-85753049D01*
X83887554Y-85806334D01*
X83819277Y-85825795D01*
X83751317Y-85805253D01*
X83706081Y-85753049D01*
X83689849Y-85718238D01*
X83689846Y-85718233D01*
X83687523Y-85713251D01*
X83556198Y-85525700D01*
X83394300Y-85363802D01*
X83389792Y-85360645D01*
X83389789Y-85360643D01*
X83311611Y-85305902D01*
X83206749Y-85232477D01*
X83201767Y-85230154D01*
X83201762Y-85230151D01*
X83004225Y-85138039D01*
X83004224Y-85138039D01*
X82999243Y-85135716D01*
X82993935Y-85134294D01*
X82993933Y-85134293D01*
X82783402Y-85077881D01*
X82783400Y-85077881D01*
X82778087Y-85076457D01*
X82550000Y-85056502D01*
X82321913Y-85076457D01*
X82316600Y-85077881D01*
X82316598Y-85077881D01*
X82106067Y-85134293D01*
X82106065Y-85134294D01*
X82100757Y-85135716D01*
X82095776Y-85138039D01*
X82095775Y-85138039D01*
X81898238Y-85230151D01*
X81898233Y-85230154D01*
X81893251Y-85232477D01*
X81788389Y-85305902D01*
X81710211Y-85360643D01*
X81710208Y-85360645D01*
X81705700Y-85363802D01*
X81543802Y-85525700D01*
X81412477Y-85713251D01*
X81410154Y-85718233D01*
X81410151Y-85718238D01*
X81394195Y-85752457D01*
X81347278Y-85805742D01*
X81279001Y-85825203D01*
X81211041Y-85804661D01*
X81165805Y-85752457D01*
X81149849Y-85718238D01*
X81149846Y-85718233D01*
X81147523Y-85713251D01*
X81016198Y-85525700D01*
X80854300Y-85363802D01*
X80849792Y-85360645D01*
X80849789Y-85360643D01*
X80771611Y-85305902D01*
X80666749Y-85232477D01*
X80661767Y-85230154D01*
X80661762Y-85230151D01*
X80464225Y-85138039D01*
X80464224Y-85138039D01*
X80459243Y-85135716D01*
X80453935Y-85134294D01*
X80453933Y-85134293D01*
X80243402Y-85077881D01*
X80243400Y-85077881D01*
X80238087Y-85076457D01*
X80010000Y-85056502D01*
X79781913Y-85076457D01*
X79776600Y-85077881D01*
X79776598Y-85077881D01*
X79566067Y-85134293D01*
X79566065Y-85134294D01*
X79560757Y-85135716D01*
X79555776Y-85138039D01*
X79555775Y-85138039D01*
X79358238Y-85230151D01*
X79358233Y-85230154D01*
X79353251Y-85232477D01*
X79248389Y-85305902D01*
X79170211Y-85360643D01*
X79170208Y-85360645D01*
X79165700Y-85363802D01*
X79003802Y-85525700D01*
X78872477Y-85713251D01*
X78870154Y-85718233D01*
X78870151Y-85718238D01*
X78854195Y-85752457D01*
X78807278Y-85805742D01*
X78739001Y-85825203D01*
X78671041Y-85804661D01*
X78625805Y-85752457D01*
X78609849Y-85718238D01*
X78609846Y-85718233D01*
X78607523Y-85713251D01*
X78476198Y-85525700D01*
X78314300Y-85363802D01*
X78309792Y-85360645D01*
X78309789Y-85360643D01*
X78231611Y-85305902D01*
X78126749Y-85232477D01*
X78121767Y-85230154D01*
X78121762Y-85230151D01*
X77924225Y-85138039D01*
X77924224Y-85138039D01*
X77919243Y-85135716D01*
X77913935Y-85134294D01*
X77913933Y-85134293D01*
X77703402Y-85077881D01*
X77703400Y-85077881D01*
X77698087Y-85076457D01*
X77470000Y-85056502D01*
X77241913Y-85076457D01*
X77236600Y-85077881D01*
X77236598Y-85077881D01*
X77026067Y-85134293D01*
X77026065Y-85134294D01*
X77020757Y-85135716D01*
X77015776Y-85138039D01*
X77015775Y-85138039D01*
X76818238Y-85230151D01*
X76818233Y-85230154D01*
X76813251Y-85232477D01*
X76708389Y-85305902D01*
X76630211Y-85360643D01*
X76630208Y-85360645D01*
X76625700Y-85363802D01*
X76463802Y-85525700D01*
X76332477Y-85713251D01*
X76330154Y-85718233D01*
X76330151Y-85718238D01*
X76314195Y-85752457D01*
X76267278Y-85805742D01*
X76199001Y-85825203D01*
X76131041Y-85804661D01*
X76085805Y-85752457D01*
X76069849Y-85718238D01*
X76069846Y-85718233D01*
X76067523Y-85713251D01*
X75936198Y-85525700D01*
X75774300Y-85363802D01*
X75769792Y-85360645D01*
X75769789Y-85360643D01*
X75691611Y-85305902D01*
X75586749Y-85232477D01*
X75581767Y-85230154D01*
X75581762Y-85230151D01*
X75384225Y-85138039D01*
X75384224Y-85138039D01*
X75379243Y-85135716D01*
X75373935Y-85134294D01*
X75373933Y-85134293D01*
X75163402Y-85077881D01*
X75163400Y-85077881D01*
X75158087Y-85076457D01*
X74930000Y-85056502D01*
X74701913Y-85076457D01*
X74696600Y-85077881D01*
X74696598Y-85077881D01*
X74486067Y-85134293D01*
X74486065Y-85134294D01*
X74480757Y-85135716D01*
X74475776Y-85138039D01*
X74475775Y-85138039D01*
X74278238Y-85230151D01*
X74278233Y-85230154D01*
X74273251Y-85232477D01*
X74168389Y-85305902D01*
X74090211Y-85360643D01*
X74090208Y-85360645D01*
X74085700Y-85363802D01*
X73923802Y-85525700D01*
X73792477Y-85713251D01*
X73790154Y-85718233D01*
X73790151Y-85718238D01*
X73774195Y-85752457D01*
X73727278Y-85805742D01*
X73659001Y-85825203D01*
X73591041Y-85804661D01*
X73545805Y-85752457D01*
X73529849Y-85718238D01*
X73529846Y-85718233D01*
X73527523Y-85713251D01*
X73396198Y-85525700D01*
X73234300Y-85363802D01*
X73229792Y-85360645D01*
X73229789Y-85360643D01*
X73151611Y-85305902D01*
X73046749Y-85232477D01*
X73041767Y-85230154D01*
X73041762Y-85230151D01*
X72844225Y-85138039D01*
X72844224Y-85138039D01*
X72839243Y-85135716D01*
X72833935Y-85134294D01*
X72833933Y-85134293D01*
X72623402Y-85077881D01*
X72623400Y-85077881D01*
X72618087Y-85076457D01*
X72390000Y-85056502D01*
X72161913Y-85076457D01*
X72156600Y-85077881D01*
X72156598Y-85077881D01*
X71946067Y-85134293D01*
X71946065Y-85134294D01*
X71940757Y-85135716D01*
X71935776Y-85138039D01*
X71935775Y-85138039D01*
X71738238Y-85230151D01*
X71738233Y-85230154D01*
X71733251Y-85232477D01*
X71628389Y-85305902D01*
X71550211Y-85360643D01*
X71550208Y-85360645D01*
X71545700Y-85363802D01*
X71383802Y-85525700D01*
X71252477Y-85713251D01*
X71250154Y-85718233D01*
X71250151Y-85718238D01*
X71234195Y-85752457D01*
X71187278Y-85805742D01*
X71119001Y-85825203D01*
X71051041Y-85804661D01*
X71005805Y-85752457D01*
X70989849Y-85718238D01*
X70989846Y-85718233D01*
X70987523Y-85713251D01*
X70856198Y-85525700D01*
X70694300Y-85363802D01*
X70689792Y-85360645D01*
X70689789Y-85360643D01*
X70611611Y-85305902D01*
X70506749Y-85232477D01*
X70501767Y-85230154D01*
X70501762Y-85230151D01*
X70304225Y-85138039D01*
X70304224Y-85138039D01*
X70299243Y-85135716D01*
X70293935Y-85134294D01*
X70293933Y-85134293D01*
X70083402Y-85077881D01*
X70083400Y-85077881D01*
X70078087Y-85076457D01*
X69850000Y-85056502D01*
X69621913Y-85076457D01*
X69616600Y-85077881D01*
X69616598Y-85077881D01*
X69406067Y-85134293D01*
X69406065Y-85134294D01*
X69400757Y-85135716D01*
X69395776Y-85138039D01*
X69395775Y-85138039D01*
X69198238Y-85230151D01*
X69198233Y-85230154D01*
X69193251Y-85232477D01*
X69088389Y-85305902D01*
X69010211Y-85360643D01*
X69010208Y-85360645D01*
X69005700Y-85363802D01*
X68843802Y-85525700D01*
X68712477Y-85713251D01*
X68710154Y-85718233D01*
X68710151Y-85718238D01*
X68694195Y-85752457D01*
X68647278Y-85805742D01*
X68579001Y-85825203D01*
X68511041Y-85804661D01*
X68465805Y-85752457D01*
X68449849Y-85718238D01*
X68449846Y-85718233D01*
X68447523Y-85713251D01*
X68316198Y-85525700D01*
X68154300Y-85363802D01*
X68149792Y-85360645D01*
X68149789Y-85360643D01*
X68071611Y-85305902D01*
X67966749Y-85232477D01*
X67961767Y-85230154D01*
X67961762Y-85230151D01*
X67764225Y-85138039D01*
X67764224Y-85138039D01*
X67759243Y-85135716D01*
X67753935Y-85134294D01*
X67753933Y-85134293D01*
X67543402Y-85077881D01*
X67543400Y-85077881D01*
X67538087Y-85076457D01*
X67310000Y-85056502D01*
X67081913Y-85076457D01*
X67076600Y-85077881D01*
X67076598Y-85077881D01*
X66866067Y-85134293D01*
X66866065Y-85134294D01*
X66860757Y-85135716D01*
X66855776Y-85138039D01*
X66855775Y-85138039D01*
X66658238Y-85230151D01*
X66658233Y-85230154D01*
X66653251Y-85232477D01*
X66548389Y-85305902D01*
X66470211Y-85360643D01*
X66470208Y-85360645D01*
X66465700Y-85363802D01*
X66303802Y-85525700D01*
X66172477Y-85713251D01*
X66170154Y-85718233D01*
X66170151Y-85718238D01*
X66154195Y-85752457D01*
X66107278Y-85805742D01*
X66039001Y-85825203D01*
X65971041Y-85804661D01*
X65925805Y-85752457D01*
X65909849Y-85718238D01*
X65909846Y-85718233D01*
X65907523Y-85713251D01*
X65776198Y-85525700D01*
X65614300Y-85363802D01*
X65609792Y-85360645D01*
X65609789Y-85360643D01*
X65531611Y-85305902D01*
X65426749Y-85232477D01*
X65421767Y-85230154D01*
X65421762Y-85230151D01*
X65224225Y-85138039D01*
X65224224Y-85138039D01*
X65219243Y-85135716D01*
X65213935Y-85134294D01*
X65213933Y-85134293D01*
X65003402Y-85077881D01*
X65003400Y-85077881D01*
X64998087Y-85076457D01*
X64770000Y-85056502D01*
X64541913Y-85076457D01*
X64536600Y-85077881D01*
X64536598Y-85077881D01*
X64326067Y-85134293D01*
X64326065Y-85134294D01*
X64320757Y-85135716D01*
X64315776Y-85138039D01*
X64315775Y-85138039D01*
X64118238Y-85230151D01*
X64118233Y-85230154D01*
X64113251Y-85232477D01*
X64008389Y-85305902D01*
X63930211Y-85360643D01*
X63930208Y-85360645D01*
X63925700Y-85363802D01*
X63763802Y-85525700D01*
X63632477Y-85713251D01*
X63630154Y-85718233D01*
X63630151Y-85718238D01*
X63614195Y-85752457D01*
X63567278Y-85805742D01*
X63499001Y-85825203D01*
X63431041Y-85804661D01*
X63385805Y-85752457D01*
X63369849Y-85718238D01*
X63369846Y-85718233D01*
X63367523Y-85713251D01*
X63236198Y-85525700D01*
X63074300Y-85363802D01*
X63069792Y-85360645D01*
X63069789Y-85360643D01*
X62991611Y-85305902D01*
X62886749Y-85232477D01*
X62881767Y-85230154D01*
X62881762Y-85230151D01*
X62684225Y-85138039D01*
X62684224Y-85138039D01*
X62679243Y-85135716D01*
X62673935Y-85134294D01*
X62673933Y-85134293D01*
X62463402Y-85077881D01*
X62463400Y-85077881D01*
X62458087Y-85076457D01*
X62230000Y-85056502D01*
X62001913Y-85076457D01*
X61996600Y-85077881D01*
X61996598Y-85077881D01*
X61786067Y-85134293D01*
X61786065Y-85134294D01*
X61780757Y-85135716D01*
X61775776Y-85138039D01*
X61775775Y-85138039D01*
X61578238Y-85230151D01*
X61578233Y-85230154D01*
X61573251Y-85232477D01*
X61468389Y-85305902D01*
X61390211Y-85360643D01*
X61390208Y-85360645D01*
X61385700Y-85363802D01*
X61223802Y-85525700D01*
X61092477Y-85713251D01*
X61090154Y-85718233D01*
X61090151Y-85718238D01*
X61074195Y-85752457D01*
X61027278Y-85805742D01*
X60959001Y-85825203D01*
X60891041Y-85804661D01*
X60845805Y-85752457D01*
X60829849Y-85718238D01*
X60829846Y-85718233D01*
X60827523Y-85713251D01*
X60696198Y-85525700D01*
X60534300Y-85363802D01*
X60529792Y-85360645D01*
X60529789Y-85360643D01*
X60451611Y-85305902D01*
X60346749Y-85232477D01*
X60341767Y-85230154D01*
X60341762Y-85230151D01*
X60144225Y-85138039D01*
X60144224Y-85138039D01*
X60139243Y-85135716D01*
X60133935Y-85134294D01*
X60133933Y-85134293D01*
X59923402Y-85077881D01*
X59923400Y-85077881D01*
X59918087Y-85076457D01*
X59690000Y-85056502D01*
X59461913Y-85076457D01*
X59456600Y-85077881D01*
X59456598Y-85077881D01*
X59246067Y-85134293D01*
X59246065Y-85134294D01*
X59240757Y-85135716D01*
X59235776Y-85138039D01*
X59235775Y-85138039D01*
X59038238Y-85230151D01*
X59038233Y-85230154D01*
X59033251Y-85232477D01*
X58928389Y-85305902D01*
X58850211Y-85360643D01*
X58850208Y-85360645D01*
X58845700Y-85363802D01*
X58683802Y-85525700D01*
X58552477Y-85713251D01*
X58550154Y-85718233D01*
X58550151Y-85718238D01*
X58534195Y-85752457D01*
X58487278Y-85805742D01*
X58419001Y-85825203D01*
X58351041Y-85804661D01*
X58305805Y-85752457D01*
X58289849Y-85718238D01*
X58289846Y-85718233D01*
X58287523Y-85713251D01*
X58156198Y-85525700D01*
X57994300Y-85363802D01*
X57989792Y-85360645D01*
X57989789Y-85360643D01*
X57911611Y-85305902D01*
X57806749Y-85232477D01*
X57801767Y-85230154D01*
X57801762Y-85230151D01*
X57604225Y-85138039D01*
X57604224Y-85138039D01*
X57599243Y-85135716D01*
X57593935Y-85134294D01*
X57593933Y-85134293D01*
X57383402Y-85077881D01*
X57383400Y-85077881D01*
X57378087Y-85076457D01*
X57150000Y-85056502D01*
X56921913Y-85076457D01*
X56916600Y-85077881D01*
X56916598Y-85077881D01*
X56706067Y-85134293D01*
X56706065Y-85134294D01*
X56700757Y-85135716D01*
X56695776Y-85138039D01*
X56695775Y-85138039D01*
X56498238Y-85230151D01*
X56498233Y-85230154D01*
X56493251Y-85232477D01*
X56388389Y-85305902D01*
X56310211Y-85360643D01*
X56310208Y-85360645D01*
X56305700Y-85363802D01*
X56143802Y-85525700D01*
X56012477Y-85713251D01*
X56010154Y-85718233D01*
X56010151Y-85718238D01*
X56010034Y-85718489D01*
X55915716Y-85920757D01*
X55856457Y-86141913D01*
X55836502Y-86370000D01*
X51508500Y-86370000D01*
X51508500Y-79556062D01*
X65318493Y-79556062D01*
X65327789Y-79568077D01*
X65378994Y-79603931D01*
X65388489Y-79609414D01*
X65585947Y-79701490D01*
X65596239Y-79705236D01*
X65806688Y-79761625D01*
X65817481Y-79763528D01*
X66034525Y-79782517D01*
X66045475Y-79782517D01*
X66262519Y-79763528D01*
X66273312Y-79761625D01*
X66483761Y-79705236D01*
X66494053Y-79701490D01*
X66691511Y-79609414D01*
X66701006Y-79603931D01*
X66753048Y-79567491D01*
X66761424Y-79557012D01*
X66754356Y-79543566D01*
X66052812Y-78842022D01*
X66038868Y-78834408D01*
X66037035Y-78834539D01*
X66030420Y-78838790D01*
X65324923Y-79544287D01*
X65318493Y-79556062D01*
X51508500Y-79556062D01*
X51508500Y-78475475D01*
X64727483Y-78475475D01*
X64746472Y-78692519D01*
X64748375Y-78703312D01*
X64804764Y-78913761D01*
X64808510Y-78924053D01*
X64900586Y-79121511D01*
X64906069Y-79131006D01*
X64942509Y-79183048D01*
X64952988Y-79191424D01*
X64966434Y-79184356D01*
X65667978Y-78482812D01*
X65674356Y-78471132D01*
X66404408Y-78471132D01*
X66404539Y-78472965D01*
X66408790Y-78479580D01*
X67114287Y-79185077D01*
X67126062Y-79191507D01*
X67138077Y-79182211D01*
X67173931Y-79131006D01*
X67179414Y-79121511D01*
X67271490Y-78924053D01*
X67275236Y-78913761D01*
X67331625Y-78703312D01*
X67333528Y-78692519D01*
X67352517Y-78475475D01*
X67352517Y-78464525D01*
X67333528Y-78247481D01*
X67331625Y-78236688D01*
X67275236Y-78026239D01*
X67271490Y-78015947D01*
X67179414Y-77818489D01*
X67173931Y-77808994D01*
X67137491Y-77756952D01*
X67127012Y-77748576D01*
X67113566Y-77755644D01*
X66412022Y-78457188D01*
X66404408Y-78471132D01*
X65674356Y-78471132D01*
X65675592Y-78468868D01*
X65675461Y-78467035D01*
X65671210Y-78460420D01*
X64965713Y-77754923D01*
X64953938Y-77748493D01*
X64941923Y-77757789D01*
X64906069Y-77808994D01*
X64900586Y-77818489D01*
X64808510Y-78015947D01*
X64804764Y-78026239D01*
X64748375Y-78236688D01*
X64746472Y-78247481D01*
X64727483Y-78464525D01*
X64727483Y-78475475D01*
X51508500Y-78475475D01*
X51508500Y-77382988D01*
X65318576Y-77382988D01*
X65325644Y-77396434D01*
X66027188Y-78097978D01*
X66041132Y-78105592D01*
X66042965Y-78105461D01*
X66049580Y-78101210D01*
X66755077Y-77395713D01*
X66761507Y-77383938D01*
X66752211Y-77371923D01*
X66701006Y-77336069D01*
X66691511Y-77330586D01*
X66494053Y-77238510D01*
X66483761Y-77234764D01*
X66273312Y-77178375D01*
X66262519Y-77176472D01*
X66045475Y-77157483D01*
X66034525Y-77157483D01*
X65817481Y-77176472D01*
X65806688Y-77178375D01*
X65596239Y-77234764D01*
X65585947Y-77238510D01*
X65388489Y-77330586D01*
X65378994Y-77336069D01*
X65326952Y-77372509D01*
X65318576Y-77382988D01*
X51508500Y-77382988D01*
X51508500Y-76678134D01*
X53246500Y-76678134D01*
X53253255Y-76740316D01*
X53304385Y-76876705D01*
X53391739Y-76993261D01*
X53508295Y-77080615D01*
X53644684Y-77131745D01*
X53706866Y-77138500D01*
X55503134Y-77138500D01*
X55565316Y-77131745D01*
X55701705Y-77080615D01*
X55818261Y-76993261D01*
X55905615Y-76876705D01*
X55925451Y-76823792D01*
X55949798Y-76758848D01*
X55992440Y-76702084D01*
X56059001Y-76677384D01*
X56128350Y-76692592D01*
X56163017Y-76720580D01*
X56188218Y-76749673D01*
X56195580Y-76756883D01*
X56359434Y-76892916D01*
X56367881Y-76898831D01*
X56551756Y-77006279D01*
X56561042Y-77010729D01*
X56760001Y-77086703D01*
X56769899Y-77089579D01*
X56873250Y-77110606D01*
X56887299Y-77109410D01*
X56891000Y-77099065D01*
X56891000Y-77098517D01*
X57399000Y-77098517D01*
X57403064Y-77112359D01*
X57416478Y-77114393D01*
X57423184Y-77113534D01*
X57433262Y-77111392D01*
X57637255Y-77050191D01*
X57646842Y-77046433D01*
X57725020Y-77008134D01*
X70929000Y-77008134D01*
X70935755Y-77070316D01*
X70986885Y-77206705D01*
X71074239Y-77323261D01*
X71190795Y-77410615D01*
X71327184Y-77461745D01*
X71389366Y-77468500D01*
X73390634Y-77468500D01*
X73452816Y-77461745D01*
X73589205Y-77410615D01*
X73705761Y-77323261D01*
X73793115Y-77206705D01*
X73800758Y-77186317D01*
X73843401Y-77129553D01*
X73909962Y-77104854D01*
X73979311Y-77120062D01*
X73996832Y-77131666D01*
X74114944Y-77224945D01*
X74123531Y-77230650D01*
X74324722Y-77341714D01*
X74334134Y-77345944D01*
X74550768Y-77422659D01*
X74560739Y-77425293D01*
X74658163Y-77442647D01*
X74671460Y-77441187D01*
X74675543Y-77428096D01*
X75184000Y-77428096D01*
X75187918Y-77441440D01*
X75202194Y-77443427D01*
X75264515Y-77433890D01*
X75274543Y-77431501D01*
X75492988Y-77360102D01*
X75502497Y-77356105D01*
X75706344Y-77249989D01*
X75715069Y-77244495D01*
X75898852Y-77106507D01*
X75906559Y-77099664D01*
X76065339Y-76933509D01*
X76071823Y-76925502D01*
X76094237Y-76892644D01*
X76149148Y-76847641D01*
X76219672Y-76839468D01*
X76283420Y-76870722D01*
X76304116Y-76895204D01*
X76308498Y-76901977D01*
X76470186Y-77079670D01*
X76532612Y-77128971D01*
X76642461Y-77215724D01*
X76655398Y-77225941D01*
X76658724Y-77228568D01*
X76658182Y-77229254D01*
X76700895Y-77280089D01*
X76711500Y-77330684D01*
X76711500Y-78402930D01*
X76710067Y-78421880D01*
X76706801Y-78443349D01*
X76707394Y-78450641D01*
X76707394Y-78450644D01*
X76711085Y-78496018D01*
X76711500Y-78506233D01*
X76711500Y-78514293D01*
X76711925Y-78517937D01*
X76714789Y-78542507D01*
X76715222Y-78546882D01*
X76721140Y-78619637D01*
X76723396Y-78626601D01*
X76724587Y-78632560D01*
X76725971Y-78638415D01*
X76726818Y-78645681D01*
X76751735Y-78714327D01*
X76753152Y-78718455D01*
X76775649Y-78787899D01*
X76779445Y-78794154D01*
X76781951Y-78799628D01*
X76784670Y-78805058D01*
X76787167Y-78811937D01*
X76791180Y-78818057D01*
X76791180Y-78818058D01*
X76827186Y-78872976D01*
X76829523Y-78876680D01*
X76867405Y-78939107D01*
X76871121Y-78943315D01*
X76871122Y-78943316D01*
X76874803Y-78947484D01*
X76874776Y-78947508D01*
X76877429Y-78950500D01*
X76880132Y-78953733D01*
X76884144Y-78959852D01*
X76889456Y-78964884D01*
X76940383Y-79013128D01*
X76942825Y-79015506D01*
X81416230Y-83488911D01*
X81428616Y-83503323D01*
X81437149Y-83514918D01*
X81437154Y-83514923D01*
X81441492Y-83520818D01*
X81447070Y-83525557D01*
X81447073Y-83525560D01*
X81481768Y-83555035D01*
X81489284Y-83561965D01*
X81494979Y-83567660D01*
X81497861Y-83569940D01*
X81517251Y-83585281D01*
X81520655Y-83588072D01*
X81570703Y-83630591D01*
X81576285Y-83635333D01*
X81582801Y-83638661D01*
X81587850Y-83642028D01*
X81592979Y-83645195D01*
X81598716Y-83649734D01*
X81664875Y-83680655D01*
X81668769Y-83682558D01*
X81733808Y-83715769D01*
X81740916Y-83717508D01*
X81746559Y-83719607D01*
X81752322Y-83721524D01*
X81758950Y-83724622D01*
X81766112Y-83726112D01*
X81766113Y-83726112D01*
X81830412Y-83739486D01*
X81834696Y-83740456D01*
X81905610Y-83757808D01*
X81911212Y-83758156D01*
X81911215Y-83758156D01*
X81916764Y-83758500D01*
X81916762Y-83758536D01*
X81920755Y-83758775D01*
X81924947Y-83759149D01*
X81932115Y-83760640D01*
X82009520Y-83758546D01*
X82012928Y-83758500D01*
X96633629Y-83758500D01*
X96701750Y-83778502D01*
X96722724Y-83795405D01*
X97204595Y-84277276D01*
X97238621Y-84339588D01*
X97241500Y-84366371D01*
X97241500Y-98633629D01*
X97221498Y-98701750D01*
X97204595Y-98722724D01*
X95112724Y-100814595D01*
X95050412Y-100848621D01*
X95023629Y-100851500D01*
X93841867Y-100851500D01*
X93773746Y-100831498D01*
X93738655Y-100797772D01*
X93716198Y-100765700D01*
X93554300Y-100603802D01*
X93549792Y-100600645D01*
X93549789Y-100600643D01*
X93471611Y-100545902D01*
X93366749Y-100472477D01*
X93361767Y-100470154D01*
X93361762Y-100470151D01*
X93164225Y-100378039D01*
X93164224Y-100378039D01*
X93159243Y-100375716D01*
X93153935Y-100374294D01*
X93153933Y-100374293D01*
X92943402Y-100317881D01*
X92943400Y-100317881D01*
X92938087Y-100316457D01*
X92710000Y-100296502D01*
X92481913Y-100316457D01*
X92476600Y-100317881D01*
X92476598Y-100317881D01*
X92266067Y-100374293D01*
X92266065Y-100374294D01*
X92260757Y-100375716D01*
X92255776Y-100378039D01*
X92255775Y-100378039D01*
X92058238Y-100470151D01*
X92058233Y-100470154D01*
X92053251Y-100472477D01*
X91948389Y-100545902D01*
X91870211Y-100600643D01*
X91870208Y-100600645D01*
X91865700Y-100603802D01*
X91703802Y-100765700D01*
X91572477Y-100953251D01*
X91570154Y-100958233D01*
X91570151Y-100958238D01*
X91553919Y-100993049D01*
X91507002Y-101046334D01*
X91438725Y-101065795D01*
X91370765Y-101045253D01*
X91325529Y-100993049D01*
X91309414Y-100958489D01*
X91303931Y-100948993D01*
X91178972Y-100770533D01*
X91171916Y-100762125D01*
X91017875Y-100608084D01*
X91009467Y-100601028D01*
X90831007Y-100476069D01*
X90821511Y-100470586D01*
X90624053Y-100378510D01*
X90613761Y-100374764D01*
X90441497Y-100328606D01*
X90427401Y-100328942D01*
X90424000Y-100336884D01*
X90424000Y-102877967D01*
X90427973Y-102891498D01*
X90436522Y-102892727D01*
X90613761Y-102845236D01*
X90624053Y-102841490D01*
X90821511Y-102749414D01*
X90831007Y-102743931D01*
X91009467Y-102618972D01*
X91017875Y-102611916D01*
X91171916Y-102457875D01*
X91178972Y-102449467D01*
X91303931Y-102271007D01*
X91309414Y-102261511D01*
X91325529Y-102226951D01*
X91372446Y-102173666D01*
X91440723Y-102154205D01*
X91508683Y-102174747D01*
X91553919Y-102226951D01*
X91570151Y-102261762D01*
X91570154Y-102261767D01*
X91572477Y-102266749D01*
X91703802Y-102454300D01*
X91865700Y-102616198D01*
X91870208Y-102619355D01*
X91870211Y-102619357D01*
X91948389Y-102674098D01*
X92053251Y-102747523D01*
X92058233Y-102749846D01*
X92058238Y-102749849D01*
X92254765Y-102841490D01*
X92260757Y-102844284D01*
X92266065Y-102845706D01*
X92266067Y-102845707D01*
X92476598Y-102902119D01*
X92476600Y-102902119D01*
X92481913Y-102903543D01*
X92710000Y-102923498D01*
X92938087Y-102903543D01*
X92943400Y-102902119D01*
X92943402Y-102902119D01*
X93153933Y-102845707D01*
X93153935Y-102845706D01*
X93159243Y-102844284D01*
X93165235Y-102841490D01*
X93361762Y-102749849D01*
X93361767Y-102749846D01*
X93366749Y-102747523D01*
X93471611Y-102674098D01*
X93549789Y-102619357D01*
X93549792Y-102619355D01*
X93554300Y-102616198D01*
X93716198Y-102454300D01*
X93738655Y-102422229D01*
X93794110Y-102377901D01*
X93841867Y-102368500D01*
X95322930Y-102368500D01*
X95341880Y-102369933D01*
X95356115Y-102372099D01*
X95356119Y-102372099D01*
X95363349Y-102373199D01*
X95370641Y-102372606D01*
X95370644Y-102372606D01*
X95416018Y-102368915D01*
X95426233Y-102368500D01*
X95434293Y-102368500D01*
X95447583Y-102366951D01*
X95462507Y-102365211D01*
X95466882Y-102364778D01*
X95532339Y-102359454D01*
X95532342Y-102359453D01*
X95539637Y-102358860D01*
X95546601Y-102356604D01*
X95552560Y-102355413D01*
X95558415Y-102354029D01*
X95565681Y-102353182D01*
X95634327Y-102328265D01*
X95638455Y-102326848D01*
X95700936Y-102306607D01*
X95700938Y-102306606D01*
X95707899Y-102304351D01*
X95714154Y-102300555D01*
X95719628Y-102298049D01*
X95725058Y-102295330D01*
X95731937Y-102292833D01*
X95765227Y-102271007D01*
X95792976Y-102252814D01*
X95796680Y-102250477D01*
X95859107Y-102212595D01*
X95867484Y-102205197D01*
X95867508Y-102205224D01*
X95870500Y-102202571D01*
X95873733Y-102199868D01*
X95879852Y-102195856D01*
X95933128Y-102139617D01*
X95935506Y-102137175D01*
X98488911Y-99583770D01*
X98503323Y-99571384D01*
X98514918Y-99562851D01*
X98514923Y-99562846D01*
X98520818Y-99558508D01*
X98525557Y-99552930D01*
X98525560Y-99552927D01*
X98555035Y-99518232D01*
X98561965Y-99510716D01*
X98567660Y-99505021D01*
X98585281Y-99482749D01*
X98588072Y-99479345D01*
X98630591Y-99429297D01*
X98630592Y-99429295D01*
X98635333Y-99423715D01*
X98638661Y-99417199D01*
X98642028Y-99412150D01*
X98645195Y-99407021D01*
X98649734Y-99401284D01*
X98680655Y-99335125D01*
X98682561Y-99331225D01*
X98715769Y-99266192D01*
X98717508Y-99259084D01*
X98719607Y-99253441D01*
X98721524Y-99247678D01*
X98724622Y-99241050D01*
X98739487Y-99169583D01*
X98740457Y-99165299D01*
X98756473Y-99099845D01*
X98757808Y-99094390D01*
X98758500Y-99083236D01*
X98758536Y-99083238D01*
X98758775Y-99079245D01*
X98759149Y-99075053D01*
X98760640Y-99067885D01*
X98758546Y-98990479D01*
X98758500Y-98987072D01*
X98758500Y-84067070D01*
X98759933Y-84048120D01*
X98762099Y-84033885D01*
X98762099Y-84033881D01*
X98763199Y-84026651D01*
X98758915Y-83973982D01*
X98758500Y-83963767D01*
X98758500Y-83955707D01*
X98755209Y-83927480D01*
X98754778Y-83923121D01*
X98749454Y-83857662D01*
X98749453Y-83857659D01*
X98748860Y-83850364D01*
X98746604Y-83843400D01*
X98745417Y-83837461D01*
X98744030Y-83831590D01*
X98743182Y-83824319D01*
X98740686Y-83817443D01*
X98740684Y-83817434D01*
X98718275Y-83755702D01*
X98716865Y-83751598D01*
X98694352Y-83682101D01*
X98690556Y-83675846D01*
X98688057Y-83670387D01*
X98685329Y-83664939D01*
X98682833Y-83658063D01*
X98642805Y-83597010D01*
X98640481Y-83593327D01*
X98636430Y-83586650D01*
X98602595Y-83530893D01*
X98597886Y-83525560D01*
X98595198Y-83522517D01*
X98595225Y-83522493D01*
X98592570Y-83519499D01*
X98589868Y-83516268D01*
X98585856Y-83510148D01*
X98529617Y-83456872D01*
X98527175Y-83454494D01*
X97583770Y-82511089D01*
X97571384Y-82496677D01*
X97562851Y-82485082D01*
X97562846Y-82485077D01*
X97558508Y-82479182D01*
X97552930Y-82474443D01*
X97552927Y-82474440D01*
X97518232Y-82444965D01*
X97510716Y-82438035D01*
X97505021Y-82432340D01*
X97498880Y-82427482D01*
X97482749Y-82414719D01*
X97479345Y-82411928D01*
X97429297Y-82369409D01*
X97429295Y-82369408D01*
X97423715Y-82364667D01*
X97417199Y-82361339D01*
X97412150Y-82357972D01*
X97407021Y-82354805D01*
X97401284Y-82350266D01*
X97335125Y-82319345D01*
X97331225Y-82317439D01*
X97266192Y-82284231D01*
X97259084Y-82282492D01*
X97253441Y-82280393D01*
X97247678Y-82278476D01*
X97241050Y-82275378D01*
X97169583Y-82260513D01*
X97165299Y-82259543D01*
X97094390Y-82242192D01*
X97088788Y-82241844D01*
X97088785Y-82241844D01*
X97083236Y-82241500D01*
X97083238Y-82241464D01*
X97079245Y-82241225D01*
X97075053Y-82240851D01*
X97067885Y-82239360D01*
X97001675Y-82241151D01*
X96990479Y-82241454D01*
X96987072Y-82241500D01*
X82366371Y-82241500D01*
X82298250Y-82221498D01*
X82277276Y-82204595D01*
X79628743Y-79556062D01*
X83098493Y-79556062D01*
X83107789Y-79568077D01*
X83158994Y-79603931D01*
X83168489Y-79609414D01*
X83365947Y-79701490D01*
X83376239Y-79705236D01*
X83586688Y-79761625D01*
X83597481Y-79763528D01*
X83814525Y-79782517D01*
X83825475Y-79782517D01*
X84042519Y-79763528D01*
X84053312Y-79761625D01*
X84263761Y-79705236D01*
X84274053Y-79701490D01*
X84471511Y-79609414D01*
X84481006Y-79603931D01*
X84533048Y-79567491D01*
X84541424Y-79557012D01*
X84534356Y-79543566D01*
X83832812Y-78842022D01*
X83818868Y-78834408D01*
X83817035Y-78834539D01*
X83810420Y-78838790D01*
X83104923Y-79544287D01*
X83098493Y-79556062D01*
X79628743Y-79556062D01*
X78548156Y-78475475D01*
X82507483Y-78475475D01*
X82526472Y-78692519D01*
X82528375Y-78703312D01*
X82584764Y-78913761D01*
X82588510Y-78924053D01*
X82680586Y-79121511D01*
X82686069Y-79131006D01*
X82722509Y-79183048D01*
X82732988Y-79191424D01*
X82746434Y-79184356D01*
X83447978Y-78482812D01*
X83454356Y-78471132D01*
X84184408Y-78471132D01*
X84184539Y-78472965D01*
X84188790Y-78479580D01*
X84894287Y-79185077D01*
X84906062Y-79191507D01*
X84918077Y-79182211D01*
X84953931Y-79131006D01*
X84959414Y-79121511D01*
X85051490Y-78924053D01*
X85055236Y-78913761D01*
X85111625Y-78703312D01*
X85113528Y-78692519D01*
X85132517Y-78475475D01*
X85132517Y-78464525D01*
X85113528Y-78247481D01*
X85111625Y-78236688D01*
X85055236Y-78026239D01*
X85051490Y-78015947D01*
X84959414Y-77818489D01*
X84953931Y-77808994D01*
X84917491Y-77756952D01*
X84907012Y-77748576D01*
X84893566Y-77755644D01*
X84192022Y-78457188D01*
X84184408Y-78471132D01*
X83454356Y-78471132D01*
X83455592Y-78468868D01*
X83455461Y-78467035D01*
X83451210Y-78460420D01*
X82745713Y-77754923D01*
X82733938Y-77748493D01*
X82721923Y-77757789D01*
X82686069Y-77808994D01*
X82680586Y-77818489D01*
X82588510Y-78015947D01*
X82584764Y-78026239D01*
X82528375Y-78236688D01*
X82526472Y-78247481D01*
X82507483Y-78464525D01*
X82507483Y-78475475D01*
X78548156Y-78475475D01*
X78265405Y-78192724D01*
X78231379Y-78130412D01*
X78228500Y-78103629D01*
X78228500Y-77382988D01*
X83098576Y-77382988D01*
X83105644Y-77396434D01*
X83807188Y-78097978D01*
X83821132Y-78105592D01*
X83822965Y-78105461D01*
X83829580Y-78101210D01*
X84535077Y-77395713D01*
X84541507Y-77383938D01*
X84532211Y-77371923D01*
X84481006Y-77336069D01*
X84471511Y-77330586D01*
X84274053Y-77238510D01*
X84263761Y-77234764D01*
X84053312Y-77178375D01*
X84042519Y-77176472D01*
X83825475Y-77157483D01*
X83814525Y-77157483D01*
X83597481Y-77176472D01*
X83586688Y-77178375D01*
X83376239Y-77234764D01*
X83365947Y-77238510D01*
X83168489Y-77330586D01*
X83158994Y-77336069D01*
X83106952Y-77372509D01*
X83098576Y-77382988D01*
X78228500Y-77382988D01*
X78228500Y-77328027D01*
X78248502Y-77259906D01*
X78278847Y-77227267D01*
X78439185Y-77106882D01*
X78439188Y-77106880D01*
X78443320Y-77103777D01*
X78609301Y-76930088D01*
X78744686Y-76731622D01*
X78753759Y-76712077D01*
X78843658Y-76518405D01*
X78843659Y-76518401D01*
X78845837Y-76513710D01*
X78910040Y-76282202D01*
X78931000Y-76086072D01*
X78931000Y-75976695D01*
X90077251Y-75976695D01*
X90077548Y-75981848D01*
X90077548Y-75981851D01*
X90083750Y-76089407D01*
X90090110Y-76199715D01*
X90091247Y-76204761D01*
X90091248Y-76204767D01*
X90109822Y-76287185D01*
X90139222Y-76417639D01*
X90223266Y-76624616D01*
X90339987Y-76815088D01*
X90486250Y-76983938D01*
X90658126Y-77126632D01*
X90851000Y-77239338D01*
X91059692Y-77319030D01*
X91064760Y-77320061D01*
X91064763Y-77320062D01*
X91171187Y-77341714D01*
X91278597Y-77363567D01*
X91283772Y-77363757D01*
X91283774Y-77363757D01*
X91496673Y-77371564D01*
X91496677Y-77371564D01*
X91501837Y-77371753D01*
X91506957Y-77371097D01*
X91506959Y-77371097D01*
X91718288Y-77344025D01*
X91718289Y-77344025D01*
X91723416Y-77343368D01*
X91765694Y-77330684D01*
X91932429Y-77280661D01*
X91932434Y-77280659D01*
X91937384Y-77279174D01*
X92137994Y-77180896D01*
X92319860Y-77051173D01*
X92387331Y-76983938D01*
X92428479Y-76942933D01*
X92490851Y-76909017D01*
X92561658Y-76914205D01*
X92618419Y-76956851D01*
X92635401Y-76987954D01*
X92676676Y-77098054D01*
X92685214Y-77113649D01*
X92761715Y-77215724D01*
X92774276Y-77228285D01*
X92876351Y-77304786D01*
X92891946Y-77313324D01*
X93012394Y-77358478D01*
X93027649Y-77362105D01*
X93078514Y-77367631D01*
X93085328Y-77368000D01*
X93707885Y-77368000D01*
X93723124Y-77363525D01*
X93724329Y-77362135D01*
X93726000Y-77354452D01*
X93726000Y-77349884D01*
X94234000Y-77349884D01*
X94238475Y-77365123D01*
X94239865Y-77366328D01*
X94247548Y-77367999D01*
X94874669Y-77367999D01*
X94881490Y-77367629D01*
X94932352Y-77362105D01*
X94947604Y-77358479D01*
X95068054Y-77313324D01*
X95083649Y-77304786D01*
X95185724Y-77228285D01*
X95198285Y-77215724D01*
X95274786Y-77113649D01*
X95283324Y-77098054D01*
X95328478Y-76977606D01*
X95332105Y-76962351D01*
X95337631Y-76911486D01*
X95338000Y-76904672D01*
X95338000Y-76282115D01*
X95333525Y-76266876D01*
X95332135Y-76265671D01*
X95324452Y-76264000D01*
X94252115Y-76264000D01*
X94236876Y-76268475D01*
X94235671Y-76269865D01*
X94234000Y-76277548D01*
X94234000Y-77349884D01*
X93726000Y-77349884D01*
X93726000Y-75737885D01*
X94234000Y-75737885D01*
X94238475Y-75753124D01*
X94239865Y-75754329D01*
X94247548Y-75756000D01*
X95319884Y-75756000D01*
X95335123Y-75751525D01*
X95336328Y-75750135D01*
X95337999Y-75742452D01*
X95337999Y-75115331D01*
X95337629Y-75108510D01*
X95332105Y-75057648D01*
X95328479Y-75042396D01*
X95283324Y-74921946D01*
X95274786Y-74906351D01*
X95198285Y-74804276D01*
X95185724Y-74791715D01*
X95083649Y-74715214D01*
X95068054Y-74706676D01*
X94947606Y-74661522D01*
X94932351Y-74657895D01*
X94881486Y-74652369D01*
X94874672Y-74652000D01*
X94252115Y-74652000D01*
X94236876Y-74656475D01*
X94235671Y-74657865D01*
X94234000Y-74665548D01*
X94234000Y-75737885D01*
X93726000Y-75737885D01*
X93726000Y-74670116D01*
X93721525Y-74654877D01*
X93720135Y-74653672D01*
X93712452Y-74652001D01*
X93085331Y-74652001D01*
X93078510Y-74652371D01*
X93027648Y-74657895D01*
X93012396Y-74661521D01*
X92891946Y-74706676D01*
X92876351Y-74715214D01*
X92774276Y-74791715D01*
X92761715Y-74804276D01*
X92685214Y-74906351D01*
X92676676Y-74921946D01*
X92635297Y-75032322D01*
X92592655Y-75089087D01*
X92526093Y-75113786D01*
X92456744Y-75098578D01*
X92424121Y-75072891D01*
X92373151Y-75016876D01*
X92373148Y-75016873D01*
X92369670Y-75013051D01*
X92365619Y-75009852D01*
X92365615Y-75009848D01*
X92198414Y-74877800D01*
X92198410Y-74877798D01*
X92194359Y-74874598D01*
X92163459Y-74857540D01*
X92139873Y-74844520D01*
X91998789Y-74766638D01*
X91993920Y-74764914D01*
X91993916Y-74764912D01*
X91793087Y-74693795D01*
X91793083Y-74693794D01*
X91788212Y-74692069D01*
X91783119Y-74691162D01*
X91783116Y-74691161D01*
X91573373Y-74653800D01*
X91573367Y-74653799D01*
X91568284Y-74652894D01*
X91494452Y-74651992D01*
X91350081Y-74650228D01*
X91350079Y-74650228D01*
X91344911Y-74650165D01*
X91124091Y-74683955D01*
X90911756Y-74753357D01*
X90881443Y-74769137D01*
X90750131Y-74837494D01*
X90713607Y-74856507D01*
X90709474Y-74859610D01*
X90709471Y-74859612D01*
X90540905Y-74986175D01*
X90534965Y-74990635D01*
X90380629Y-75152138D01*
X90254743Y-75336680D01*
X90222431Y-75406290D01*
X90167640Y-75524329D01*
X90160688Y-75539305D01*
X90100989Y-75754570D01*
X90077251Y-75976695D01*
X78931000Y-75976695D01*
X78931000Y-75851598D01*
X78929548Y-75833928D01*
X78916746Y-75678224D01*
X78916322Y-75673063D01*
X78857794Y-75440056D01*
X78761997Y-75219737D01*
X78647270Y-75042396D01*
X78634310Y-75022363D01*
X78634308Y-75022360D01*
X78631502Y-75018023D01*
X78469814Y-74840330D01*
X78374318Y-74764912D01*
X78285330Y-74694633D01*
X78285325Y-74694630D01*
X78281276Y-74691432D01*
X78276760Y-74688939D01*
X78276757Y-74688937D01*
X78075474Y-74577823D01*
X78075470Y-74577821D01*
X78070950Y-74575326D01*
X78066081Y-74573602D01*
X78066077Y-74573600D01*
X77849360Y-74496856D01*
X77849356Y-74496855D01*
X77844485Y-74495130D01*
X77839392Y-74494223D01*
X77839389Y-74494222D01*
X77613052Y-74453905D01*
X77613046Y-74453904D01*
X77607963Y-74452999D01*
X77515474Y-74451869D01*
X77372907Y-74450127D01*
X77372905Y-74450127D01*
X77367737Y-74450064D01*
X77130256Y-74486404D01*
X77020700Y-74522212D01*
X76906817Y-74559434D01*
X76906811Y-74559437D01*
X76901899Y-74561042D01*
X76897313Y-74563429D01*
X76897309Y-74563431D01*
X76721645Y-74654877D01*
X76688800Y-74671975D01*
X76684657Y-74675085D01*
X76684658Y-74675085D01*
X76501925Y-74812285D01*
X76496680Y-74816223D01*
X76330699Y-74989912D01*
X76305160Y-75027351D01*
X76250249Y-75072352D01*
X76179725Y-75080523D01*
X76115978Y-75049269D01*
X76095284Y-75024790D01*
X76093915Y-75022674D01*
X76087622Y-75014502D01*
X75932950Y-74844520D01*
X75925417Y-74837494D01*
X75745056Y-74695055D01*
X75736469Y-74689350D01*
X75535278Y-74578286D01*
X75525866Y-74574056D01*
X75309232Y-74497341D01*
X75299261Y-74494707D01*
X75201837Y-74477353D01*
X75188540Y-74478813D01*
X75184000Y-74493370D01*
X75184000Y-77428096D01*
X74675543Y-77428096D01*
X74676000Y-77426630D01*
X74676000Y-74491904D01*
X74672082Y-74478560D01*
X74657806Y-74476573D01*
X74595485Y-74486110D01*
X74585457Y-74488499D01*
X74367012Y-74559898D01*
X74357503Y-74563895D01*
X74153656Y-74670011D01*
X74144939Y-74675500D01*
X73993901Y-74788902D01*
X73927416Y-74813807D01*
X73858020Y-74798814D01*
X73807747Y-74748684D01*
X73800268Y-74732375D01*
X73793115Y-74713295D01*
X73705761Y-74596739D01*
X73589205Y-74509385D01*
X73452816Y-74458255D01*
X73390634Y-74451500D01*
X71389366Y-74451500D01*
X71327184Y-74458255D01*
X71190795Y-74509385D01*
X71074239Y-74596739D01*
X70986885Y-74713295D01*
X70935755Y-74849684D01*
X70929000Y-74911866D01*
X70929000Y-77008134D01*
X57725020Y-77008134D01*
X57838095Y-76952739D01*
X57846945Y-76947464D01*
X58020328Y-76823792D01*
X58028200Y-76817139D01*
X58179052Y-76666812D01*
X58185730Y-76658965D01*
X58310003Y-76486020D01*
X58315313Y-76477183D01*
X58409670Y-76286267D01*
X58413469Y-76276672D01*
X58475377Y-76072910D01*
X58477555Y-76062837D01*
X58478986Y-76051962D01*
X58476775Y-76037778D01*
X58463617Y-76034000D01*
X57417115Y-76034000D01*
X57401876Y-76038475D01*
X57400671Y-76039865D01*
X57399000Y-76047548D01*
X57399000Y-77098517D01*
X56891000Y-77098517D01*
X56891000Y-75507885D01*
X57399000Y-75507885D01*
X57403475Y-75523124D01*
X57404865Y-75524329D01*
X57412548Y-75526000D01*
X58463344Y-75526000D01*
X58476875Y-75522027D01*
X58478180Y-75512947D01*
X58436214Y-75345875D01*
X58432894Y-75336124D01*
X58347972Y-75140814D01*
X58343105Y-75131739D01*
X58227426Y-74952926D01*
X58221136Y-74944757D01*
X58077806Y-74787240D01*
X58070273Y-74780215D01*
X57903139Y-74648222D01*
X57894552Y-74642517D01*
X57708117Y-74539599D01*
X57698705Y-74535369D01*
X57497959Y-74464280D01*
X57487988Y-74461646D01*
X57416837Y-74448972D01*
X57403540Y-74450432D01*
X57399000Y-74464989D01*
X57399000Y-75507885D01*
X56891000Y-75507885D01*
X56891000Y-74463102D01*
X56887082Y-74449758D01*
X56872806Y-74447771D01*
X56834324Y-74453660D01*
X56824288Y-74456051D01*
X56621868Y-74522212D01*
X56612359Y-74526209D01*
X56423463Y-74624542D01*
X56414738Y-74630036D01*
X56244433Y-74757905D01*
X56236726Y-74764748D01*
X56159478Y-74845584D01*
X56097954Y-74881014D01*
X56027042Y-74877557D01*
X55969255Y-74836311D01*
X55950402Y-74802763D01*
X55908767Y-74691703D01*
X55905615Y-74683295D01*
X55818261Y-74566739D01*
X55701705Y-74479385D01*
X55565316Y-74428255D01*
X55503134Y-74421500D01*
X53706866Y-74421500D01*
X53644684Y-74428255D01*
X53508295Y-74479385D01*
X53391739Y-74566739D01*
X53304385Y-74683295D01*
X53253255Y-74819684D01*
X53246500Y-74881866D01*
X53246500Y-76678134D01*
X51508500Y-76678134D01*
X51508500Y-73470000D01*
X64726502Y-73470000D01*
X64746457Y-73698087D01*
X64805716Y-73919243D01*
X64808039Y-73924224D01*
X64808039Y-73924225D01*
X64900151Y-74121762D01*
X64900154Y-74121767D01*
X64902477Y-74126749D01*
X65033802Y-74314300D01*
X65195700Y-74476198D01*
X65200208Y-74479355D01*
X65200211Y-74479357D01*
X65225895Y-74497341D01*
X65383251Y-74607523D01*
X65388233Y-74609846D01*
X65388238Y-74609849D01*
X65568263Y-74693795D01*
X65590757Y-74704284D01*
X65596065Y-74705706D01*
X65596067Y-74705707D01*
X65806598Y-74762119D01*
X65806600Y-74762119D01*
X65811913Y-74763543D01*
X66040000Y-74783498D01*
X66268087Y-74763543D01*
X66273400Y-74762119D01*
X66273402Y-74762119D01*
X66483933Y-74705707D01*
X66483935Y-74705706D01*
X66489243Y-74704284D01*
X66511737Y-74693795D01*
X66691762Y-74609849D01*
X66691767Y-74609846D01*
X66696749Y-74607523D01*
X66854105Y-74497341D01*
X66879789Y-74479357D01*
X66879792Y-74479355D01*
X66884300Y-74476198D01*
X67046198Y-74314300D01*
X67177523Y-74126749D01*
X67179846Y-74121767D01*
X67179849Y-74121762D01*
X67271961Y-73924225D01*
X67271961Y-73924224D01*
X67274284Y-73919243D01*
X67333543Y-73698087D01*
X67353498Y-73470000D01*
X82506502Y-73470000D01*
X82526457Y-73698087D01*
X82585716Y-73919243D01*
X82588039Y-73924224D01*
X82588039Y-73924225D01*
X82680151Y-74121762D01*
X82680154Y-74121767D01*
X82682477Y-74126749D01*
X82813802Y-74314300D01*
X82975700Y-74476198D01*
X82980208Y-74479355D01*
X82980211Y-74479357D01*
X83005895Y-74497341D01*
X83163251Y-74607523D01*
X83168233Y-74609846D01*
X83168238Y-74609849D01*
X83348263Y-74693795D01*
X83370757Y-74704284D01*
X83376065Y-74705706D01*
X83376067Y-74705707D01*
X83586598Y-74762119D01*
X83586600Y-74762119D01*
X83591913Y-74763543D01*
X83820000Y-74783498D01*
X84048087Y-74763543D01*
X84053400Y-74762119D01*
X84053402Y-74762119D01*
X84263933Y-74705707D01*
X84263935Y-74705706D01*
X84269243Y-74704284D01*
X84291737Y-74693795D01*
X84471762Y-74609849D01*
X84471767Y-74609846D01*
X84476749Y-74607523D01*
X84634105Y-74497341D01*
X84659789Y-74479357D01*
X84659792Y-74479355D01*
X84664300Y-74476198D01*
X84826198Y-74314300D01*
X84957523Y-74126749D01*
X84959846Y-74121767D01*
X84959849Y-74121762D01*
X85051961Y-73924225D01*
X85051961Y-73924224D01*
X85054284Y-73919243D01*
X85113543Y-73698087D01*
X85133498Y-73470000D01*
X85113543Y-73241913D01*
X85054284Y-73020757D01*
X85051961Y-73015775D01*
X84959849Y-72818238D01*
X84959846Y-72818233D01*
X84957523Y-72813251D01*
X84826198Y-72625700D01*
X84664300Y-72463802D01*
X84659792Y-72460645D01*
X84659789Y-72460643D01*
X84581611Y-72405902D01*
X84476749Y-72332477D01*
X84471767Y-72330154D01*
X84471762Y-72330151D01*
X84274225Y-72238039D01*
X84274224Y-72238039D01*
X84269243Y-72235716D01*
X84263935Y-72234294D01*
X84263933Y-72234293D01*
X84053402Y-72177881D01*
X84053400Y-72177881D01*
X84048087Y-72176457D01*
X83820000Y-72156502D01*
X83591913Y-72176457D01*
X83586600Y-72177881D01*
X83586598Y-72177881D01*
X83376067Y-72234293D01*
X83376065Y-72234294D01*
X83370757Y-72235716D01*
X83365776Y-72238039D01*
X83365775Y-72238039D01*
X83168238Y-72330151D01*
X83168233Y-72330154D01*
X83163251Y-72332477D01*
X83058389Y-72405902D01*
X82980211Y-72460643D01*
X82980208Y-72460645D01*
X82975700Y-72463802D01*
X82813802Y-72625700D01*
X82682477Y-72813251D01*
X82680154Y-72818233D01*
X82680151Y-72818238D01*
X82588039Y-73015775D01*
X82585716Y-73020757D01*
X82526457Y-73241913D01*
X82506502Y-73470000D01*
X67353498Y-73470000D01*
X67333543Y-73241913D01*
X67274284Y-73020757D01*
X67271961Y-73015775D01*
X67179849Y-72818238D01*
X67179846Y-72818233D01*
X67177523Y-72813251D01*
X67046198Y-72625700D01*
X66884300Y-72463802D01*
X66879792Y-72460645D01*
X66879789Y-72460643D01*
X66801611Y-72405902D01*
X66696749Y-72332477D01*
X66691767Y-72330154D01*
X66691762Y-72330151D01*
X66494225Y-72238039D01*
X66494224Y-72238039D01*
X66489243Y-72235716D01*
X66483935Y-72234294D01*
X66483933Y-72234293D01*
X66273402Y-72177881D01*
X66273400Y-72177881D01*
X66268087Y-72176457D01*
X66040000Y-72156502D01*
X65811913Y-72176457D01*
X65806600Y-72177881D01*
X65806598Y-72177881D01*
X65596067Y-72234293D01*
X65596065Y-72234294D01*
X65590757Y-72235716D01*
X65585776Y-72238039D01*
X65585775Y-72238039D01*
X65388238Y-72330151D01*
X65388233Y-72330154D01*
X65383251Y-72332477D01*
X65278389Y-72405902D01*
X65200211Y-72460643D01*
X65200208Y-72460645D01*
X65195700Y-72463802D01*
X65033802Y-72625700D01*
X64902477Y-72813251D01*
X64900154Y-72818233D01*
X64900151Y-72818238D01*
X64808039Y-73015775D01*
X64805716Y-73020757D01*
X64746457Y-73241913D01*
X64726502Y-73470000D01*
X51508500Y-73470000D01*
X51508500Y-69132703D01*
X86890743Y-69132703D01*
X86928268Y-69417734D01*
X87004129Y-69695036D01*
X87116923Y-69959476D01*
X87264561Y-70206161D01*
X87444313Y-70430528D01*
X87652851Y-70628423D01*
X87886317Y-70796186D01*
X87890112Y-70798195D01*
X87890113Y-70798196D01*
X87911869Y-70809715D01*
X88140392Y-70930712D01*
X88410373Y-71029511D01*
X88691264Y-71090755D01*
X88719841Y-71093004D01*
X88914282Y-71108307D01*
X88914291Y-71108307D01*
X88916739Y-71108500D01*
X89072271Y-71108500D01*
X89074407Y-71108354D01*
X89074418Y-71108354D01*
X89282548Y-71094165D01*
X89282554Y-71094164D01*
X89286825Y-71093873D01*
X89291020Y-71093004D01*
X89291022Y-71093004D01*
X89427584Y-71064723D01*
X89568342Y-71035574D01*
X89839343Y-70939607D01*
X90094812Y-70807750D01*
X90098313Y-70805289D01*
X90098317Y-70805287D01*
X90212417Y-70725096D01*
X90330023Y-70642441D01*
X90540622Y-70446740D01*
X90722713Y-70224268D01*
X90872927Y-69979142D01*
X90988483Y-69715898D01*
X91067244Y-69439406D01*
X91107751Y-69154784D01*
X91107845Y-69136951D01*
X91107867Y-69132703D01*
X94890743Y-69132703D01*
X94928268Y-69417734D01*
X95004129Y-69695036D01*
X95116923Y-69959476D01*
X95264561Y-70206161D01*
X95444313Y-70430528D01*
X95652851Y-70628423D01*
X95886317Y-70796186D01*
X95890112Y-70798195D01*
X95890113Y-70798196D01*
X95911869Y-70809715D01*
X96140392Y-70930712D01*
X96410373Y-71029511D01*
X96691264Y-71090755D01*
X96719841Y-71093004D01*
X96914282Y-71108307D01*
X96914291Y-71108307D01*
X96916739Y-71108500D01*
X97072271Y-71108500D01*
X97074407Y-71108354D01*
X97074418Y-71108354D01*
X97282548Y-71094165D01*
X97282554Y-71094164D01*
X97286825Y-71093873D01*
X97291020Y-71093004D01*
X97291022Y-71093004D01*
X97427584Y-71064723D01*
X97568342Y-71035574D01*
X97839343Y-70939607D01*
X98094812Y-70807750D01*
X98098313Y-70805289D01*
X98098317Y-70805287D01*
X98212417Y-70725096D01*
X98330023Y-70642441D01*
X98540622Y-70446740D01*
X98722713Y-70224268D01*
X98872927Y-69979142D01*
X98988483Y-69715898D01*
X99067244Y-69439406D01*
X99107751Y-69154784D01*
X99107845Y-69136951D01*
X99107867Y-69132703D01*
X104490743Y-69132703D01*
X104528268Y-69417734D01*
X104604129Y-69695036D01*
X104716923Y-69959476D01*
X104864561Y-70206161D01*
X105044313Y-70430528D01*
X105252851Y-70628423D01*
X105486317Y-70796186D01*
X105490112Y-70798195D01*
X105490113Y-70798196D01*
X105511869Y-70809715D01*
X105740392Y-70930712D01*
X106010373Y-71029511D01*
X106291264Y-71090755D01*
X106319841Y-71093004D01*
X106514282Y-71108307D01*
X106514291Y-71108307D01*
X106516739Y-71108500D01*
X106672271Y-71108500D01*
X106674407Y-71108354D01*
X106674418Y-71108354D01*
X106882548Y-71094165D01*
X106882554Y-71094164D01*
X106886825Y-71093873D01*
X106891020Y-71093004D01*
X106891022Y-71093004D01*
X107027584Y-71064723D01*
X107168342Y-71035574D01*
X107439343Y-70939607D01*
X107694812Y-70807750D01*
X107698313Y-70805289D01*
X107698317Y-70805287D01*
X107812417Y-70725096D01*
X107930023Y-70642441D01*
X108140622Y-70446740D01*
X108322713Y-70224268D01*
X108472927Y-69979142D01*
X108588483Y-69715898D01*
X108667244Y-69439406D01*
X108707751Y-69154784D01*
X108707845Y-69136951D01*
X108707867Y-69132703D01*
X140490743Y-69132703D01*
X140528268Y-69417734D01*
X140604129Y-69695036D01*
X140716923Y-69959476D01*
X140864561Y-70206161D01*
X141044313Y-70430528D01*
X141252851Y-70628423D01*
X141486317Y-70796186D01*
X141490112Y-70798195D01*
X141490113Y-70798196D01*
X141511869Y-70809715D01*
X141740392Y-70930712D01*
X142010373Y-71029511D01*
X142291264Y-71090755D01*
X142319841Y-71093004D01*
X142514282Y-71108307D01*
X142514291Y-71108307D01*
X142516739Y-71108500D01*
X142672271Y-71108500D01*
X142674407Y-71108354D01*
X142674418Y-71108354D01*
X142882548Y-71094165D01*
X142882554Y-71094164D01*
X142886825Y-71093873D01*
X142891020Y-71093004D01*
X142891022Y-71093004D01*
X143027584Y-71064723D01*
X143168342Y-71035574D01*
X143439343Y-70939607D01*
X143694812Y-70807750D01*
X143698313Y-70805289D01*
X143698317Y-70805287D01*
X143812417Y-70725096D01*
X143930023Y-70642441D01*
X144140622Y-70446740D01*
X144322713Y-70224268D01*
X144472927Y-69979142D01*
X144588483Y-69715898D01*
X144667244Y-69439406D01*
X144707751Y-69154784D01*
X144707845Y-69136951D01*
X144709235Y-68871583D01*
X144709235Y-68871576D01*
X144709257Y-68867297D01*
X144671732Y-68582266D01*
X144595871Y-68304964D01*
X144483077Y-68040524D01*
X144335439Y-67793839D01*
X144155687Y-67569472D01*
X143947149Y-67371577D01*
X143713683Y-67203814D01*
X143691843Y-67192250D01*
X143668654Y-67179972D01*
X143459608Y-67069288D01*
X143189627Y-66970489D01*
X142908736Y-66909245D01*
X142877685Y-66906801D01*
X142685718Y-66891693D01*
X142685709Y-66891693D01*
X142683261Y-66891500D01*
X142527729Y-66891500D01*
X142525593Y-66891646D01*
X142525582Y-66891646D01*
X142317452Y-66905835D01*
X142317446Y-66905836D01*
X142313175Y-66906127D01*
X142308980Y-66906996D01*
X142308978Y-66906996D01*
X142172417Y-66935276D01*
X142031658Y-66964426D01*
X141760657Y-67060393D01*
X141505188Y-67192250D01*
X141501687Y-67194711D01*
X141501683Y-67194713D01*
X141491594Y-67201804D01*
X141269977Y-67357559D01*
X141059378Y-67553260D01*
X140877287Y-67775732D01*
X140727073Y-68020858D01*
X140611517Y-68284102D01*
X140532756Y-68560594D01*
X140492249Y-68845216D01*
X140492227Y-68849505D01*
X140492226Y-68849512D01*
X140490765Y-69128417D01*
X140490743Y-69132703D01*
X108707867Y-69132703D01*
X108709235Y-68871583D01*
X108709235Y-68871576D01*
X108709257Y-68867297D01*
X108671732Y-68582266D01*
X108595871Y-68304964D01*
X108483077Y-68040524D01*
X108335439Y-67793839D01*
X108155687Y-67569472D01*
X107947149Y-67371577D01*
X107713683Y-67203814D01*
X107691843Y-67192250D01*
X107668654Y-67179972D01*
X107459608Y-67069288D01*
X107189627Y-66970489D01*
X106908736Y-66909245D01*
X106877685Y-66906801D01*
X106685718Y-66891693D01*
X106685709Y-66891693D01*
X106683261Y-66891500D01*
X106527729Y-66891500D01*
X106525593Y-66891646D01*
X106525582Y-66891646D01*
X106317452Y-66905835D01*
X106317446Y-66905836D01*
X106313175Y-66906127D01*
X106308980Y-66906996D01*
X106308978Y-66906996D01*
X106172417Y-66935276D01*
X106031658Y-66964426D01*
X105760657Y-67060393D01*
X105505188Y-67192250D01*
X105501687Y-67194711D01*
X105501683Y-67194713D01*
X105491594Y-67201804D01*
X105269977Y-67357559D01*
X105059378Y-67553260D01*
X104877287Y-67775732D01*
X104727073Y-68020858D01*
X104611517Y-68284102D01*
X104532756Y-68560594D01*
X104492249Y-68845216D01*
X104492227Y-68849505D01*
X104492226Y-68849512D01*
X104490765Y-69128417D01*
X104490743Y-69132703D01*
X99107867Y-69132703D01*
X99109235Y-68871583D01*
X99109235Y-68871576D01*
X99109257Y-68867297D01*
X99071732Y-68582266D01*
X98995871Y-68304964D01*
X98883077Y-68040524D01*
X98735439Y-67793839D01*
X98555687Y-67569472D01*
X98347149Y-67371577D01*
X98113683Y-67203814D01*
X98091843Y-67192250D01*
X98068654Y-67179972D01*
X97859608Y-67069288D01*
X97589627Y-66970489D01*
X97308736Y-66909245D01*
X97277685Y-66906801D01*
X97085718Y-66891693D01*
X97085709Y-66891693D01*
X97083261Y-66891500D01*
X96927729Y-66891500D01*
X96925593Y-66891646D01*
X96925582Y-66891646D01*
X96717452Y-66905835D01*
X96717446Y-66905836D01*
X96713175Y-66906127D01*
X96708980Y-66906996D01*
X96708978Y-66906996D01*
X96572417Y-66935276D01*
X96431658Y-66964426D01*
X96160657Y-67060393D01*
X95905188Y-67192250D01*
X95901687Y-67194711D01*
X95901683Y-67194713D01*
X95891594Y-67201804D01*
X95669977Y-67357559D01*
X95459378Y-67553260D01*
X95277287Y-67775732D01*
X95127073Y-68020858D01*
X95011517Y-68284102D01*
X94932756Y-68560594D01*
X94892249Y-68845216D01*
X94892227Y-68849505D01*
X94892226Y-68849512D01*
X94890765Y-69128417D01*
X94890743Y-69132703D01*
X91107867Y-69132703D01*
X91109235Y-68871583D01*
X91109235Y-68871576D01*
X91109257Y-68867297D01*
X91071732Y-68582266D01*
X90995871Y-68304964D01*
X90883077Y-68040524D01*
X90735439Y-67793839D01*
X90555687Y-67569472D01*
X90347149Y-67371577D01*
X90113683Y-67203814D01*
X90091843Y-67192250D01*
X90068654Y-67179972D01*
X89859608Y-67069288D01*
X89589627Y-66970489D01*
X89308736Y-66909245D01*
X89277685Y-66906801D01*
X89085718Y-66891693D01*
X89085709Y-66891693D01*
X89083261Y-66891500D01*
X88927729Y-66891500D01*
X88925593Y-66891646D01*
X88925582Y-66891646D01*
X88717452Y-66905835D01*
X88717446Y-66905836D01*
X88713175Y-66906127D01*
X88708980Y-66906996D01*
X88708978Y-66906996D01*
X88572417Y-66935276D01*
X88431658Y-66964426D01*
X88160657Y-67060393D01*
X87905188Y-67192250D01*
X87901687Y-67194711D01*
X87901683Y-67194713D01*
X87891594Y-67201804D01*
X87669977Y-67357559D01*
X87459378Y-67553260D01*
X87277287Y-67775732D01*
X87127073Y-68020858D01*
X87011517Y-68284102D01*
X86932756Y-68560594D01*
X86892249Y-68845216D01*
X86892227Y-68849505D01*
X86892226Y-68849512D01*
X86890765Y-69128417D01*
X86890743Y-69132703D01*
X51508500Y-69132703D01*
X51508500Y-64634500D01*
X51528502Y-64566379D01*
X51582158Y-64519886D01*
X51634500Y-64508500D01*
X146365500Y-64508500D01*
X146433621Y-64528502D01*
G37*
%TD.AperFunction*%
%TD*%
M02*
