%TF.GenerationSoftware,KiCad,Pcbnew,(6.0.11)*%
%TF.CreationDate,2023-01-29T20:34:14-05:00*%
%TF.ProjectId,Coil_Winder,436f696c-5f57-4696-9e64-65722e6b6963,rev?*%
%TF.SameCoordinates,Original*%
%TF.FileFunction,Copper,L1,Top*%
%TF.FilePolarity,Positive*%
%FSLAX46Y46*%
G04 Gerber Fmt 4.6, Leading zero omitted, Abs format (unit mm)*
G04 Created by KiCad (PCBNEW (6.0.11)) date 2023-01-29 20:34:14*
%MOMM*%
%LPD*%
G01*
G04 APERTURE LIST*
%TA.AperFunction,ComponentPad*%
%ADD10R,1.700000X1.700000*%
%TD*%
%TA.AperFunction,ComponentPad*%
%ADD11O,1.700000X1.700000*%
%TD*%
%TA.AperFunction,ComponentPad*%
%ADD12R,1.905000X2.000000*%
%TD*%
%TA.AperFunction,ComponentPad*%
%ADD13O,1.905000X2.000000*%
%TD*%
%TA.AperFunction,ComponentPad*%
%ADD14C,1.408000*%
%TD*%
%TA.AperFunction,ComponentPad*%
%ADD15R,1.600000X1.600000*%
%TD*%
%TA.AperFunction,ComponentPad*%
%ADD16O,1.600000X1.600000*%
%TD*%
%TA.AperFunction,ComponentPad*%
%ADD17C,1.800000*%
%TD*%
%TA.AperFunction,ComponentPad*%
%ADD18C,1.600000*%
%TD*%
%TA.AperFunction,Conductor*%
%ADD19C,0.250000*%
%TD*%
%TA.AperFunction,Conductor*%
%ADD20C,0.500000*%
%TD*%
G04 APERTURE END LIST*
D10*
%TO.P,J3,1,Pin_1*%
%TO.N,/IN1*%
X132080000Y-116380000D03*
D11*
%TO.P,J3,2,Pin_2*%
%TO.N,/IN2*%
X129540000Y-116380000D03*
%TO.P,J3,3,Pin_3*%
%TO.N,/ENA*%
X127000000Y-116380000D03*
%TD*%
D10*
%TO.P,J2,1,Pin_1*%
%TO.N,+12V*%
X115575000Y-116380000D03*
D11*
%TO.P,J2,2,Pin_2*%
%TO.N,GND*%
X113035000Y-116380000D03*
%TD*%
D10*
%TO.P,J1,1,Pin_1*%
%TO.N,VCC*%
X54605000Y-75780000D03*
D11*
%TO.P,J1,2,Pin_2*%
%TO.N,GND*%
X57145000Y-75780000D03*
%TD*%
D12*
%TO.P,U1,1,IN*%
%TO.N,VCC*%
X72390000Y-75960000D03*
D13*
%TO.P,U1,2,GND*%
%TO.N,GND*%
X74930000Y-75960000D03*
%TO.P,U1,3,OUT*%
%TO.N,+12V*%
X77470000Y-75960000D03*
%TD*%
D14*
%TO.P,SW1,S1*%
%TO.N,N/C*%
X65000000Y-118740000D03*
%TO.P,SW1,S2*%
X59920000Y-118740000D03*
%TO.P,SW1,4*%
%TO.N,GND*%
X65000000Y-113660000D03*
%TO.P,SW1,5*%
%TO.N,Net-(SW1-Pad5)*%
X62460000Y-113660000D03*
%TO.P,SW1,6*%
%TO.N,+5V*%
X59920000Y-113660000D03*
%TD*%
D15*
%TO.P,U2,1,D1/TX*%
%TO.N,unconnected-(U2-Pad1)*%
X92710000Y-86370000D03*
D16*
%TO.P,U2,2,D0/RX*%
%TO.N,unconnected-(U2-Pad2)*%
X90170000Y-86370000D03*
%TO.P,U2,3,~{RESET}*%
%TO.N,unconnected-(U2-Pad3)*%
X87630000Y-86370000D03*
%TO.P,U2,4,GND*%
%TO.N,GND*%
X85090000Y-86370000D03*
%TO.P,U2,5,D2*%
%TO.N,Net-(SW2-Pad2)*%
X82550000Y-86370000D03*
%TO.P,U2,6,D3*%
%TO.N,/IN1*%
X80010000Y-86370000D03*
%TO.P,U2,7,D4*%
%TO.N,/IN2*%
X77470000Y-86370000D03*
%TO.P,U2,8,D5*%
%TO.N,/ENA*%
X74930000Y-86370000D03*
%TO.P,U2,9,D6*%
%TO.N,Net-(SW1-Pad5)*%
X72390000Y-86370000D03*
%TO.P,U2,10,D7*%
%TO.N,unconnected-(U2-Pad10)*%
X69850000Y-86370000D03*
%TO.P,U2,11,D8*%
%TO.N,unconnected-(U2-Pad11)*%
X67310000Y-86370000D03*
%TO.P,U2,12,D9*%
%TO.N,unconnected-(U2-Pad12)*%
X64770000Y-86370000D03*
%TO.P,U2,13,D10*%
%TO.N,unconnected-(U2-Pad13)*%
X62230000Y-86370000D03*
%TO.P,U2,14,D11*%
%TO.N,unconnected-(U2-Pad14)*%
X59690000Y-86370000D03*
%TO.P,U2,15,D12*%
%TO.N,unconnected-(U2-Pad15)*%
X57150000Y-86370000D03*
%TO.P,U2,16,D13*%
%TO.N,unconnected-(U2-Pad16)*%
X57150000Y-101610000D03*
%TO.P,U2,17,3V3*%
%TO.N,unconnected-(U2-Pad17)*%
X59690000Y-101610000D03*
%TO.P,U2,18,AREF*%
%TO.N,unconnected-(U2-Pad18)*%
X62230000Y-101610000D03*
%TO.P,U2,19,A0*%
%TO.N,unconnected-(U2-Pad19)*%
X64770000Y-101610000D03*
%TO.P,U2,20,A1*%
%TO.N,unconnected-(U2-Pad20)*%
X67310000Y-101610000D03*
%TO.P,U2,21,A2*%
%TO.N,unconnected-(U2-Pad21)*%
X69850000Y-101610000D03*
%TO.P,U2,22,A3*%
%TO.N,unconnected-(U2-Pad22)*%
X72390000Y-101610000D03*
%TO.P,U2,23,A4*%
%TO.N,unconnected-(U2-Pad23)*%
X74930000Y-101610000D03*
%TO.P,U2,24,A5*%
%TO.N,unconnected-(U2-Pad24)*%
X77470000Y-101610000D03*
%TO.P,U2,25,A6*%
%TO.N,unconnected-(U2-Pad25)*%
X80010000Y-101610000D03*
%TO.P,U2,26,A7*%
%TO.N,Net-(RV1-Pad2)*%
X82550000Y-101610000D03*
%TO.P,U2,27,+5V*%
%TO.N,+5V*%
X85090000Y-101610000D03*
%TO.P,U2,28,~{RESET}*%
%TO.N,unconnected-(U2-Pad28)*%
X87630000Y-101610000D03*
%TO.P,U2,29,GND*%
%TO.N,GND*%
X90170000Y-101610000D03*
%TO.P,U2,30,VIN*%
%TO.N,+12V*%
X92710000Y-101610000D03*
%TD*%
D10*
%TO.P,SW2,1,1*%
%TO.N,GND*%
X93980000Y-76010000D03*
D11*
%TO.P,SW2,2,2*%
%TO.N,Net-(SW2-Pad2)*%
X91440000Y-76010000D03*
%TD*%
D17*
%TO.P,RV1,1,1*%
%TO.N,unconnected-(RV1-Pad1)*%
X81325000Y-112000000D03*
%TO.P,RV1,2,2*%
%TO.N,Net-(RV1-Pad2)*%
X83865000Y-112000000D03*
%TO.P,RV1,3,3*%
%TO.N,+5V*%
X86405000Y-112000000D03*
%TD*%
D18*
%TO.P,C2,1*%
%TO.N,+12V*%
X83820000Y-73470000D03*
%TO.P,C2,2*%
%TO.N,GND*%
X83820000Y-78470000D03*
%TD*%
%TO.P,C1,1*%
%TO.N,VCC*%
X66040000Y-73470000D03*
%TO.P,C1,2*%
%TO.N,GND*%
X66040000Y-78470000D03*
%TD*%
D19*
%TO.N,Net-(SW1-Pad5)*%
X55000000Y-106200000D02*
X55000000Y-106000000D01*
X62460000Y-113660000D02*
X55000000Y-106200000D01*
D20*
%TO.N,+5V*%
X60550000Y-116000000D02*
X59920000Y-115370000D01*
X85000000Y-116000000D02*
X60550000Y-116000000D01*
D19*
%TO.N,/IN1*%
X80000000Y-89000000D02*
X80010000Y-88990000D01*
X83000000Y-92000000D02*
X80000000Y-89000000D01*
X80010000Y-88990000D02*
X80010000Y-86370000D01*
X132080000Y-112080000D02*
X112000000Y-92000000D01*
X132080000Y-116380000D02*
X132080000Y-112080000D01*
X112000000Y-92000000D02*
X83000000Y-92000000D01*
%TO.N,/IN2*%
X77470000Y-89470000D02*
X77470000Y-86370000D01*
X111000000Y-94000000D02*
X82000000Y-94000000D01*
X129540000Y-112540000D02*
X111000000Y-94000000D01*
X82000000Y-94000000D02*
X77470000Y-89470000D01*
X129540000Y-116380000D02*
X129540000Y-112540000D01*
%TO.N,/ENA*%
X80000000Y-96000000D02*
X74930000Y-90930000D01*
X110000000Y-96000000D02*
X80000000Y-96000000D01*
X127000000Y-113000000D02*
X110000000Y-96000000D01*
X74930000Y-90930000D02*
X74930000Y-86370000D01*
X127000000Y-116380000D02*
X127000000Y-113000000D01*
D20*
%TO.N,+12V*%
X115575000Y-115575000D02*
X111000000Y-111000000D01*
X102100000Y-111000000D02*
X92710000Y-101610000D01*
X115575000Y-116380000D02*
X115575000Y-115575000D01*
X111000000Y-111000000D02*
X102100000Y-111000000D01*
D19*
%TO.N,Net-(RV1-Pad2)*%
X83865000Y-102925000D02*
X82550000Y-101610000D01*
X83865000Y-112000000D02*
X83865000Y-102925000D01*
D20*
%TO.N,+5V*%
X86405000Y-102925000D02*
X85090000Y-101610000D01*
X86405000Y-112000000D02*
X86405000Y-102925000D01*
X86405000Y-114595000D02*
X86405000Y-112000000D01*
X85000000Y-116000000D02*
X86405000Y-114595000D01*
X59920000Y-113660000D02*
X59920000Y-115370000D01*
D19*
%TO.N,Net-(SW1-Pad5)*%
X56000000Y-99000000D02*
X59760000Y-99000000D01*
X55000000Y-100000000D02*
X56000000Y-99000000D01*
X55000000Y-106000000D02*
X55000000Y-100000000D01*
X59760000Y-99000000D02*
X72390000Y-86370000D01*
%TO.N,Net-(SW2-Pad2)*%
X82550000Y-81450000D02*
X82550000Y-86370000D01*
X88000000Y-81000000D02*
X83000000Y-81000000D01*
X91440000Y-77560000D02*
X88000000Y-81000000D01*
X83000000Y-81000000D02*
X82550000Y-81450000D01*
X91440000Y-76010000D02*
X91440000Y-77560000D01*
D20*
%TO.N,+12V*%
X82530000Y-73470000D02*
X83820000Y-73470000D01*
X79960000Y-75960000D02*
X80000000Y-76000000D01*
X77470000Y-75960000D02*
X79960000Y-75960000D01*
X80000000Y-76000000D02*
X82530000Y-73470000D01*
%TO.N,VCC*%
X67040000Y-75960000D02*
X72390000Y-75960000D01*
X67000000Y-76000000D02*
X67040000Y-75960000D01*
X66040000Y-75040000D02*
X67000000Y-76000000D01*
X66040000Y-73470000D02*
X66040000Y-75040000D01*
X64470000Y-73470000D02*
X66040000Y-73470000D01*
X64000000Y-73000000D02*
X64470000Y-73470000D01*
X54605000Y-74395000D02*
X56000000Y-73000000D01*
X56000000Y-73000000D02*
X64000000Y-73000000D01*
X54605000Y-75780000D02*
X54605000Y-74395000D01*
%TD*%
M02*
