%TF.GenerationSoftware,KiCad,Pcbnew,(6.0.11)*%
%TF.CreationDate,2023-01-29T20:34:46-05:00*%
%TF.ProjectId,Coil_Winder,436f696c-5f57-4696-9e64-65722e6b6963,rev?*%
%TF.SameCoordinates,Original*%
%TF.FileFunction,Drillmap*%
%TF.FilePolarity,Positive*%
%FSLAX45Y45*%
G04 Gerber Fmt 4.5, Leading zero omitted, Abs format (unit mm)*
G04 Created by KiCad (PCBNEW (6.0.11)) date 2023-01-29 20:34:46*
%MOMM*%
%LPD*%
G01*
G04 APERTURE LIST*
%ADD10C,0.100000*%
%ADD11C,0.200000*%
%ADD12C,0.320000*%
G04 APERTURE END LIST*
D10*
X5100000Y-12400000D02*
X14700000Y-12400000D01*
X14700000Y-12400000D02*
X14700000Y-6400000D01*
X14700000Y-6400000D02*
X5100000Y-6400000D01*
X5100000Y-6400000D02*
X5100000Y-12400000D01*
D11*
D12*
X8740000Y-6740000D02*
X9060000Y-7060000D01*
X9060000Y-6740000D02*
X8740000Y-7060000D01*
X9540000Y-6740000D02*
X9860000Y-7060000D01*
X9860000Y-6740000D02*
X9540000Y-7060000D01*
X10500000Y-6740000D02*
X10820000Y-7060000D01*
X10820000Y-6740000D02*
X10500000Y-7060000D01*
X10500000Y-10340000D02*
X10820000Y-10660000D01*
X10820000Y-10340000D02*
X10500000Y-10660000D01*
X14100000Y-6740000D02*
X14420000Y-7060000D01*
X14420000Y-6740000D02*
X14100000Y-7060000D01*
X14100000Y-10340000D02*
X14420000Y-10660000D01*
X14420000Y-10340000D02*
X14100000Y-10660000D01*
D11*
X5352619Y-12715476D02*
X5352619Y-12515476D01*
X5400238Y-12515476D01*
X5428810Y-12525000D01*
X5447857Y-12544048D01*
X5457381Y-12563095D01*
X5466905Y-12601190D01*
X5466905Y-12629762D01*
X5457381Y-12667857D01*
X5447857Y-12686905D01*
X5428810Y-12705952D01*
X5400238Y-12715476D01*
X5352619Y-12715476D01*
X5552619Y-12715476D02*
X5552619Y-12582143D01*
X5552619Y-12620238D02*
X5562143Y-12601190D01*
X5571667Y-12591667D01*
X5590714Y-12582143D01*
X5609762Y-12582143D01*
X5676428Y-12715476D02*
X5676428Y-12582143D01*
X5676428Y-12515476D02*
X5666905Y-12525000D01*
X5676428Y-12534524D01*
X5685952Y-12525000D01*
X5676428Y-12515476D01*
X5676428Y-12534524D01*
X5800238Y-12715476D02*
X5781190Y-12705952D01*
X5771667Y-12686905D01*
X5771667Y-12515476D01*
X5905000Y-12715476D02*
X5885952Y-12705952D01*
X5876428Y-12686905D01*
X5876428Y-12515476D01*
X6133571Y-12715476D02*
X6133571Y-12515476D01*
X6200238Y-12658333D01*
X6266905Y-12515476D01*
X6266905Y-12715476D01*
X6447857Y-12715476D02*
X6447857Y-12610714D01*
X6438333Y-12591667D01*
X6419286Y-12582143D01*
X6381190Y-12582143D01*
X6362143Y-12591667D01*
X6447857Y-12705952D02*
X6428809Y-12715476D01*
X6381190Y-12715476D01*
X6362143Y-12705952D01*
X6352619Y-12686905D01*
X6352619Y-12667857D01*
X6362143Y-12648809D01*
X6381190Y-12639286D01*
X6428809Y-12639286D01*
X6447857Y-12629762D01*
X6543095Y-12582143D02*
X6543095Y-12782143D01*
X6543095Y-12591667D02*
X6562143Y-12582143D01*
X6600238Y-12582143D01*
X6619286Y-12591667D01*
X6628809Y-12601190D01*
X6638333Y-12620238D01*
X6638333Y-12677381D01*
X6628809Y-12696428D01*
X6619286Y-12705952D01*
X6600238Y-12715476D01*
X6562143Y-12715476D01*
X6543095Y-12705952D01*
X6724048Y-12696428D02*
X6733571Y-12705952D01*
X6724048Y-12715476D01*
X6714524Y-12705952D01*
X6724048Y-12696428D01*
X6724048Y-12715476D01*
X6724048Y-12591667D02*
X6733571Y-12601190D01*
X6724048Y-12610714D01*
X6714524Y-12601190D01*
X6724048Y-12591667D01*
X6724048Y-12610714D01*
X4895000Y-12945000D02*
X5095000Y-13145000D01*
X5095000Y-12945000D02*
X4895000Y-13145000D01*
X5333571Y-12935476D02*
X5457381Y-12935476D01*
X5390714Y-13011667D01*
X5419286Y-13011667D01*
X5438333Y-13021190D01*
X5447857Y-13030714D01*
X5457381Y-13049762D01*
X5457381Y-13097381D01*
X5447857Y-13116428D01*
X5438333Y-13125952D01*
X5419286Y-13135476D01*
X5362143Y-13135476D01*
X5343095Y-13125952D01*
X5333571Y-13116428D01*
X5543095Y-13116428D02*
X5552619Y-13125952D01*
X5543095Y-13135476D01*
X5533571Y-13125952D01*
X5543095Y-13116428D01*
X5543095Y-13135476D01*
X5628809Y-12954524D02*
X5638333Y-12945000D01*
X5657381Y-12935476D01*
X5705000Y-12935476D01*
X5724048Y-12945000D01*
X5733571Y-12954524D01*
X5743095Y-12973571D01*
X5743095Y-12992619D01*
X5733571Y-13021190D01*
X5619286Y-13135476D01*
X5743095Y-13135476D01*
X5866905Y-12935476D02*
X5885952Y-12935476D01*
X5905000Y-12945000D01*
X5914524Y-12954524D01*
X5924048Y-12973571D01*
X5933571Y-13011667D01*
X5933571Y-13059286D01*
X5924048Y-13097381D01*
X5914524Y-13116428D01*
X5905000Y-13125952D01*
X5885952Y-13135476D01*
X5866905Y-13135476D01*
X5847857Y-13125952D01*
X5838333Y-13116428D01*
X5828809Y-13097381D01*
X5819286Y-13059286D01*
X5819286Y-13011667D01*
X5828809Y-12973571D01*
X5838333Y-12954524D01*
X5847857Y-12945000D01*
X5866905Y-12935476D01*
X6057381Y-12935476D02*
X6076428Y-12935476D01*
X6095476Y-12945000D01*
X6105000Y-12954524D01*
X6114524Y-12973571D01*
X6124048Y-13011667D01*
X6124048Y-13059286D01*
X6114524Y-13097381D01*
X6105000Y-13116428D01*
X6095476Y-13125952D01*
X6076428Y-13135476D01*
X6057381Y-13135476D01*
X6038333Y-13125952D01*
X6028809Y-13116428D01*
X6019286Y-13097381D01*
X6009762Y-13059286D01*
X6009762Y-13011667D01*
X6019286Y-12973571D01*
X6028809Y-12954524D01*
X6038333Y-12945000D01*
X6057381Y-12935476D01*
X6209762Y-13135476D02*
X6209762Y-13002143D01*
X6209762Y-13021190D02*
X6219286Y-13011667D01*
X6238333Y-13002143D01*
X6266905Y-13002143D01*
X6285952Y-13011667D01*
X6295476Y-13030714D01*
X6295476Y-13135476D01*
X6295476Y-13030714D02*
X6305000Y-13011667D01*
X6324048Y-13002143D01*
X6352619Y-13002143D01*
X6371667Y-13011667D01*
X6381190Y-13030714D01*
X6381190Y-13135476D01*
X6476428Y-13135476D02*
X6476428Y-13002143D01*
X6476428Y-13021190D02*
X6485952Y-13011667D01*
X6505000Y-13002143D01*
X6533571Y-13002143D01*
X6552619Y-13011667D01*
X6562143Y-13030714D01*
X6562143Y-13135476D01*
X6562143Y-13030714D02*
X6571667Y-13011667D01*
X6590714Y-13002143D01*
X6619286Y-13002143D01*
X6638333Y-13011667D01*
X6647857Y-13030714D01*
X6647857Y-13135476D01*
X7038333Y-12925952D02*
X6866905Y-13183095D01*
X7295476Y-12935476D02*
X7314524Y-12935476D01*
X7333571Y-12945000D01*
X7343095Y-12954524D01*
X7352619Y-12973571D01*
X7362143Y-13011667D01*
X7362143Y-13059286D01*
X7352619Y-13097381D01*
X7343095Y-13116428D01*
X7333571Y-13125952D01*
X7314524Y-13135476D01*
X7295476Y-13135476D01*
X7276428Y-13125952D01*
X7266905Y-13116428D01*
X7257381Y-13097381D01*
X7247857Y-13059286D01*
X7247857Y-13011667D01*
X7257381Y-12973571D01*
X7266905Y-12954524D01*
X7276428Y-12945000D01*
X7295476Y-12935476D01*
X7447857Y-13116428D02*
X7457381Y-13125952D01*
X7447857Y-13135476D01*
X7438333Y-13125952D01*
X7447857Y-13116428D01*
X7447857Y-13135476D01*
X7647857Y-13135476D02*
X7533571Y-13135476D01*
X7590714Y-13135476D02*
X7590714Y-12935476D01*
X7571667Y-12964048D01*
X7552619Y-12983095D01*
X7533571Y-12992619D01*
X7724048Y-12954524D02*
X7733571Y-12945000D01*
X7752619Y-12935476D01*
X7800238Y-12935476D01*
X7819286Y-12945000D01*
X7828809Y-12954524D01*
X7838333Y-12973571D01*
X7838333Y-12992619D01*
X7828809Y-13021190D01*
X7714524Y-13135476D01*
X7838333Y-13135476D01*
X8009762Y-12935476D02*
X7971667Y-12935476D01*
X7952619Y-12945000D01*
X7943095Y-12954524D01*
X7924048Y-12983095D01*
X7914524Y-13021190D01*
X7914524Y-13097381D01*
X7924048Y-13116428D01*
X7933571Y-13125952D01*
X7952619Y-13135476D01*
X7990714Y-13135476D01*
X8009762Y-13125952D01*
X8019286Y-13116428D01*
X8028809Y-13097381D01*
X8028809Y-13049762D01*
X8019286Y-13030714D01*
X8009762Y-13021190D01*
X7990714Y-13011667D01*
X7952619Y-13011667D01*
X7933571Y-13021190D01*
X7924048Y-13030714D01*
X7914524Y-13049762D01*
X8152619Y-12935476D02*
X8171667Y-12935476D01*
X8190714Y-12945000D01*
X8200238Y-12954524D01*
X8209762Y-12973571D01*
X8219286Y-13011667D01*
X8219286Y-13059286D01*
X8209762Y-13097381D01*
X8200238Y-13116428D01*
X8190714Y-13125952D01*
X8171667Y-13135476D01*
X8152619Y-13135476D01*
X8133571Y-13125952D01*
X8124048Y-13116428D01*
X8114524Y-13097381D01*
X8105000Y-13059286D01*
X8105000Y-13011667D01*
X8114524Y-12973571D01*
X8124048Y-12954524D01*
X8133571Y-12945000D01*
X8152619Y-12935476D01*
X8295476Y-12935476D02*
X8295476Y-12973571D01*
X8371667Y-12935476D02*
X8371667Y-12973571D01*
X8666905Y-13211667D02*
X8657381Y-13202143D01*
X8638333Y-13173571D01*
X8628810Y-13154524D01*
X8619286Y-13125952D01*
X8609762Y-13078333D01*
X8609762Y-13040238D01*
X8619286Y-12992619D01*
X8628810Y-12964048D01*
X8638333Y-12945000D01*
X8657381Y-12916428D01*
X8666905Y-12906905D01*
X8828810Y-12935476D02*
X8790714Y-12935476D01*
X8771667Y-12945000D01*
X8762143Y-12954524D01*
X8743095Y-12983095D01*
X8733571Y-13021190D01*
X8733571Y-13097381D01*
X8743095Y-13116428D01*
X8752619Y-13125952D01*
X8771667Y-13135476D01*
X8809762Y-13135476D01*
X8828810Y-13125952D01*
X8838333Y-13116428D01*
X8847857Y-13097381D01*
X8847857Y-13049762D01*
X8838333Y-13030714D01*
X8828810Y-13021190D01*
X8809762Y-13011667D01*
X8771667Y-13011667D01*
X8752619Y-13021190D01*
X8743095Y-13030714D01*
X8733571Y-13049762D01*
X9085952Y-13135476D02*
X9085952Y-12935476D01*
X9171667Y-13135476D02*
X9171667Y-13030714D01*
X9162143Y-13011667D01*
X9143095Y-13002143D01*
X9114524Y-13002143D01*
X9095476Y-13011667D01*
X9085952Y-13021190D01*
X9295476Y-13135476D02*
X9276429Y-13125952D01*
X9266905Y-13116428D01*
X9257381Y-13097381D01*
X9257381Y-13040238D01*
X9266905Y-13021190D01*
X9276429Y-13011667D01*
X9295476Y-13002143D01*
X9324048Y-13002143D01*
X9343095Y-13011667D01*
X9352619Y-13021190D01*
X9362143Y-13040238D01*
X9362143Y-13097381D01*
X9352619Y-13116428D01*
X9343095Y-13125952D01*
X9324048Y-13135476D01*
X9295476Y-13135476D01*
X9476429Y-13135476D02*
X9457381Y-13125952D01*
X9447857Y-13106905D01*
X9447857Y-12935476D01*
X9628810Y-13125952D02*
X9609762Y-13135476D01*
X9571667Y-13135476D01*
X9552619Y-13125952D01*
X9543095Y-13106905D01*
X9543095Y-13030714D01*
X9552619Y-13011667D01*
X9571667Y-13002143D01*
X9609762Y-13002143D01*
X9628810Y-13011667D01*
X9638333Y-13030714D01*
X9638333Y-13049762D01*
X9543095Y-13068809D01*
X9714524Y-13125952D02*
X9733571Y-13135476D01*
X9771667Y-13135476D01*
X9790714Y-13125952D01*
X9800238Y-13106905D01*
X9800238Y-13097381D01*
X9790714Y-13078333D01*
X9771667Y-13068809D01*
X9743095Y-13068809D01*
X9724048Y-13059286D01*
X9714524Y-13040238D01*
X9714524Y-13030714D01*
X9724048Y-13011667D01*
X9743095Y-13002143D01*
X9771667Y-13002143D01*
X9790714Y-13011667D01*
X9866905Y-13211667D02*
X9876429Y-13202143D01*
X9895476Y-13173571D01*
X9905000Y-13154524D01*
X9914524Y-13125952D01*
X9924048Y-13078333D01*
X9924048Y-13040238D01*
X9914524Y-12992619D01*
X9905000Y-12964048D01*
X9895476Y-12945000D01*
X9876429Y-12916428D01*
X9866905Y-12906905D01*
X10228810Y-13211667D02*
X10219286Y-13202143D01*
X10200238Y-13173571D01*
X10190714Y-13154524D01*
X10181190Y-13125952D01*
X10171667Y-13078333D01*
X10171667Y-13040238D01*
X10181190Y-12992619D01*
X10190714Y-12964048D01*
X10200238Y-12945000D01*
X10219286Y-12916428D01*
X10228810Y-12906905D01*
X10305000Y-13002143D02*
X10305000Y-13135476D01*
X10305000Y-13021190D02*
X10314524Y-13011667D01*
X10333571Y-13002143D01*
X10362143Y-13002143D01*
X10381190Y-13011667D01*
X10390714Y-13030714D01*
X10390714Y-13135476D01*
X10514524Y-13135476D02*
X10495476Y-13125952D01*
X10485952Y-13116428D01*
X10476429Y-13097381D01*
X10476429Y-13040238D01*
X10485952Y-13021190D01*
X10495476Y-13011667D01*
X10514524Y-13002143D01*
X10543095Y-13002143D01*
X10562143Y-13011667D01*
X10571667Y-13021190D01*
X10581190Y-13040238D01*
X10581190Y-13097381D01*
X10571667Y-13116428D01*
X10562143Y-13125952D01*
X10543095Y-13135476D01*
X10514524Y-13135476D01*
X10638333Y-13002143D02*
X10714524Y-13002143D01*
X10666905Y-12935476D02*
X10666905Y-13106905D01*
X10676429Y-13125952D01*
X10695476Y-13135476D01*
X10714524Y-13135476D01*
X10933571Y-13002143D02*
X10933571Y-13202143D01*
X10933571Y-13011667D02*
X10952619Y-13002143D01*
X10990714Y-13002143D01*
X11009762Y-13011667D01*
X11019286Y-13021190D01*
X11028810Y-13040238D01*
X11028810Y-13097381D01*
X11019286Y-13116428D01*
X11009762Y-13125952D01*
X10990714Y-13135476D01*
X10952619Y-13135476D01*
X10933571Y-13125952D01*
X11143095Y-13135476D02*
X11124048Y-13125952D01*
X11114524Y-13106905D01*
X11114524Y-12935476D01*
X11305000Y-13135476D02*
X11305000Y-13030714D01*
X11295476Y-13011667D01*
X11276428Y-13002143D01*
X11238333Y-13002143D01*
X11219286Y-13011667D01*
X11305000Y-13125952D02*
X11285952Y-13135476D01*
X11238333Y-13135476D01*
X11219286Y-13125952D01*
X11209762Y-13106905D01*
X11209762Y-13087857D01*
X11219286Y-13068809D01*
X11238333Y-13059286D01*
X11285952Y-13059286D01*
X11305000Y-13049762D01*
X11371667Y-13002143D02*
X11447857Y-13002143D01*
X11400238Y-12935476D02*
X11400238Y-13106905D01*
X11409762Y-13125952D01*
X11428809Y-13135476D01*
X11447857Y-13135476D01*
X11590714Y-13125952D02*
X11571667Y-13135476D01*
X11533571Y-13135476D01*
X11514524Y-13125952D01*
X11505000Y-13106905D01*
X11505000Y-13030714D01*
X11514524Y-13011667D01*
X11533571Y-13002143D01*
X11571667Y-13002143D01*
X11590714Y-13011667D01*
X11600238Y-13030714D01*
X11600238Y-13049762D01*
X11505000Y-13068809D01*
X11771667Y-13135476D02*
X11771667Y-12935476D01*
X11771667Y-13125952D02*
X11752619Y-13135476D01*
X11714524Y-13135476D01*
X11695476Y-13125952D01*
X11685952Y-13116428D01*
X11676428Y-13097381D01*
X11676428Y-13040238D01*
X11685952Y-13021190D01*
X11695476Y-13011667D01*
X11714524Y-13002143D01*
X11752619Y-13002143D01*
X11771667Y-13011667D01*
X11847857Y-13211667D02*
X11857381Y-13202143D01*
X11876428Y-13173571D01*
X11885952Y-13154524D01*
X11895476Y-13125952D01*
X11905000Y-13078333D01*
X11905000Y-13040238D01*
X11895476Y-12992619D01*
X11885952Y-12964048D01*
X11876428Y-12945000D01*
X11857381Y-12916428D01*
X11847857Y-12906905D01*
M02*
