%TF.GenerationSoftware,KiCad,Pcbnew,(6.0.11)*%
%TF.CreationDate,2023-01-29T20:34:46-05:00*%
%TF.ProjectId,Coil_Winder,436f696c-5f57-4696-9e64-65722e6b6963,rev?*%
%TF.SameCoordinates,Original*%
%TF.FileFunction,Drillmap*%
%TF.FilePolarity,Positive*%
%FSLAX45Y45*%
G04 Gerber Fmt 4.5, Leading zero omitted, Abs format (unit mm)*
G04 Created by KiCad (PCBNEW (6.0.11)) date 2023-01-29 20:34:46*
%MOMM*%
%LPD*%
G01*
G04 APERTURE LIST*
%ADD10C,0.100000*%
%ADD11C,0.200000*%
%ADD12C,0.080000*%
%ADD13C,0.090000*%
%ADD14C,0.110000*%
G04 APERTURE END LIST*
D10*
X5100000Y-12400000D02*
X14700000Y-12400000D01*
X14700000Y-12400000D02*
X14700000Y-6400000D01*
X14700000Y-6400000D02*
X5100000Y-6400000D01*
X5100000Y-6400000D02*
X5100000Y-12400000D01*
D11*
D12*
X6564000Y-7307000D02*
X6644000Y-7387000D01*
X6644000Y-7307000D02*
X6564000Y-7387000D01*
X6564000Y-7807000D02*
X6644000Y-7887000D01*
X6644000Y-7807000D02*
X6564000Y-7887000D01*
X8342000Y-7307000D02*
X8422000Y-7387000D01*
X8422000Y-7307000D02*
X8342000Y-7387000D01*
X8342000Y-7807000D02*
X8422000Y-7887000D01*
X8422000Y-7807000D02*
X8342000Y-7887000D01*
D13*
X6037000Y-11366000D02*
G75*
G03*
X6037000Y-11366000I-45000J0D01*
G01*
X6037000Y-11874000D02*
G75*
G03*
X6037000Y-11874000I-45000J0D01*
G01*
X6291000Y-11366000D02*
G75*
G03*
X6291000Y-11366000I-45000J0D01*
G01*
X6545000Y-11366000D02*
G75*
G03*
X6545000Y-11366000I-45000J0D01*
G01*
X6545000Y-11874000D02*
G75*
G03*
X6545000Y-11874000I-45000J0D01*
G01*
D10*
X5460500Y-7528000D02*
X5460500Y-7628000D01*
X5410500Y-7578000D02*
X5510500Y-7578000D01*
X5714500Y-7528000D02*
X5714500Y-7628000D01*
X5664500Y-7578000D02*
X5764500Y-7578000D01*
X5715000Y-8587000D02*
X5715000Y-8687000D01*
X5665000Y-8637000D02*
X5765000Y-8637000D01*
X5715000Y-10111000D02*
X5715000Y-10211000D01*
X5665000Y-10161000D02*
X5765000Y-10161000D01*
X5969000Y-8587000D02*
X5969000Y-8687000D01*
X5919000Y-8637000D02*
X6019000Y-8637000D01*
X5969000Y-10111000D02*
X5969000Y-10211000D01*
X5919000Y-10161000D02*
X6019000Y-10161000D01*
X6223000Y-8587000D02*
X6223000Y-8687000D01*
X6173000Y-8637000D02*
X6273000Y-8637000D01*
X6223000Y-10111000D02*
X6223000Y-10211000D01*
X6173000Y-10161000D02*
X6273000Y-10161000D01*
X6477000Y-8587000D02*
X6477000Y-8687000D01*
X6427000Y-8637000D02*
X6527000Y-8637000D01*
X6477000Y-10111000D02*
X6477000Y-10211000D01*
X6427000Y-10161000D02*
X6527000Y-10161000D01*
X6731000Y-8587000D02*
X6731000Y-8687000D01*
X6681000Y-8637000D02*
X6781000Y-8637000D01*
X6731000Y-10111000D02*
X6731000Y-10211000D01*
X6681000Y-10161000D02*
X6781000Y-10161000D01*
X6985000Y-8587000D02*
X6985000Y-8687000D01*
X6935000Y-8637000D02*
X7035000Y-8637000D01*
X6985000Y-10111000D02*
X6985000Y-10211000D01*
X6935000Y-10161000D02*
X7035000Y-10161000D01*
X7239000Y-8587000D02*
X7239000Y-8687000D01*
X7189000Y-8637000D02*
X7289000Y-8637000D01*
X7239000Y-10111000D02*
X7239000Y-10211000D01*
X7189000Y-10161000D02*
X7289000Y-10161000D01*
X7493000Y-8587000D02*
X7493000Y-8687000D01*
X7443000Y-8637000D02*
X7543000Y-8637000D01*
X7493000Y-10111000D02*
X7493000Y-10211000D01*
X7443000Y-10161000D02*
X7543000Y-10161000D01*
X7747000Y-8587000D02*
X7747000Y-8687000D01*
X7697000Y-8637000D02*
X7797000Y-8637000D01*
X7747000Y-10111000D02*
X7747000Y-10211000D01*
X7697000Y-10161000D02*
X7797000Y-10161000D01*
X8001000Y-8587000D02*
X8001000Y-8687000D01*
X7951000Y-8637000D02*
X8051000Y-8637000D01*
X8001000Y-10111000D02*
X8001000Y-10211000D01*
X7951000Y-10161000D02*
X8051000Y-10161000D01*
X8132500Y-11150000D02*
X8132500Y-11250000D01*
X8082500Y-11200000D02*
X8182500Y-11200000D01*
X8255000Y-8587000D02*
X8255000Y-8687000D01*
X8205000Y-8637000D02*
X8305000Y-8637000D01*
X8255000Y-10111000D02*
X8255000Y-10211000D01*
X8205000Y-10161000D02*
X8305000Y-10161000D01*
X8386500Y-11150000D02*
X8386500Y-11250000D01*
X8336500Y-11200000D02*
X8436500Y-11200000D01*
X8509000Y-8587000D02*
X8509000Y-8687000D01*
X8459000Y-8637000D02*
X8559000Y-8637000D01*
X8509000Y-10111000D02*
X8509000Y-10211000D01*
X8459000Y-10161000D02*
X8559000Y-10161000D01*
X8640500Y-11150000D02*
X8640500Y-11250000D01*
X8590500Y-11200000D02*
X8690500Y-11200000D01*
X8763000Y-8587000D02*
X8763000Y-8687000D01*
X8713000Y-8637000D02*
X8813000Y-8637000D01*
X8763000Y-10111000D02*
X8763000Y-10211000D01*
X8713000Y-10161000D02*
X8813000Y-10161000D01*
X9017000Y-8587000D02*
X9017000Y-8687000D01*
X8967000Y-8637000D02*
X9067000Y-8637000D01*
X9017000Y-10111000D02*
X9017000Y-10211000D01*
X8967000Y-10161000D02*
X9067000Y-10161000D01*
X9144000Y-7551000D02*
X9144000Y-7651000D01*
X9094000Y-7601000D02*
X9194000Y-7601000D01*
X9271000Y-8587000D02*
X9271000Y-8687000D01*
X9221000Y-8637000D02*
X9321000Y-8637000D01*
X9271000Y-10111000D02*
X9271000Y-10211000D01*
X9221000Y-10161000D02*
X9321000Y-10161000D01*
X9398000Y-7551000D02*
X9398000Y-7651000D01*
X9348000Y-7601000D02*
X9448000Y-7601000D01*
X11303500Y-11588000D02*
X11303500Y-11688000D01*
X11253500Y-11638000D02*
X11353500Y-11638000D01*
X11557500Y-11588000D02*
X11557500Y-11688000D01*
X11507500Y-11638000D02*
X11607500Y-11638000D01*
X12700000Y-11588000D02*
X12700000Y-11688000D01*
X12650000Y-11638000D02*
X12750000Y-11638000D01*
X12954000Y-11588000D02*
X12954000Y-11688000D01*
X12904000Y-11638000D02*
X13004000Y-11638000D01*
X13208000Y-11588000D02*
X13208000Y-11688000D01*
X13158000Y-11638000D02*
X13258000Y-11638000D01*
D14*
X7277891Y-7634891D02*
X7277891Y-7557109D01*
X7200109Y-7557109D01*
X7200109Y-7634891D01*
X7277891Y-7634891D01*
X7531891Y-7634891D02*
X7531891Y-7557109D01*
X7454109Y-7557109D01*
X7454109Y-7634891D01*
X7531891Y-7634891D01*
X7785891Y-7634891D02*
X7785891Y-7557109D01*
X7708109Y-7557109D01*
X7708109Y-7634891D01*
X7785891Y-7634891D01*
D11*
X5352619Y-12715476D02*
X5352619Y-12515476D01*
X5400238Y-12515476D01*
X5428810Y-12525000D01*
X5447857Y-12544048D01*
X5457381Y-12563095D01*
X5466905Y-12601190D01*
X5466905Y-12629762D01*
X5457381Y-12667857D01*
X5447857Y-12686905D01*
X5428810Y-12705952D01*
X5400238Y-12715476D01*
X5352619Y-12715476D01*
X5552619Y-12715476D02*
X5552619Y-12582143D01*
X5552619Y-12620238D02*
X5562143Y-12601190D01*
X5571667Y-12591667D01*
X5590714Y-12582143D01*
X5609762Y-12582143D01*
X5676428Y-12715476D02*
X5676428Y-12582143D01*
X5676428Y-12515476D02*
X5666905Y-12525000D01*
X5676428Y-12534524D01*
X5685952Y-12525000D01*
X5676428Y-12515476D01*
X5676428Y-12534524D01*
X5800238Y-12715476D02*
X5781190Y-12705952D01*
X5771667Y-12686905D01*
X5771667Y-12515476D01*
X5905000Y-12715476D02*
X5885952Y-12705952D01*
X5876428Y-12686905D01*
X5876428Y-12515476D01*
X6133571Y-12715476D02*
X6133571Y-12515476D01*
X6200238Y-12658333D01*
X6266905Y-12515476D01*
X6266905Y-12715476D01*
X6447857Y-12715476D02*
X6447857Y-12610714D01*
X6438333Y-12591667D01*
X6419286Y-12582143D01*
X6381190Y-12582143D01*
X6362143Y-12591667D01*
X6447857Y-12705952D02*
X6428809Y-12715476D01*
X6381190Y-12715476D01*
X6362143Y-12705952D01*
X6352619Y-12686905D01*
X6352619Y-12667857D01*
X6362143Y-12648809D01*
X6381190Y-12639286D01*
X6428809Y-12639286D01*
X6447857Y-12629762D01*
X6543095Y-12582143D02*
X6543095Y-12782143D01*
X6543095Y-12591667D02*
X6562143Y-12582143D01*
X6600238Y-12582143D01*
X6619286Y-12591667D01*
X6628809Y-12601190D01*
X6638333Y-12620238D01*
X6638333Y-12677381D01*
X6628809Y-12696428D01*
X6619286Y-12705952D01*
X6600238Y-12715476D01*
X6562143Y-12715476D01*
X6543095Y-12705952D01*
X6724048Y-12696428D02*
X6733571Y-12705952D01*
X6724048Y-12715476D01*
X6714524Y-12705952D01*
X6724048Y-12696428D01*
X6724048Y-12715476D01*
X6724048Y-12591667D02*
X6733571Y-12601190D01*
X6724048Y-12610714D01*
X6714524Y-12601190D01*
X6724048Y-12591667D01*
X6724048Y-12610714D01*
D12*
X5015000Y-13005000D02*
X5095000Y-13085000D01*
X5095000Y-13005000D02*
X5015000Y-13085000D01*
D11*
X5390714Y-12935476D02*
X5409762Y-12935476D01*
X5428810Y-12945000D01*
X5438333Y-12954524D01*
X5447857Y-12973571D01*
X5457381Y-13011667D01*
X5457381Y-13059286D01*
X5447857Y-13097381D01*
X5438333Y-13116428D01*
X5428810Y-13125952D01*
X5409762Y-13135476D01*
X5390714Y-13135476D01*
X5371667Y-13125952D01*
X5362143Y-13116428D01*
X5352619Y-13097381D01*
X5343095Y-13059286D01*
X5343095Y-13011667D01*
X5352619Y-12973571D01*
X5362143Y-12954524D01*
X5371667Y-12945000D01*
X5390714Y-12935476D01*
X5543095Y-13116428D02*
X5552619Y-13125952D01*
X5543095Y-13135476D01*
X5533571Y-13125952D01*
X5543095Y-13116428D01*
X5543095Y-13135476D01*
X5666905Y-13021190D02*
X5647857Y-13011667D01*
X5638333Y-13002143D01*
X5628809Y-12983095D01*
X5628809Y-12973571D01*
X5638333Y-12954524D01*
X5647857Y-12945000D01*
X5666905Y-12935476D01*
X5705000Y-12935476D01*
X5724048Y-12945000D01*
X5733571Y-12954524D01*
X5743095Y-12973571D01*
X5743095Y-12983095D01*
X5733571Y-13002143D01*
X5724048Y-13011667D01*
X5705000Y-13021190D01*
X5666905Y-13021190D01*
X5647857Y-13030714D01*
X5638333Y-13040238D01*
X5628809Y-13059286D01*
X5628809Y-13097381D01*
X5638333Y-13116428D01*
X5647857Y-13125952D01*
X5666905Y-13135476D01*
X5705000Y-13135476D01*
X5724048Y-13125952D01*
X5733571Y-13116428D01*
X5743095Y-13097381D01*
X5743095Y-13059286D01*
X5733571Y-13040238D01*
X5724048Y-13030714D01*
X5705000Y-13021190D01*
X5866905Y-12935476D02*
X5885952Y-12935476D01*
X5905000Y-12945000D01*
X5914524Y-12954524D01*
X5924048Y-12973571D01*
X5933571Y-13011667D01*
X5933571Y-13059286D01*
X5924048Y-13097381D01*
X5914524Y-13116428D01*
X5905000Y-13125952D01*
X5885952Y-13135476D01*
X5866905Y-13135476D01*
X5847857Y-13125952D01*
X5838333Y-13116428D01*
X5828809Y-13097381D01*
X5819286Y-13059286D01*
X5819286Y-13011667D01*
X5828809Y-12973571D01*
X5838333Y-12954524D01*
X5847857Y-12945000D01*
X5866905Y-12935476D01*
X6057381Y-12935476D02*
X6076428Y-12935476D01*
X6095476Y-12945000D01*
X6105000Y-12954524D01*
X6114524Y-12973571D01*
X6124048Y-13011667D01*
X6124048Y-13059286D01*
X6114524Y-13097381D01*
X6105000Y-13116428D01*
X6095476Y-13125952D01*
X6076428Y-13135476D01*
X6057381Y-13135476D01*
X6038333Y-13125952D01*
X6028809Y-13116428D01*
X6019286Y-13097381D01*
X6009762Y-13059286D01*
X6009762Y-13011667D01*
X6019286Y-12973571D01*
X6028809Y-12954524D01*
X6038333Y-12945000D01*
X6057381Y-12935476D01*
X6209762Y-13135476D02*
X6209762Y-13002143D01*
X6209762Y-13021190D02*
X6219286Y-13011667D01*
X6238333Y-13002143D01*
X6266905Y-13002143D01*
X6285952Y-13011667D01*
X6295476Y-13030714D01*
X6295476Y-13135476D01*
X6295476Y-13030714D02*
X6305000Y-13011667D01*
X6324048Y-13002143D01*
X6352619Y-13002143D01*
X6371667Y-13011667D01*
X6381190Y-13030714D01*
X6381190Y-13135476D01*
X6476428Y-13135476D02*
X6476428Y-13002143D01*
X6476428Y-13021190D02*
X6485952Y-13011667D01*
X6505000Y-13002143D01*
X6533571Y-13002143D01*
X6552619Y-13011667D01*
X6562143Y-13030714D01*
X6562143Y-13135476D01*
X6562143Y-13030714D02*
X6571667Y-13011667D01*
X6590714Y-13002143D01*
X6619286Y-13002143D01*
X6638333Y-13011667D01*
X6647857Y-13030714D01*
X6647857Y-13135476D01*
X7038333Y-12925952D02*
X6866905Y-13183095D01*
X7295476Y-12935476D02*
X7314524Y-12935476D01*
X7333571Y-12945000D01*
X7343095Y-12954524D01*
X7352619Y-12973571D01*
X7362143Y-13011667D01*
X7362143Y-13059286D01*
X7352619Y-13097381D01*
X7343095Y-13116428D01*
X7333571Y-13125952D01*
X7314524Y-13135476D01*
X7295476Y-13135476D01*
X7276428Y-13125952D01*
X7266905Y-13116428D01*
X7257381Y-13097381D01*
X7247857Y-13059286D01*
X7247857Y-13011667D01*
X7257381Y-12973571D01*
X7266905Y-12954524D01*
X7276428Y-12945000D01*
X7295476Y-12935476D01*
X7447857Y-13116428D02*
X7457381Y-13125952D01*
X7447857Y-13135476D01*
X7438333Y-13125952D01*
X7447857Y-13116428D01*
X7447857Y-13135476D01*
X7581190Y-12935476D02*
X7600238Y-12935476D01*
X7619286Y-12945000D01*
X7628809Y-12954524D01*
X7638333Y-12973571D01*
X7647857Y-13011667D01*
X7647857Y-13059286D01*
X7638333Y-13097381D01*
X7628809Y-13116428D01*
X7619286Y-13125952D01*
X7600238Y-13135476D01*
X7581190Y-13135476D01*
X7562143Y-13125952D01*
X7552619Y-13116428D01*
X7543095Y-13097381D01*
X7533571Y-13059286D01*
X7533571Y-13011667D01*
X7543095Y-12973571D01*
X7552619Y-12954524D01*
X7562143Y-12945000D01*
X7581190Y-12935476D01*
X7714524Y-12935476D02*
X7838333Y-12935476D01*
X7771667Y-13011667D01*
X7800238Y-13011667D01*
X7819286Y-13021190D01*
X7828809Y-13030714D01*
X7838333Y-13049762D01*
X7838333Y-13097381D01*
X7828809Y-13116428D01*
X7819286Y-13125952D01*
X7800238Y-13135476D01*
X7743095Y-13135476D01*
X7724048Y-13125952D01*
X7714524Y-13116428D01*
X8028809Y-13135476D02*
X7914524Y-13135476D01*
X7971667Y-13135476D02*
X7971667Y-12935476D01*
X7952619Y-12964048D01*
X7933571Y-12983095D01*
X7914524Y-12992619D01*
X8209762Y-12935476D02*
X8114524Y-12935476D01*
X8105000Y-13030714D01*
X8114524Y-13021190D01*
X8133571Y-13011667D01*
X8181190Y-13011667D01*
X8200238Y-13021190D01*
X8209762Y-13030714D01*
X8219286Y-13049762D01*
X8219286Y-13097381D01*
X8209762Y-13116428D01*
X8200238Y-13125952D01*
X8181190Y-13135476D01*
X8133571Y-13135476D01*
X8114524Y-13125952D01*
X8105000Y-13116428D01*
X8295476Y-12935476D02*
X8295476Y-12973571D01*
X8371667Y-12935476D02*
X8371667Y-12973571D01*
X8666905Y-13211667D02*
X8657381Y-13202143D01*
X8638333Y-13173571D01*
X8628810Y-13154524D01*
X8619286Y-13125952D01*
X8609762Y-13078333D01*
X8609762Y-13040238D01*
X8619286Y-12992619D01*
X8628810Y-12964048D01*
X8638333Y-12945000D01*
X8657381Y-12916428D01*
X8666905Y-12906905D01*
X8828810Y-13002143D02*
X8828810Y-13135476D01*
X8781190Y-12925952D02*
X8733571Y-13068809D01*
X8857381Y-13068809D01*
X9085952Y-13135476D02*
X9085952Y-12935476D01*
X9171667Y-13135476D02*
X9171667Y-13030714D01*
X9162143Y-13011667D01*
X9143095Y-13002143D01*
X9114524Y-13002143D01*
X9095476Y-13011667D01*
X9085952Y-13021190D01*
X9295476Y-13135476D02*
X9276429Y-13125952D01*
X9266905Y-13116428D01*
X9257381Y-13097381D01*
X9257381Y-13040238D01*
X9266905Y-13021190D01*
X9276429Y-13011667D01*
X9295476Y-13002143D01*
X9324048Y-13002143D01*
X9343095Y-13011667D01*
X9352619Y-13021190D01*
X9362143Y-13040238D01*
X9362143Y-13097381D01*
X9352619Y-13116428D01*
X9343095Y-13125952D01*
X9324048Y-13135476D01*
X9295476Y-13135476D01*
X9476429Y-13135476D02*
X9457381Y-13125952D01*
X9447857Y-13106905D01*
X9447857Y-12935476D01*
X9628810Y-13125952D02*
X9609762Y-13135476D01*
X9571667Y-13135476D01*
X9552619Y-13125952D01*
X9543095Y-13106905D01*
X9543095Y-13030714D01*
X9552619Y-13011667D01*
X9571667Y-13002143D01*
X9609762Y-13002143D01*
X9628810Y-13011667D01*
X9638333Y-13030714D01*
X9638333Y-13049762D01*
X9543095Y-13068809D01*
X9714524Y-13125952D02*
X9733571Y-13135476D01*
X9771667Y-13135476D01*
X9790714Y-13125952D01*
X9800238Y-13106905D01*
X9800238Y-13097381D01*
X9790714Y-13078333D01*
X9771667Y-13068809D01*
X9743095Y-13068809D01*
X9724048Y-13059286D01*
X9714524Y-13040238D01*
X9714524Y-13030714D01*
X9724048Y-13011667D01*
X9743095Y-13002143D01*
X9771667Y-13002143D01*
X9790714Y-13011667D01*
X9866905Y-13211667D02*
X9876429Y-13202143D01*
X9895476Y-13173571D01*
X9905000Y-13154524D01*
X9914524Y-13125952D01*
X9924048Y-13078333D01*
X9924048Y-13040238D01*
X9914524Y-12992619D01*
X9905000Y-12964048D01*
X9895476Y-12945000D01*
X9876429Y-12916428D01*
X9866905Y-12906905D01*
D13*
X5095000Y-13309000D02*
G75*
G03*
X5095000Y-13309000I-45000J0D01*
G01*
D11*
X5390714Y-13199476D02*
X5409762Y-13199476D01*
X5428810Y-13209000D01*
X5438333Y-13218524D01*
X5447857Y-13237571D01*
X5457381Y-13275667D01*
X5457381Y-13323286D01*
X5447857Y-13361381D01*
X5438333Y-13380428D01*
X5428810Y-13389952D01*
X5409762Y-13399476D01*
X5390714Y-13399476D01*
X5371667Y-13389952D01*
X5362143Y-13380428D01*
X5352619Y-13361381D01*
X5343095Y-13323286D01*
X5343095Y-13275667D01*
X5352619Y-13237571D01*
X5362143Y-13218524D01*
X5371667Y-13209000D01*
X5390714Y-13199476D01*
X5543095Y-13380428D02*
X5552619Y-13389952D01*
X5543095Y-13399476D01*
X5533571Y-13389952D01*
X5543095Y-13380428D01*
X5543095Y-13399476D01*
X5647857Y-13399476D02*
X5685952Y-13399476D01*
X5705000Y-13389952D01*
X5714524Y-13380428D01*
X5733571Y-13351857D01*
X5743095Y-13313762D01*
X5743095Y-13237571D01*
X5733571Y-13218524D01*
X5724048Y-13209000D01*
X5705000Y-13199476D01*
X5666905Y-13199476D01*
X5647857Y-13209000D01*
X5638333Y-13218524D01*
X5628809Y-13237571D01*
X5628809Y-13285190D01*
X5638333Y-13304238D01*
X5647857Y-13313762D01*
X5666905Y-13323286D01*
X5705000Y-13323286D01*
X5724048Y-13313762D01*
X5733571Y-13304238D01*
X5743095Y-13285190D01*
X5866905Y-13199476D02*
X5885952Y-13199476D01*
X5905000Y-13209000D01*
X5914524Y-13218524D01*
X5924048Y-13237571D01*
X5933571Y-13275667D01*
X5933571Y-13323286D01*
X5924048Y-13361381D01*
X5914524Y-13380428D01*
X5905000Y-13389952D01*
X5885952Y-13399476D01*
X5866905Y-13399476D01*
X5847857Y-13389952D01*
X5838333Y-13380428D01*
X5828809Y-13361381D01*
X5819286Y-13323286D01*
X5819286Y-13275667D01*
X5828809Y-13237571D01*
X5838333Y-13218524D01*
X5847857Y-13209000D01*
X5866905Y-13199476D01*
X6057381Y-13199476D02*
X6076428Y-13199476D01*
X6095476Y-13209000D01*
X6105000Y-13218524D01*
X6114524Y-13237571D01*
X6124048Y-13275667D01*
X6124048Y-13323286D01*
X6114524Y-13361381D01*
X6105000Y-13380428D01*
X6095476Y-13389952D01*
X6076428Y-13399476D01*
X6057381Y-13399476D01*
X6038333Y-13389952D01*
X6028809Y-13380428D01*
X6019286Y-13361381D01*
X6009762Y-13323286D01*
X6009762Y-13275667D01*
X6019286Y-13237571D01*
X6028809Y-13218524D01*
X6038333Y-13209000D01*
X6057381Y-13199476D01*
X6209762Y-13399476D02*
X6209762Y-13266143D01*
X6209762Y-13285190D02*
X6219286Y-13275667D01*
X6238333Y-13266143D01*
X6266905Y-13266143D01*
X6285952Y-13275667D01*
X6295476Y-13294714D01*
X6295476Y-13399476D01*
X6295476Y-13294714D02*
X6305000Y-13275667D01*
X6324048Y-13266143D01*
X6352619Y-13266143D01*
X6371667Y-13275667D01*
X6381190Y-13294714D01*
X6381190Y-13399476D01*
X6476428Y-13399476D02*
X6476428Y-13266143D01*
X6476428Y-13285190D02*
X6485952Y-13275667D01*
X6505000Y-13266143D01*
X6533571Y-13266143D01*
X6552619Y-13275667D01*
X6562143Y-13294714D01*
X6562143Y-13399476D01*
X6562143Y-13294714D02*
X6571667Y-13275667D01*
X6590714Y-13266143D01*
X6619286Y-13266143D01*
X6638333Y-13275667D01*
X6647857Y-13294714D01*
X6647857Y-13399476D01*
X7038333Y-13189952D02*
X6866905Y-13447095D01*
X7295476Y-13199476D02*
X7314524Y-13199476D01*
X7333571Y-13209000D01*
X7343095Y-13218524D01*
X7352619Y-13237571D01*
X7362143Y-13275667D01*
X7362143Y-13323286D01*
X7352619Y-13361381D01*
X7343095Y-13380428D01*
X7333571Y-13389952D01*
X7314524Y-13399476D01*
X7295476Y-13399476D01*
X7276428Y-13389952D01*
X7266905Y-13380428D01*
X7257381Y-13361381D01*
X7247857Y-13323286D01*
X7247857Y-13275667D01*
X7257381Y-13237571D01*
X7266905Y-13218524D01*
X7276428Y-13209000D01*
X7295476Y-13199476D01*
X7447857Y-13380428D02*
X7457381Y-13389952D01*
X7447857Y-13399476D01*
X7438333Y-13389952D01*
X7447857Y-13380428D01*
X7447857Y-13399476D01*
X7581190Y-13199476D02*
X7600238Y-13199476D01*
X7619286Y-13209000D01*
X7628809Y-13218524D01*
X7638333Y-13237571D01*
X7647857Y-13275667D01*
X7647857Y-13323286D01*
X7638333Y-13361381D01*
X7628809Y-13380428D01*
X7619286Y-13389952D01*
X7600238Y-13399476D01*
X7581190Y-13399476D01*
X7562143Y-13389952D01*
X7552619Y-13380428D01*
X7543095Y-13361381D01*
X7533571Y-13323286D01*
X7533571Y-13275667D01*
X7543095Y-13237571D01*
X7552619Y-13218524D01*
X7562143Y-13209000D01*
X7581190Y-13199476D01*
X7714524Y-13199476D02*
X7838333Y-13199476D01*
X7771667Y-13275667D01*
X7800238Y-13275667D01*
X7819286Y-13285190D01*
X7828809Y-13294714D01*
X7838333Y-13313762D01*
X7838333Y-13361381D01*
X7828809Y-13380428D01*
X7819286Y-13389952D01*
X7800238Y-13399476D01*
X7743095Y-13399476D01*
X7724048Y-13389952D01*
X7714524Y-13380428D01*
X8019286Y-13199476D02*
X7924048Y-13199476D01*
X7914524Y-13294714D01*
X7924048Y-13285190D01*
X7943095Y-13275667D01*
X7990714Y-13275667D01*
X8009762Y-13285190D01*
X8019286Y-13294714D01*
X8028809Y-13313762D01*
X8028809Y-13361381D01*
X8019286Y-13380428D01*
X8009762Y-13389952D01*
X7990714Y-13399476D01*
X7943095Y-13399476D01*
X7924048Y-13389952D01*
X7914524Y-13380428D01*
X8200238Y-13266143D02*
X8200238Y-13399476D01*
X8152619Y-13189952D02*
X8105000Y-13332809D01*
X8228809Y-13332809D01*
X8295476Y-13199476D02*
X8295476Y-13237571D01*
X8371667Y-13199476D02*
X8371667Y-13237571D01*
X8666905Y-13475667D02*
X8657381Y-13466143D01*
X8638333Y-13437571D01*
X8628810Y-13418524D01*
X8619286Y-13389952D01*
X8609762Y-13342333D01*
X8609762Y-13304238D01*
X8619286Y-13256619D01*
X8628810Y-13228048D01*
X8638333Y-13209000D01*
X8657381Y-13180428D01*
X8666905Y-13170905D01*
X8838333Y-13199476D02*
X8743095Y-13199476D01*
X8733571Y-13294714D01*
X8743095Y-13285190D01*
X8762143Y-13275667D01*
X8809762Y-13275667D01*
X8828810Y-13285190D01*
X8838333Y-13294714D01*
X8847857Y-13313762D01*
X8847857Y-13361381D01*
X8838333Y-13380428D01*
X8828810Y-13389952D01*
X8809762Y-13399476D01*
X8762143Y-13399476D01*
X8743095Y-13389952D01*
X8733571Y-13380428D01*
X9085952Y-13399476D02*
X9085952Y-13199476D01*
X9171667Y-13399476D02*
X9171667Y-13294714D01*
X9162143Y-13275667D01*
X9143095Y-13266143D01*
X9114524Y-13266143D01*
X9095476Y-13275667D01*
X9085952Y-13285190D01*
X9295476Y-13399476D02*
X9276429Y-13389952D01*
X9266905Y-13380428D01*
X9257381Y-13361381D01*
X9257381Y-13304238D01*
X9266905Y-13285190D01*
X9276429Y-13275667D01*
X9295476Y-13266143D01*
X9324048Y-13266143D01*
X9343095Y-13275667D01*
X9352619Y-13285190D01*
X9362143Y-13304238D01*
X9362143Y-13361381D01*
X9352619Y-13380428D01*
X9343095Y-13389952D01*
X9324048Y-13399476D01*
X9295476Y-13399476D01*
X9476429Y-13399476D02*
X9457381Y-13389952D01*
X9447857Y-13370905D01*
X9447857Y-13199476D01*
X9628810Y-13389952D02*
X9609762Y-13399476D01*
X9571667Y-13399476D01*
X9552619Y-13389952D01*
X9543095Y-13370905D01*
X9543095Y-13294714D01*
X9552619Y-13275667D01*
X9571667Y-13266143D01*
X9609762Y-13266143D01*
X9628810Y-13275667D01*
X9638333Y-13294714D01*
X9638333Y-13313762D01*
X9543095Y-13332809D01*
X9714524Y-13389952D02*
X9733571Y-13399476D01*
X9771667Y-13399476D01*
X9790714Y-13389952D01*
X9800238Y-13370905D01*
X9800238Y-13361381D01*
X9790714Y-13342333D01*
X9771667Y-13332809D01*
X9743095Y-13332809D01*
X9724048Y-13323286D01*
X9714524Y-13304238D01*
X9714524Y-13294714D01*
X9724048Y-13275667D01*
X9743095Y-13266143D01*
X9771667Y-13266143D01*
X9790714Y-13275667D01*
X9866905Y-13475667D02*
X9876429Y-13466143D01*
X9895476Y-13437571D01*
X9905000Y-13418524D01*
X9914524Y-13389952D01*
X9924048Y-13342333D01*
X9924048Y-13304238D01*
X9914524Y-13256619D01*
X9905000Y-13228048D01*
X9895476Y-13209000D01*
X9876429Y-13180428D01*
X9866905Y-13170905D01*
D10*
X5045000Y-13523000D02*
X5045000Y-13623000D01*
X4995000Y-13573000D02*
X5095000Y-13573000D01*
D11*
X5457381Y-13663476D02*
X5343095Y-13663476D01*
X5400238Y-13663476D02*
X5400238Y-13463476D01*
X5381190Y-13492048D01*
X5362143Y-13511095D01*
X5343095Y-13520619D01*
X5543095Y-13644428D02*
X5552619Y-13653952D01*
X5543095Y-13663476D01*
X5533571Y-13653952D01*
X5543095Y-13644428D01*
X5543095Y-13663476D01*
X5676428Y-13463476D02*
X5695476Y-13463476D01*
X5714524Y-13473000D01*
X5724048Y-13482524D01*
X5733571Y-13501571D01*
X5743095Y-13539667D01*
X5743095Y-13587286D01*
X5733571Y-13625381D01*
X5724048Y-13644428D01*
X5714524Y-13653952D01*
X5695476Y-13663476D01*
X5676428Y-13663476D01*
X5657381Y-13653952D01*
X5647857Y-13644428D01*
X5638333Y-13625381D01*
X5628809Y-13587286D01*
X5628809Y-13539667D01*
X5638333Y-13501571D01*
X5647857Y-13482524D01*
X5657381Y-13473000D01*
X5676428Y-13463476D01*
X5866905Y-13463476D02*
X5885952Y-13463476D01*
X5905000Y-13473000D01*
X5914524Y-13482524D01*
X5924048Y-13501571D01*
X5933571Y-13539667D01*
X5933571Y-13587286D01*
X5924048Y-13625381D01*
X5914524Y-13644428D01*
X5905000Y-13653952D01*
X5885952Y-13663476D01*
X5866905Y-13663476D01*
X5847857Y-13653952D01*
X5838333Y-13644428D01*
X5828809Y-13625381D01*
X5819286Y-13587286D01*
X5819286Y-13539667D01*
X5828809Y-13501571D01*
X5838333Y-13482524D01*
X5847857Y-13473000D01*
X5866905Y-13463476D01*
X6057381Y-13463476D02*
X6076428Y-13463476D01*
X6095476Y-13473000D01*
X6105000Y-13482524D01*
X6114524Y-13501571D01*
X6124048Y-13539667D01*
X6124048Y-13587286D01*
X6114524Y-13625381D01*
X6105000Y-13644428D01*
X6095476Y-13653952D01*
X6076428Y-13663476D01*
X6057381Y-13663476D01*
X6038333Y-13653952D01*
X6028809Y-13644428D01*
X6019286Y-13625381D01*
X6009762Y-13587286D01*
X6009762Y-13539667D01*
X6019286Y-13501571D01*
X6028809Y-13482524D01*
X6038333Y-13473000D01*
X6057381Y-13463476D01*
X6209762Y-13663476D02*
X6209762Y-13530143D01*
X6209762Y-13549190D02*
X6219286Y-13539667D01*
X6238333Y-13530143D01*
X6266905Y-13530143D01*
X6285952Y-13539667D01*
X6295476Y-13558714D01*
X6295476Y-13663476D01*
X6295476Y-13558714D02*
X6305000Y-13539667D01*
X6324048Y-13530143D01*
X6352619Y-13530143D01*
X6371667Y-13539667D01*
X6381190Y-13558714D01*
X6381190Y-13663476D01*
X6476428Y-13663476D02*
X6476428Y-13530143D01*
X6476428Y-13549190D02*
X6485952Y-13539667D01*
X6505000Y-13530143D01*
X6533571Y-13530143D01*
X6552619Y-13539667D01*
X6562143Y-13558714D01*
X6562143Y-13663476D01*
X6562143Y-13558714D02*
X6571667Y-13539667D01*
X6590714Y-13530143D01*
X6619286Y-13530143D01*
X6638333Y-13539667D01*
X6647857Y-13558714D01*
X6647857Y-13663476D01*
X7038333Y-13453952D02*
X6866905Y-13711095D01*
X7295476Y-13463476D02*
X7314524Y-13463476D01*
X7333571Y-13473000D01*
X7343095Y-13482524D01*
X7352619Y-13501571D01*
X7362143Y-13539667D01*
X7362143Y-13587286D01*
X7352619Y-13625381D01*
X7343095Y-13644428D01*
X7333571Y-13653952D01*
X7314524Y-13663476D01*
X7295476Y-13663476D01*
X7276428Y-13653952D01*
X7266905Y-13644428D01*
X7257381Y-13625381D01*
X7247857Y-13587286D01*
X7247857Y-13539667D01*
X7257381Y-13501571D01*
X7266905Y-13482524D01*
X7276428Y-13473000D01*
X7295476Y-13463476D01*
X7447857Y-13644428D02*
X7457381Y-13653952D01*
X7447857Y-13663476D01*
X7438333Y-13653952D01*
X7447857Y-13644428D01*
X7447857Y-13663476D01*
X7581190Y-13463476D02*
X7600238Y-13463476D01*
X7619286Y-13473000D01*
X7628809Y-13482524D01*
X7638333Y-13501571D01*
X7647857Y-13539667D01*
X7647857Y-13587286D01*
X7638333Y-13625381D01*
X7628809Y-13644428D01*
X7619286Y-13653952D01*
X7600238Y-13663476D01*
X7581190Y-13663476D01*
X7562143Y-13653952D01*
X7552619Y-13644428D01*
X7543095Y-13625381D01*
X7533571Y-13587286D01*
X7533571Y-13539667D01*
X7543095Y-13501571D01*
X7552619Y-13482524D01*
X7562143Y-13473000D01*
X7581190Y-13463476D01*
X7714524Y-13463476D02*
X7838333Y-13463476D01*
X7771667Y-13539667D01*
X7800238Y-13539667D01*
X7819286Y-13549190D01*
X7828809Y-13558714D01*
X7838333Y-13577762D01*
X7838333Y-13625381D01*
X7828809Y-13644428D01*
X7819286Y-13653952D01*
X7800238Y-13663476D01*
X7743095Y-13663476D01*
X7724048Y-13653952D01*
X7714524Y-13644428D01*
X7933571Y-13663476D02*
X7971667Y-13663476D01*
X7990714Y-13653952D01*
X8000238Y-13644428D01*
X8019286Y-13615857D01*
X8028809Y-13577762D01*
X8028809Y-13501571D01*
X8019286Y-13482524D01*
X8009762Y-13473000D01*
X7990714Y-13463476D01*
X7952619Y-13463476D01*
X7933571Y-13473000D01*
X7924048Y-13482524D01*
X7914524Y-13501571D01*
X7914524Y-13549190D01*
X7924048Y-13568238D01*
X7933571Y-13577762D01*
X7952619Y-13587286D01*
X7990714Y-13587286D01*
X8009762Y-13577762D01*
X8019286Y-13568238D01*
X8028809Y-13549190D01*
X8200238Y-13530143D02*
X8200238Y-13663476D01*
X8152619Y-13453952D02*
X8105000Y-13596809D01*
X8228809Y-13596809D01*
X8295476Y-13463476D02*
X8295476Y-13501571D01*
X8371667Y-13463476D02*
X8371667Y-13501571D01*
X8666905Y-13739667D02*
X8657381Y-13730143D01*
X8638333Y-13701571D01*
X8628810Y-13682524D01*
X8619286Y-13653952D01*
X8609762Y-13606333D01*
X8609762Y-13568238D01*
X8619286Y-13520619D01*
X8628810Y-13492048D01*
X8638333Y-13473000D01*
X8657381Y-13444428D01*
X8666905Y-13434905D01*
X8828810Y-13530143D02*
X8828810Y-13663476D01*
X8781190Y-13453952D02*
X8733571Y-13596809D01*
X8857381Y-13596809D01*
X8924048Y-13482524D02*
X8933571Y-13473000D01*
X8952619Y-13463476D01*
X9000238Y-13463476D01*
X9019286Y-13473000D01*
X9028810Y-13482524D01*
X9038333Y-13501571D01*
X9038333Y-13520619D01*
X9028810Y-13549190D01*
X8914524Y-13663476D01*
X9038333Y-13663476D01*
X9276429Y-13663476D02*
X9276429Y-13463476D01*
X9362143Y-13663476D02*
X9362143Y-13558714D01*
X9352619Y-13539667D01*
X9333571Y-13530143D01*
X9305000Y-13530143D01*
X9285952Y-13539667D01*
X9276429Y-13549190D01*
X9485952Y-13663476D02*
X9466905Y-13653952D01*
X9457381Y-13644428D01*
X9447857Y-13625381D01*
X9447857Y-13568238D01*
X9457381Y-13549190D01*
X9466905Y-13539667D01*
X9485952Y-13530143D01*
X9514524Y-13530143D01*
X9533571Y-13539667D01*
X9543095Y-13549190D01*
X9552619Y-13568238D01*
X9552619Y-13625381D01*
X9543095Y-13644428D01*
X9533571Y-13653952D01*
X9514524Y-13663476D01*
X9485952Y-13663476D01*
X9666905Y-13663476D02*
X9647857Y-13653952D01*
X9638333Y-13634905D01*
X9638333Y-13463476D01*
X9819286Y-13653952D02*
X9800238Y-13663476D01*
X9762143Y-13663476D01*
X9743095Y-13653952D01*
X9733571Y-13634905D01*
X9733571Y-13558714D01*
X9743095Y-13539667D01*
X9762143Y-13530143D01*
X9800238Y-13530143D01*
X9819286Y-13539667D01*
X9828810Y-13558714D01*
X9828810Y-13577762D01*
X9733571Y-13596809D01*
X9905000Y-13653952D02*
X9924048Y-13663476D01*
X9962143Y-13663476D01*
X9981190Y-13653952D01*
X9990714Y-13634905D01*
X9990714Y-13625381D01*
X9981190Y-13606333D01*
X9962143Y-13596809D01*
X9933571Y-13596809D01*
X9914524Y-13587286D01*
X9905000Y-13568238D01*
X9905000Y-13558714D01*
X9914524Y-13539667D01*
X9933571Y-13530143D01*
X9962143Y-13530143D01*
X9981190Y-13539667D01*
X10057381Y-13739667D02*
X10066905Y-13730143D01*
X10085952Y-13701571D01*
X10095476Y-13682524D01*
X10105000Y-13653952D01*
X10114524Y-13606333D01*
X10114524Y-13568238D01*
X10105000Y-13520619D01*
X10095476Y-13492048D01*
X10085952Y-13473000D01*
X10066905Y-13444428D01*
X10057381Y-13434905D01*
D14*
X5078891Y-13875891D02*
X5078891Y-13798109D01*
X5001109Y-13798109D01*
X5001109Y-13875891D01*
X5078891Y-13875891D01*
D11*
X5457381Y-13927476D02*
X5343095Y-13927476D01*
X5400238Y-13927476D02*
X5400238Y-13727476D01*
X5381190Y-13756048D01*
X5362143Y-13775095D01*
X5343095Y-13784619D01*
X5543095Y-13908428D02*
X5552619Y-13917952D01*
X5543095Y-13927476D01*
X5533571Y-13917952D01*
X5543095Y-13908428D01*
X5543095Y-13927476D01*
X5743095Y-13927476D02*
X5628809Y-13927476D01*
X5685952Y-13927476D02*
X5685952Y-13727476D01*
X5666905Y-13756048D01*
X5647857Y-13775095D01*
X5628809Y-13784619D01*
X5866905Y-13727476D02*
X5885952Y-13727476D01*
X5905000Y-13737000D01*
X5914524Y-13746524D01*
X5924048Y-13765571D01*
X5933571Y-13803667D01*
X5933571Y-13851286D01*
X5924048Y-13889381D01*
X5914524Y-13908428D01*
X5905000Y-13917952D01*
X5885952Y-13927476D01*
X5866905Y-13927476D01*
X5847857Y-13917952D01*
X5838333Y-13908428D01*
X5828809Y-13889381D01*
X5819286Y-13851286D01*
X5819286Y-13803667D01*
X5828809Y-13765571D01*
X5838333Y-13746524D01*
X5847857Y-13737000D01*
X5866905Y-13727476D01*
X6057381Y-13727476D02*
X6076428Y-13727476D01*
X6095476Y-13737000D01*
X6105000Y-13746524D01*
X6114524Y-13765571D01*
X6124048Y-13803667D01*
X6124048Y-13851286D01*
X6114524Y-13889381D01*
X6105000Y-13908428D01*
X6095476Y-13917952D01*
X6076428Y-13927476D01*
X6057381Y-13927476D01*
X6038333Y-13917952D01*
X6028809Y-13908428D01*
X6019286Y-13889381D01*
X6009762Y-13851286D01*
X6009762Y-13803667D01*
X6019286Y-13765571D01*
X6028809Y-13746524D01*
X6038333Y-13737000D01*
X6057381Y-13727476D01*
X6209762Y-13927476D02*
X6209762Y-13794143D01*
X6209762Y-13813190D02*
X6219286Y-13803667D01*
X6238333Y-13794143D01*
X6266905Y-13794143D01*
X6285952Y-13803667D01*
X6295476Y-13822714D01*
X6295476Y-13927476D01*
X6295476Y-13822714D02*
X6305000Y-13803667D01*
X6324048Y-13794143D01*
X6352619Y-13794143D01*
X6371667Y-13803667D01*
X6381190Y-13822714D01*
X6381190Y-13927476D01*
X6476428Y-13927476D02*
X6476428Y-13794143D01*
X6476428Y-13813190D02*
X6485952Y-13803667D01*
X6505000Y-13794143D01*
X6533571Y-13794143D01*
X6552619Y-13803667D01*
X6562143Y-13822714D01*
X6562143Y-13927476D01*
X6562143Y-13822714D02*
X6571667Y-13803667D01*
X6590714Y-13794143D01*
X6619286Y-13794143D01*
X6638333Y-13803667D01*
X6647857Y-13822714D01*
X6647857Y-13927476D01*
X7038333Y-13717952D02*
X6866905Y-13975095D01*
X7295476Y-13727476D02*
X7314524Y-13727476D01*
X7333571Y-13737000D01*
X7343095Y-13746524D01*
X7352619Y-13765571D01*
X7362143Y-13803667D01*
X7362143Y-13851286D01*
X7352619Y-13889381D01*
X7343095Y-13908428D01*
X7333571Y-13917952D01*
X7314524Y-13927476D01*
X7295476Y-13927476D01*
X7276428Y-13917952D01*
X7266905Y-13908428D01*
X7257381Y-13889381D01*
X7247857Y-13851286D01*
X7247857Y-13803667D01*
X7257381Y-13765571D01*
X7266905Y-13746524D01*
X7276428Y-13737000D01*
X7295476Y-13727476D01*
X7447857Y-13908428D02*
X7457381Y-13917952D01*
X7447857Y-13927476D01*
X7438333Y-13917952D01*
X7447857Y-13908428D01*
X7447857Y-13927476D01*
X7581190Y-13727476D02*
X7600238Y-13727476D01*
X7619286Y-13737000D01*
X7628809Y-13746524D01*
X7638333Y-13765571D01*
X7647857Y-13803667D01*
X7647857Y-13851286D01*
X7638333Y-13889381D01*
X7628809Y-13908428D01*
X7619286Y-13917952D01*
X7600238Y-13927476D01*
X7581190Y-13927476D01*
X7562143Y-13917952D01*
X7552619Y-13908428D01*
X7543095Y-13889381D01*
X7533571Y-13851286D01*
X7533571Y-13803667D01*
X7543095Y-13765571D01*
X7552619Y-13746524D01*
X7562143Y-13737000D01*
X7581190Y-13727476D01*
X7819286Y-13794143D02*
X7819286Y-13927476D01*
X7771667Y-13717952D02*
X7724048Y-13860809D01*
X7847857Y-13860809D01*
X7905000Y-13727476D02*
X8028809Y-13727476D01*
X7962143Y-13803667D01*
X7990714Y-13803667D01*
X8009762Y-13813190D01*
X8019286Y-13822714D01*
X8028809Y-13841762D01*
X8028809Y-13889381D01*
X8019286Y-13908428D01*
X8009762Y-13917952D01*
X7990714Y-13927476D01*
X7933571Y-13927476D01*
X7914524Y-13917952D01*
X7905000Y-13908428D01*
X8095476Y-13727476D02*
X8219286Y-13727476D01*
X8152619Y-13803667D01*
X8181190Y-13803667D01*
X8200238Y-13813190D01*
X8209762Y-13822714D01*
X8219286Y-13841762D01*
X8219286Y-13889381D01*
X8209762Y-13908428D01*
X8200238Y-13917952D01*
X8181190Y-13927476D01*
X8124048Y-13927476D01*
X8105000Y-13917952D01*
X8095476Y-13908428D01*
X8295476Y-13727476D02*
X8295476Y-13765571D01*
X8371667Y-13727476D02*
X8371667Y-13765571D01*
X8666905Y-14003667D02*
X8657381Y-13994143D01*
X8638333Y-13965571D01*
X8628810Y-13946524D01*
X8619286Y-13917952D01*
X8609762Y-13870333D01*
X8609762Y-13832238D01*
X8619286Y-13784619D01*
X8628810Y-13756048D01*
X8638333Y-13737000D01*
X8657381Y-13708428D01*
X8666905Y-13698905D01*
X8724048Y-13727476D02*
X8847857Y-13727476D01*
X8781190Y-13803667D01*
X8809762Y-13803667D01*
X8828810Y-13813190D01*
X8838333Y-13822714D01*
X8847857Y-13841762D01*
X8847857Y-13889381D01*
X8838333Y-13908428D01*
X8828810Y-13917952D01*
X8809762Y-13927476D01*
X8752619Y-13927476D01*
X8733571Y-13917952D01*
X8724048Y-13908428D01*
X9085952Y-13927476D02*
X9085952Y-13727476D01*
X9171667Y-13927476D02*
X9171667Y-13822714D01*
X9162143Y-13803667D01*
X9143095Y-13794143D01*
X9114524Y-13794143D01*
X9095476Y-13803667D01*
X9085952Y-13813190D01*
X9295476Y-13927476D02*
X9276429Y-13917952D01*
X9266905Y-13908428D01*
X9257381Y-13889381D01*
X9257381Y-13832238D01*
X9266905Y-13813190D01*
X9276429Y-13803667D01*
X9295476Y-13794143D01*
X9324048Y-13794143D01*
X9343095Y-13803667D01*
X9352619Y-13813190D01*
X9362143Y-13832238D01*
X9362143Y-13889381D01*
X9352619Y-13908428D01*
X9343095Y-13917952D01*
X9324048Y-13927476D01*
X9295476Y-13927476D01*
X9476429Y-13927476D02*
X9457381Y-13917952D01*
X9447857Y-13898905D01*
X9447857Y-13727476D01*
X9628810Y-13917952D02*
X9609762Y-13927476D01*
X9571667Y-13927476D01*
X9552619Y-13917952D01*
X9543095Y-13898905D01*
X9543095Y-13822714D01*
X9552619Y-13803667D01*
X9571667Y-13794143D01*
X9609762Y-13794143D01*
X9628810Y-13803667D01*
X9638333Y-13822714D01*
X9638333Y-13841762D01*
X9543095Y-13860809D01*
X9714524Y-13917952D02*
X9733571Y-13927476D01*
X9771667Y-13927476D01*
X9790714Y-13917952D01*
X9800238Y-13898905D01*
X9800238Y-13889381D01*
X9790714Y-13870333D01*
X9771667Y-13860809D01*
X9743095Y-13860809D01*
X9724048Y-13851286D01*
X9714524Y-13832238D01*
X9714524Y-13822714D01*
X9724048Y-13803667D01*
X9743095Y-13794143D01*
X9771667Y-13794143D01*
X9790714Y-13803667D01*
X9866905Y-14003667D02*
X9876429Y-13994143D01*
X9895476Y-13965571D01*
X9905000Y-13946524D01*
X9914524Y-13917952D01*
X9924048Y-13870333D01*
X9924048Y-13832238D01*
X9914524Y-13784619D01*
X9905000Y-13756048D01*
X9895476Y-13737000D01*
X9876429Y-13708428D01*
X9866905Y-13698905D01*
M02*
