%TF.GenerationSoftware,KiCad,Pcbnew,(6.0.11)*%
%TF.CreationDate,2023-01-29T20:34:43-05:00*%
%TF.ProjectId,Coil_Winder,436f696c-5f57-4696-9e64-65722e6b6963,rev?*%
%TF.SameCoordinates,Original*%
%TF.FileFunction,Plated,1,2,PTH,Drill*%
%TF.FilePolarity,Positive*%
%FSLAX46Y46*%
G04 Gerber Fmt 4.6, Leading zero omitted, Abs format (unit mm)*
G04 Created by KiCad (PCBNEW (6.0.11)) date 2023-01-29 20:34:43*
%MOMM*%
%LPD*%
G01*
G04 APERTURE LIST*
%TA.AperFunction,ComponentDrill*%
%ADD10C,0.800000*%
%TD*%
%TA.AperFunction,ComponentDrill*%
%ADD11C,0.900000*%
%TD*%
%TA.AperFunction,ComponentDrill*%
%ADD12C,1.000000*%
%TD*%
%TA.AperFunction,ComponentDrill*%
%ADD13C,1.100000*%
%TD*%
G04 APERTURE END LIST*
D10*
%TO.C,C1*%
X66040000Y-73470000D03*
X66040000Y-78470000D03*
%TO.C,C2*%
X83820000Y-73470000D03*
X83820000Y-78470000D03*
D11*
%TO.C,SW1*%
X59920000Y-113660000D03*
X59920000Y-118740000D03*
X62460000Y-113660000D03*
X65000000Y-113660000D03*
X65000000Y-118740000D03*
D12*
%TO.C,J1*%
X54605000Y-75780000D03*
X57145000Y-75780000D03*
%TO.C,U2*%
X57150000Y-86370000D03*
X57150000Y-101610000D03*
X59690000Y-86370000D03*
X59690000Y-101610000D03*
X62230000Y-86370000D03*
X62230000Y-101610000D03*
X64770000Y-86370000D03*
X64770000Y-101610000D03*
X67310000Y-86370000D03*
X67310000Y-101610000D03*
X69850000Y-86370000D03*
X69850000Y-101610000D03*
X72390000Y-86370000D03*
X72390000Y-101610000D03*
X74930000Y-86370000D03*
X74930000Y-101610000D03*
X77470000Y-86370000D03*
X77470000Y-101610000D03*
X80010000Y-86370000D03*
X80010000Y-101610000D03*
%TO.C,RV1*%
X81325000Y-112000000D03*
%TO.C,U2*%
X82550000Y-86370000D03*
X82550000Y-101610000D03*
%TO.C,RV1*%
X83865000Y-112000000D03*
%TO.C,U2*%
X85090000Y-86370000D03*
X85090000Y-101610000D03*
%TO.C,RV1*%
X86405000Y-112000000D03*
%TO.C,U2*%
X87630000Y-86370000D03*
X87630000Y-101610000D03*
X90170000Y-86370000D03*
X90170000Y-101610000D03*
%TO.C,SW2*%
X91440000Y-76010000D03*
%TO.C,U2*%
X92710000Y-86370000D03*
X92710000Y-101610000D03*
%TO.C,SW2*%
X93980000Y-76010000D03*
%TO.C,J2*%
X113035000Y-116380000D03*
X115575000Y-116380000D03*
%TO.C,J3*%
X127000000Y-116380000D03*
X129540000Y-116380000D03*
X132080000Y-116380000D03*
D13*
%TO.C,U1*%
X72390000Y-75960000D03*
X74930000Y-75960000D03*
X77470000Y-75960000D03*
M02*
